<svg xmlns="http://www.w3.org/2000/svg" xmlns:xlink="http://www.w3.org/1999/xlink" width="200" zoomAndPan="magnify" viewBox="0 0 150 149.999998" height="200" preserveAspectRatio="xMidYMid meet" version="1.0"><path fill="#5cae33" d="M 28.140625 8.71875 C 17.429688 8.71875 8.71875 17.429688 8.71875 28.140625 L 8.71875 121.867188 C 8.71875 132.574219 17.429688 141.285156 28.140625 141.285156 L 121.867188 141.285156 C 132.574219 141.285156 141.285156 132.574219 141.285156 121.867188 L 141.285156 28.140625 C 141.285156 17.429688 132.574219 8.71875 121.867188 8.71875 Z M 121.867188 150.003906 L 28.140625 150.003906 C 12.621094 150.003906 0 137.378906 0 121.867188 L 0 28.140625 C 0 12.621094 12.621094 0 28.140625 0 L 121.867188 0 C 137.382812 0 150.003906 12.621094 150.003906 28.140625 L 150.003906 121.867188 C 150.003906 137.378906 137.382812 150.003906 121.867188 150.003906 " fill-opacity="1" fill-rule="nonzero"/><path fill="#5cae33" d="M 108.488281 70.640625 L 79.363281 70.640625 L 79.363281 41.515625 C 79.363281 39.109375 77.410156 37.15625 75.003906 37.15625 C 72.59375 37.15625 70.640625 39.109375 70.640625 41.515625 L 70.640625 70.640625 L 41.515625 70.640625 C 39.109375 70.640625 37.15625 72.59375 37.15625 75 C 37.15625 77.410156 39.109375 79.363281 41.515625 79.363281 L 70.640625 79.363281 L 70.640625 108.488281 C 70.640625 110.894531 72.59375 112.847656 75.003906 112.847656 C 77.410156 112.847656 79.363281 110.894531 79.363281 108.488281 L 79.363281 79.363281 L 108.488281 79.363281 C 110.894531 79.363281 112.847656 77.410156 112.847656 75 C 112.847656 72.59375 110.894531 70.640625 108.488281 70.640625 " fill-opacity="1" fill-rule="nonzero"/></svg>