<svg xmlns="http://www.w3.org/2000/svg" xmlns:xlink="http://www.w3.org/1999/xlink" width="150" zoomAndPan="magnify" viewBox="0 0 112.5 112.499997" height="150" preserveAspectRatio="xMidYMid meet" version="1.0"><defs><clipPath id="9f7242e5e7"><path d="M 1.683594 74.929688 L 38.339844 74.929688 L 38.339844 109.339844 L 1.683594 109.339844 Z M 1.683594 74.929688 " clip-rule="nonzero"/></clipPath><clipPath id="b131bd1a0a"><path d="M 14.378906 74.929688 L 25.644531 74.929688 C 32.65625 74.929688 38.339844 80.613281 38.339844 87.621094 L 38.339844 96.648438 C 38.339844 103.65625 32.65625 109.339844 25.644531 109.339844 L 14.378906 109.339844 C 7.367188 109.339844 1.683594 103.65625 1.683594 96.648438 L 1.683594 87.621094 C 1.683594 80.613281 7.367188 74.929688 14.378906 74.929688 Z M 14.378906 74.929688 " clip-rule="nonzero"/></clipPath><clipPath id="42c01dd6c8"><path d="M 0.746094 0.746094 L 111.253906 0.746094 L 111.253906 111.253906 L 0.746094 111.253906 Z M 0.746094 0.746094 " clip-rule="nonzero"/></clipPath><clipPath id="a43783dd32"><path d="M 0 12.695312 L 0 99.308594 C 0 106.320312 5.683594 112.003906 12.695312 112.003906 L 99.308594 112.003906 C 106.320312 112.003906 112.003906 106.320312 112.003906 99.308594 L 112.003906 12.695312 C 112.003906 5.683594 106.320312 0 99.308594 0 L 12.695312 0 C 5.683594 0 0 5.683594 0 12.695312 Z M 0 12.695312 " clip-rule="nonzero"/></clipPath><clipPath id="38a4017d0b"><path d="M 13.589844 0.894531 L 98.414062 0.894531 C 105.421875 0.894531 111.105469 6.578125 111.105469 13.589844 L 111.105469 98.414062 C 111.105469 105.421875 105.421875 111.105469 98.414062 111.105469 L 13.589844 111.105469 C 6.578125 111.105469 0.894531 105.421875 0.894531 98.414062 L 0.894531 13.589844 C 0.894531 6.578125 6.578125 0.894531 13.589844 0.894531 Z M 13.589844 0.894531 " clip-rule="nonzero"/></clipPath><clipPath id="147f38e1e8"><path d="M 33 33 L 71 33 L 71 71 L 33 71 Z M 33 33 " clip-rule="nonzero"/></clipPath><clipPath id="a8a7ea544e"><path d="M 0 12.695312 L 0 99.308594 C 0 106.320312 5.683594 112.003906 12.695312 112.003906 L 99.308594 112.003906 C 106.320312 112.003906 112.003906 106.320312 112.003906 99.308594 L 112.003906 12.695312 C 112.003906 5.683594 106.320312 0 99.308594 0 L 12.695312 0 C 5.683594 0 0 5.683594 0 12.695312 Z M 0 12.695312 " clip-rule="nonzero"/></clipPath><clipPath id="fe705d9ae2"><path d="M 13.589844 0.894531 L 98.414062 0.894531 C 105.421875 0.894531 111.105469 6.578125 111.105469 13.589844 L 111.105469 98.414062 C 111.105469 105.421875 105.421875 111.105469 98.414062 111.105469 L 13.589844 111.105469 C 6.578125 111.105469 0.894531 105.421875 0.894531 98.414062 L 0.894531 13.589844 C 0.894531 6.578125 6.578125 0.894531 13.589844 0.894531 Z M 13.589844 0.894531 " clip-rule="nonzero"/></clipPath><clipPath id="e5d206e604"><path d="M 0 0 L 112.003906 0 L 112.003906 112.003906 L 0 112.003906 Z M 0 0 " clip-rule="nonzero"/></clipPath><clipPath id="48c9f4026c"><path d="M 0 12.695312 L 0 99.308594 C 0 106.320312 5.683594 112.003906 12.695312 112.003906 L 99.308594 112.003906 C 106.320312 112.003906 112.003906 106.320312 112.003906 99.308594 L 112.003906 12.695312 C 112.003906 5.683594 106.320312 0 99.308594 0 L 12.695312 0 C 5.683594 0 0 5.683594 0 12.695312 Z M 0 12.695312 " clip-rule="nonzero"/></clipPath><clipPath id="793bad6c62"><path d="M 0 12.695312 L 0 99.308594 C 0 106.320312 5.683594 112.003906 12.695312 112.003906 L 99.308594 112.003906 C 106.320312 112.003906 112.003906 106.320312 112.003906 99.308594 L 112.003906 12.695312 C 112.003906 5.683594 106.320312 0 99.308594 0 L 12.695312 0 C 5.683594 0 0 5.683594 0 12.695312 Z M 0 12.695312 " clip-rule="nonzero"/></clipPath><clipPath id="9206eae1e7"><path d="M 91.644531 74.929688 L 112.003906 74.929688 L 112.003906 109.339844 L 91.644531 109.339844 Z M 91.644531 74.929688 " clip-rule="nonzero"/></clipPath><clipPath id="456ab1b4f8"><path d="M 101.824219 74.929688 C 107.445312 74.929688 112.003906 79.484375 112.003906 85.109375 L 112.003906 99.164062 C 112.003906 104.785156 107.445312 109.339844 101.824219 109.339844 C 96.203125 109.339844 91.644531 104.785156 91.644531 99.164062 L 91.644531 85.109375 C 91.644531 79.484375 96.203125 74.929688 101.824219 74.929688 Z M 101.824219 74.929688 " clip-rule="nonzero"/></clipPath><clipPath id="0307ddec59"><path d="M 65.167969 92.136719 L 101.824219 92.136719 L 101.824219 109.339844 L 65.167969 109.339844 Z M 65.167969 92.136719 " clip-rule="nonzero"/></clipPath><clipPath id="9b4ab14afa"><path d="M 73.773438 92.136719 L 93.21875 92.136719 C 95.503906 92.136719 97.691406 93.042969 99.304688 94.65625 C 100.917969 96.269531 101.824219 98.457031 101.824219 100.738281 C 101.824219 103.019531 100.917969 105.207031 99.304688 106.820312 C 97.691406 108.433594 95.503906 109.339844 93.21875 109.339844 L 73.773438 109.339844 C 71.492188 109.339844 69.304688 108.433594 67.691406 106.820312 C 66.074219 105.207031 65.167969 103.019531 65.167969 100.738281 C 65.167969 98.457031 66.074219 96.269531 67.691406 94.65625 C 69.304688 93.042969 71.492188 92.136719 73.773438 92.136719 Z M 73.773438 92.136719 " clip-rule="nonzero"/></clipPath><clipPath id="ad21a6cc0f"><path d="M 4.089844 0 L 41.277344 0 L 41.277344 16.296875 L 4.089844 16.296875 Z M 4.089844 0 " clip-rule="nonzero"/></clipPath><clipPath id="a50052b3b6"><path d="M 12.238281 0 L 33.128906 0 C 37.628906 0 41.277344 3.648438 41.277344 8.148438 C 41.277344 12.648438 37.628906 16.296875 33.128906 16.296875 L 12.238281 16.296875 C 7.738281 16.296875 4.089844 12.648438 4.089844 8.148438 C 4.089844 3.648438 7.738281 0 12.238281 0 Z M 12.238281 0 " clip-rule="nonzero"/></clipPath><clipPath id="1de86770b1"><path d="M 4.089844 5.664062 L 26.769531 5.664062 L 26.769531 40.074219 L 4.089844 40.074219 Z M 4.089844 5.664062 " clip-rule="nonzero"/></clipPath><clipPath id="f175ad8c81"><path d="M 15.429688 5.664062 C 21.695312 5.664062 26.769531 10.738281 26.769531 17.003906 L 26.769531 28.734375 C 26.769531 34.996094 21.695312 40.074219 15.429688 40.074219 C 9.167969 40.074219 4.089844 34.996094 4.089844 28.734375 L 4.089844 17.003906 C 4.089844 10.738281 9.167969 5.664062 15.429688 5.664062 Z M 15.429688 5.664062 " clip-rule="nonzero"/></clipPath><clipPath id="1d471fd91f"><path d="M 73.316406 2.992188 L 109.972656 2.992188 L 109.972656 37.402344 L 73.316406 37.402344 Z M 73.316406 2.992188 " clip-rule="nonzero"/></clipPath><clipPath id="b8c2ed6706"><path d="M 86.011719 2.992188 L 97.277344 2.992188 C 104.289062 2.992188 109.972656 8.675781 109.972656 15.683594 L 109.972656 24.710938 C 109.972656 31.71875 104.289062 37.402344 97.277344 37.402344 L 86.011719 37.402344 C 79 37.402344 73.316406 31.71875 73.316406 24.710938 L 73.316406 15.683594 C 73.316406 8.675781 79 2.992188 86.011719 2.992188 Z M 86.011719 2.992188 " clip-rule="nonzero"/></clipPath></defs><g clip-path="url(#9f7242e5e7)"><g clip-path="url(#b131bd1a0a)"><path fill="#d2584e" d="M 1.683594 74.929688 L 38.339844 74.929688 L 38.339844 109.339844 L 1.683594 109.339844 Z M 1.683594 74.929688 " fill-opacity="1" fill-rule="nonzero"/></g></g><g clip-path="url(#42c01dd6c8)"><g clip-path="url(#a43783dd32)"><g clip-path="url(#38a4017d0b)"><path fill="#d2584e" d="M 86.347656 86.347656 C 85.382812 87.3125 84.117188 87.796875 82.847656 87.796875 C 81.582031 87.796875 80.316406 87.3125 79.351562 86.347656 L 66.757812 73.753906 C 62.238281 76.835938 56.980469 78.386719 51.71875 78.386719 C 44.886719 78.386719 38.054688 75.785156 32.855469 70.585938 C 22.453125 60.183594 22.453125 43.257812 32.855469 32.855469 C 43.257812 22.453125 60.183594 22.453125 70.585938 32.855469 C 79.792969 42.0625 80.84375 56.375 73.753906 66.757812 L 86.347656 79.351562 C 88.28125 81.28125 88.28125 84.414062 86.347656 86.347656 Z M 56 0 C 25.074219 0 0 25.074219 0 56 C 0 86.929688 25.074219 112.003906 56 112.003906 C 86.929688 112.003906 112.003906 86.929688 112.003906 56 C 112.003906 25.074219 86.929688 0 56 0 " fill-opacity="1" fill-rule="nonzero"/></g></g></g><g clip-path="url(#147f38e1e8)"><g clip-path="url(#a8a7ea544e)"><g clip-path="url(#fe705d9ae2)"><path fill="#d2584e" d="M 51.71875 33.273438 C 46.992188 33.273438 42.269531 35.074219 38.671875 38.671875 C 31.476562 45.867188 31.476562 57.574219 38.671875 64.769531 C 45.867188 71.964844 57.574219 71.964844 64.769531 64.769531 C 71.964844 57.574219 71.964844 45.867188 64.769531 38.671875 C 61.171875 35.074219 56.445312 33.273438 51.71875 33.273438 " fill-opacity="1" fill-rule="nonzero"/></g></g></g><g clip-path="url(#e5d206e604)"><g clip-path="url(#48c9f4026c)"><g clip-path="url(#793bad6c62)"><path stroke-linecap="butt" transform="matrix(0.746681, 0, 0, 0.746681, 0.0000015, 0.000000995575)" fill="none" stroke-linejoin="miter" d="M -0.00000200889 17.002315 L -0.00000200889 132.999961 C -0.00000200889 142.390471 7.611804 150.002277 17.002314 150.002277 L 132.999961 150.002277 C 142.390471 150.002277 150.002277 142.390471 150.002277 132.999961 L 150.002277 17.002315 C 150.002277 7.611805 142.390471 -0.00000133333 132.999961 -0.00000133333 L 17.002314 -0.00000133333 C 7.611804 -0.00000133333 -0.00000200889 7.611805 -0.00000200889 17.002315 Z M -0.00000200889 17.002315 " stroke="#d2584e" stroke-width="14" stroke-opacity="1" stroke-miterlimit="4"/></g></g></g><g clip-path="url(#9206eae1e7)"><g clip-path="url(#456ab1b4f8)"><path fill="#d2584e" d="M 91.644531 74.929688 L 112.003906 74.929688 L 112.003906 109.339844 L 91.644531 109.339844 Z M 91.644531 74.929688 " fill-opacity="1" fill-rule="nonzero"/></g></g><g clip-path="url(#0307ddec59)"><g clip-path="url(#9b4ab14afa)"><path fill="#d2584e" d="M 65.167969 92.136719 L 101.824219 92.136719 L 101.824219 109.339844 L 65.167969 109.339844 Z M 65.167969 92.136719 " fill-opacity="1" fill-rule="nonzero"/></g></g><g clip-path="url(#ad21a6cc0f)"><g clip-path="url(#a50052b3b6)"><path fill="#d2584e" d="M 4.089844 0 L 41.277344 0 L 41.277344 16.296875 L 4.089844 16.296875 Z M 4.089844 0 " fill-opacity="1" fill-rule="nonzero"/></g></g><g clip-path="url(#1de86770b1)"><g clip-path="url(#f175ad8c81)"><path fill="#d2584e" d="M 4.089844 5.664062 L 26.769531 5.664062 L 26.769531 40.074219 L 4.089844 40.074219 Z M 4.089844 5.664062 " fill-opacity="1" fill-rule="nonzero"/></g></g><g clip-path="url(#1d471fd91f)"><g clip-path="url(#b8c2ed6706)"><path fill="#d2584e" d="M 73.316406 2.992188 L 109.972656 2.992188 L 109.972656 37.402344 L 73.316406 37.402344 Z M 73.316406 2.992188 " fill-opacity="1" fill-rule="nonzero"/></g></g></svg>