<svg xmlns="http://www.w3.org/2000/svg" xmlns:xlink="http://www.w3.org/1999/xlink" width="150" zoomAndPan="magnify" viewBox="0 0 112.5 112.499997" height="150" preserveAspectRatio="xMidYMid meet" version="1.0"><defs><clipPath id="6f7fde7a57"><path d="M 0.746094 0.746094 L 111.253906 0.746094 L 111.253906 111.253906 L 0.746094 111.253906 Z M 0.746094 0.746094 " clip-rule="nonzero"/></clipPath><clipPath id="29dec1f1dc"><path d="M 0 12.695312 L 0 99.308594 C 0 106.320312 5.683594 112.003906 12.695312 112.003906 L 99.308594 112.003906 C 106.320312 112.003906 112.003906 106.320312 112.003906 99.308594 L 112.003906 12.695312 C 112.003906 5.683594 106.320312 0 99.308594 0 L 12.695312 0 C 5.683594 0 0 5.683594 0 12.695312 Z M 0 12.695312 " clip-rule="nonzero"/></clipPath><clipPath id="0c17ffcc8d"><path d="M 13.589844 0.894531 L 98.414062 0.894531 C 105.421875 0.894531 111.105469 6.578125 111.105469 13.589844 L 111.105469 98.414062 C 111.105469 105.421875 105.421875 111.105469 98.414062 111.105469 L 13.589844 111.105469 C 6.578125 111.105469 0.894531 105.421875 0.894531 98.414062 L 0.894531 13.589844 C 0.894531 6.578125 6.578125 0.894531 13.589844 0.894531 Z M 13.589844 0.894531 " clip-rule="nonzero"/></clipPath><clipPath id="8209826c4f"><path d="M 33 33 L 71 33 L 71 71 L 33 71 Z M 33 33 " clip-rule="nonzero"/></clipPath><clipPath id="0d9e4c0419"><path d="M 0 12.695312 L 0 99.308594 C 0 106.320312 5.683594 112.003906 12.695312 112.003906 L 99.308594 112.003906 C 106.320312 112.003906 112.003906 106.320312 112.003906 99.308594 L 112.003906 12.695312 C 112.003906 5.683594 106.320312 0 99.308594 0 L 12.695312 0 C 5.683594 0 0 5.683594 0 12.695312 Z M 0 12.695312 " clip-rule="nonzero"/></clipPath><clipPath id="2fa636eafb"><path d="M 13.589844 0.894531 L 98.414062 0.894531 C 105.421875 0.894531 111.105469 6.578125 111.105469 13.589844 L 111.105469 98.414062 C 111.105469 105.421875 105.421875 111.105469 98.414062 111.105469 L 13.589844 111.105469 C 6.578125 111.105469 0.894531 105.421875 0.894531 98.414062 L 0.894531 13.589844 C 0.894531 6.578125 6.578125 0.894531 13.589844 0.894531 Z M 13.589844 0.894531 " clip-rule="nonzero"/></clipPath><clipPath id="0cd2958234"><path d="M 0 0 L 112.003906 0 L 112.003906 112.003906 L 0 112.003906 Z M 0 0 " clip-rule="nonzero"/></clipPath><clipPath id="dcd2494019"><path d="M 0 12.695312 L 0 99.308594 C 0 106.320312 5.683594 112.003906 12.695312 112.003906 L 99.308594 112.003906 C 106.320312 112.003906 112.003906 106.320312 112.003906 99.308594 L 112.003906 12.695312 C 112.003906 5.683594 106.320312 0 99.308594 0 L 12.695312 0 C 5.683594 0 0 5.683594 0 12.695312 Z M 0 12.695312 " clip-rule="nonzero"/></clipPath><clipPath id="e3b0d0014b"><path d="M 0 12.695312 L 0 99.308594 C 0 106.320312 5.683594 112.003906 12.695312 112.003906 L 99.308594 112.003906 C 106.320312 112.003906 112.003906 106.320312 112.003906 99.308594 L 112.003906 12.695312 C 112.003906 5.683594 106.320312 0 99.308594 0 L 12.695312 0 C 5.683594 0 0 5.683594 0 12.695312 Z M 0 12.695312 " clip-rule="nonzero"/></clipPath></defs><g clip-path="url(#6f7fde7a57)"><g clip-path="url(#29dec1f1dc)"><g clip-path="url(#0c17ffcc8d)"><path fill="#5cae33" d="M 86.347656 86.347656 C 85.382812 87.3125 84.117188 87.796875 82.847656 87.796875 C 81.582031 87.796875 80.316406 87.3125 79.351562 86.347656 L 66.757812 73.753906 C 62.238281 76.835938 56.980469 78.386719 51.71875 78.386719 C 44.886719 78.386719 38.054688 75.785156 32.855469 70.585938 C 22.453125 60.183594 22.453125 43.257812 32.855469 32.855469 C 43.257812 22.453125 60.183594 22.453125 70.585938 32.855469 C 79.792969 42.0625 80.84375 56.375 73.753906 66.757812 L 86.347656 79.351562 C 88.28125 81.28125 88.28125 84.414062 86.347656 86.347656 Z M 56 0 C 25.074219 0 0 25.074219 0 56 C 0 86.929688 25.074219 112.003906 56 112.003906 C 86.929688 112.003906 112.003906 86.929688 112.003906 56 C 112.003906 25.074219 86.929688 0 56 0 " fill-opacity="1" fill-rule="nonzero"/></g></g></g><g clip-path="url(#8209826c4f)"><g clip-path="url(#0d9e4c0419)"><g clip-path="url(#2fa636eafb)"><path fill="#5cae33" d="M 51.71875 33.273438 C 46.992188 33.273438 42.269531 35.074219 38.671875 38.671875 C 31.476562 45.867188 31.476562 57.574219 38.671875 64.769531 C 45.867188 71.964844 57.574219 71.964844 64.769531 64.769531 C 71.964844 57.574219 71.964844 45.867188 64.769531 38.671875 C 61.171875 35.074219 56.445312 33.273438 51.71875 33.273438 " fill-opacity="1" fill-rule="nonzero"/></g></g></g><g clip-path="url(#0cd2958234)"><g clip-path="url(#dcd2494019)"><g clip-path="url(#e3b0d0014b)"><path stroke-linecap="butt" transform="matrix(0.746681, 0, 0, 0.746681, 0.0000015, 0.000000995575)" fill="none" stroke-linejoin="miter" d="M -0.00000200889 17.002315 L -0.00000200889 132.999961 C -0.00000200889 142.390471 7.611804 150.002277 17.002314 150.002277 L 132.999961 150.002277 C 142.390471 150.002277 150.002277 142.390471 150.002277 132.999961 L 150.002277 17.002315 C 150.002277 7.611805 142.390471 -0.00000133333 132.999961 -0.00000133333 L 17.002314 -0.00000133333 C 7.611804 -0.00000133333 -0.00000200889 7.611805 -0.00000200889 17.002315 Z M -0.00000200889 17.002315 " stroke="#5cae33" stroke-width="14" stroke-opacity="1" stroke-miterlimit="4"/></g></g></g></svg>