<svg xmlns="http://www.w3.org/2000/svg" xmlns:xlink="http://www.w3.org/1999/xlink" width="150" zoomAndPan="magnify" viewBox="0 0 112.5 112.499997" height="150" preserveAspectRatio="xMidYMid meet" version="1.0"><defs><clipPath id="28dcecf6e2"><path d="M 0.746094 0.746094 L 111.253906 0.746094 L 111.253906 111.253906 L 0.746094 111.253906 Z M 0.746094 0.746094 " clip-rule="nonzero"/></clipPath><clipPath id="bdd9bc99ca"><path d="M 0 12.695312 L 0 99.308594 C 0 106.320312 5.683594 112.003906 12.695312 112.003906 L 99.308594 112.003906 C 106.320312 112.003906 112.003906 106.320312 112.003906 99.308594 L 112.003906 12.695312 C 112.003906 5.683594 106.320312 0 99.308594 0 L 12.695312 0 C 5.683594 0 0 5.683594 0 12.695312 Z M 0 12.695312 " clip-rule="nonzero"/></clipPath><clipPath id="254d9d4964"><path d="M 13.589844 0.894531 L 98.414062 0.894531 C 105.421875 0.894531 111.105469 6.578125 111.105469 13.589844 L 111.105469 98.414062 C 111.105469 105.421875 105.421875 111.105469 98.414062 111.105469 L 13.589844 111.105469 C 6.578125 111.105469 0.894531 105.421875 0.894531 98.414062 L 0.894531 13.589844 C 0.894531 6.578125 6.578125 0.894531 13.589844 0.894531 Z M 13.589844 0.894531 " clip-rule="nonzero"/></clipPath><clipPath id="fb234189bb"><path d="M 0 0 L 112.003906 0 L 112.003906 112.003906 L 0 112.003906 Z M 0 0 " clip-rule="nonzero"/></clipPath><clipPath id="ee0abd2bd7"><path d="M 0 12.695312 L 0 99.308594 C 0 106.320312 5.683594 112.003906 12.695312 112.003906 L 99.308594 112.003906 C 106.320312 112.003906 112.003906 106.320312 112.003906 99.308594 L 112.003906 12.695312 C 112.003906 5.683594 106.320312 0 99.308594 0 L 12.695312 0 C 5.683594 0 0 5.683594 0 12.695312 Z M 0 12.695312 " clip-rule="nonzero"/></clipPath><clipPath id="cbbd4e7999"><path d="M 0 12.695312 L 0 99.308594 C 0 106.320312 5.683594 112.003906 12.695312 112.003906 L 99.308594 112.003906 C 106.320312 112.003906 112.003906 106.320312 112.003906 99.308594 L 112.003906 12.695312 C 112.003906 5.683594 106.320312 0 99.308594 0 L 12.695312 0 C 5.683594 0 0 5.683594 0 12.695312 Z M 0 12.695312 " clip-rule="nonzero"/></clipPath><clipPath id="f641a70479"><path d="M 4.375 74.304688 L 37.976562 74.304688 L 37.976562 107.902344 L 4.375 107.902344 Z M 4.375 74.304688 " clip-rule="nonzero"/></clipPath><clipPath id="a43a664b54"><path d="M 9.601562 74.304688 L 32.75 74.304688 C 35.636719 74.304688 37.976562 76.644531 37.976562 79.53125 L 37.976562 102.675781 C 37.976562 105.5625 35.636719 107.902344 32.75 107.902344 L 9.601562 107.902344 C 6.714844 107.902344 4.375 105.5625 4.375 102.675781 L 4.375 79.53125 C 4.375 76.644531 6.714844 74.304688 9.601562 74.304688 Z M 9.601562 74.304688 " clip-rule="nonzero"/></clipPath><clipPath id="de5ca12565"><path d="M 4.375 3.5625 L 37.976562 3.5625 L 37.976562 37.160156 L 4.375 37.160156 Z M 4.375 3.5625 " clip-rule="nonzero"/></clipPath><clipPath id="e887d37f7b"><path d="M 9.601562 3.5625 L 32.75 3.5625 C 35.636719 3.5625 37.976562 5.902344 37.976562 8.789062 L 37.976562 31.933594 C 37.976562 34.820312 35.636719 37.160156 32.75 37.160156 L 9.601562 37.160156 C 6.714844 37.160156 4.375 34.820312 4.375 31.933594 L 4.375 8.789062 C 4.375 5.902344 6.714844 3.5625 9.601562 3.5625 Z M 9.601562 3.5625 " clip-rule="nonzero"/></clipPath><clipPath id="6866e5e407"><path d="M 73.199219 3.5625 L 106.796875 3.5625 L 106.796875 37.160156 L 73.199219 37.160156 Z M 73.199219 3.5625 " clip-rule="nonzero"/></clipPath><clipPath id="fdbe121a5e"><path d="M 78.425781 3.5625 L 101.570312 3.5625 C 104.457031 3.5625 106.796875 5.902344 106.796875 8.789062 L 106.796875 31.933594 C 106.796875 34.820312 104.457031 37.160156 101.570312 37.160156 L 78.425781 37.160156 C 75.539062 37.160156 73.199219 34.820312 73.199219 31.933594 L 73.199219 8.789062 C 73.199219 5.902344 75.539062 3.5625 78.425781 3.5625 Z M 78.425781 3.5625 " clip-rule="nonzero"/></clipPath><clipPath id="3037bbff3c"><path d="M 73.199219 74.304688 L 106.796875 74.304688 L 106.796875 107.902344 L 73.199219 107.902344 Z M 73.199219 74.304688 " clip-rule="nonzero"/></clipPath><clipPath id="11252bb0f5"><path d="M 78.425781 74.304688 L 101.570312 74.304688 C 104.457031 74.304688 106.796875 76.644531 106.796875 79.53125 L 106.796875 102.675781 C 106.796875 105.5625 104.457031 107.902344 101.570312 107.902344 L 78.425781 107.902344 C 75.539062 107.902344 73.199219 105.5625 73.199219 102.675781 L 73.199219 79.53125 C 73.199219 76.644531 75.539062 74.304688 78.425781 74.304688 Z M 78.425781 74.304688 " clip-rule="nonzero"/></clipPath></defs><g clip-path="url(#28dcecf6e2)"><g clip-path="url(#bdd9bc99ca)"><g clip-path="url(#254d9d4964)"><path fill="#d2584e" d="M 55.953125 -0.03125 C 25.03125 -0.03125 -0.03125 25.03125 -0.03125 55.953125 C -0.03125 86.871094 25.03125 111.9375 55.953125 111.9375 C 86.871094 111.9375 111.9375 86.871094 111.9375 55.953125 C 111.9375 25.03125 86.871094 -0.03125 55.953125 -0.03125 Z M 69.242188 85.804688 C 66.367188 86.941406 64.070312 87.804688 62.359375 88.398438 C 60.648438 88.992188 58.660156 89.289062 56.390625 89.289062 C 52.910156 89.289062 50.199219 88.4375 48.269531 86.742188 C 46.339844 85.042969 45.371094 82.886719 45.371094 80.273438 C 45.371094 79.257812 45.441406 78.21875 45.589844 77.15625 C 45.734375 76.09375 45.96875 74.898438 46.289062 73.5625 L 49.882812 60.839844 C 50.203125 59.621094 50.472656 58.46875 50.691406 57.378906 C 50.914062 56.292969 51.019531 55.292969 51.019531 54.394531 C 51.019531 52.773438 50.683594 51.636719 50.011719 50.996094 C 49.34375 50.359375 48.066406 50.035156 46.167969 50.035156 C 45.238281 50.035156 44.285156 50.183594 43.308594 50.472656 C 42.332031 50.761719 41.496094 51.039062 40.796875 51.300781 L 41.757812 47.378906 C 44.109375 46.417969 46.363281 45.597656 48.515625 44.917969 C 50.667969 44.234375 52.699219 43.890625 54.625 43.890625 C 58.082031 43.890625 60.75 44.726562 62.625 46.398438 C 64.5 48.070312 65.4375 50.238281 65.4375 52.910156 C 65.4375 53.464844 65.375 54.4375 65.242188 55.832031 C 65.113281 57.226562 64.871094 58.503906 64.523438 59.667969 L 60.941406 72.335938 C 60.648438 73.355469 60.386719 74.519531 60.15625 75.828125 C 59.917969 77.128906 59.804688 78.121094 59.804688 78.789062 C 59.804688 80.472656 60.183594 81.621094 60.933594 82.230469 C 61.691406 82.84375 62.996094 83.144531 64.847656 83.144531 C 65.71875 83.144531 66.710938 82.992188 67.808594 82.6875 C 68.910156 82.382812 69.707031 82.117188 70.203125 81.882812 Z M 68.605469 34.335938 C 66.9375 35.890625 64.929688 36.667969 62.578125 36.667969 C 60.21875 36.667969 58.207031 35.890625 56.519531 34.335938 C 54.835938 32.785156 53.992188 30.898438 53.992188 28.691406 C 53.992188 26.488281 54.835938 24.601562 56.519531 23.03125 C 58.203125 21.460938 60.21875 20.679688 62.578125 20.679688 C 64.929688 20.679688 66.9375 21.464844 68.605469 23.03125 C 70.28125 24.601562 71.109375 26.488281 71.109375 28.691406 C 71.109375 30.898438 70.28125 32.785156 68.605469 34.335938 Z M 68.605469 34.335938 " fill-opacity="1" fill-rule="nonzero"/></g></g></g><g clip-path="url(#fb234189bb)"><g clip-path="url(#ee0abd2bd7)"><g clip-path="url(#cbbd4e7999)"><path stroke-linecap="butt" transform="matrix(0.746681, 0, 0, 0.746681, 0.0000015, 0.000000995575)" fill="none" stroke-linejoin="miter" d="M -0.00000200889 17.002315 L -0.00000200889 132.999961 C -0.00000200889 142.390471 7.611804 150.002277 17.002314 150.002277 L 132.999961 150.002277 C 142.390471 150.002277 150.002277 142.390471 150.002277 132.999961 L 150.002277 17.002315 C 150.002277 7.611805 142.390471 -0.00000133333 132.999961 -0.00000133333 L 17.002314 -0.00000133333 C 7.611804 -0.00000133333 -0.00000200889 7.611805 -0.00000200889 17.002315 Z M -0.00000200889 17.002315 " stroke="#d2584e" stroke-width="14" stroke-opacity="1" stroke-miterlimit="4"/></g></g></g><g clip-path="url(#f641a70479)"><g clip-path="url(#a43a664b54)"><path fill="#d2584e" d="M 4.375 74.304688 L 37.976562 74.304688 L 37.976562 107.902344 L 4.375 107.902344 Z M 4.375 74.304688 " fill-opacity="1" fill-rule="nonzero"/></g></g><g clip-path="url(#de5ca12565)"><g clip-path="url(#e887d37f7b)"><path fill="#d2584e" d="M 4.375 3.5625 L 37.976562 3.5625 L 37.976562 37.160156 L 4.375 37.160156 Z M 4.375 3.5625 " fill-opacity="1" fill-rule="nonzero"/></g></g><g clip-path="url(#6866e5e407)"><g clip-path="url(#fdbe121a5e)"><path fill="#d2584e" d="M 73.199219 3.5625 L 106.796875 3.5625 L 106.796875 37.160156 L 73.199219 37.160156 Z M 73.199219 3.5625 " fill-opacity="1" fill-rule="nonzero"/></g></g><g clip-path="url(#3037bbff3c)"><g clip-path="url(#11252bb0f5)"><path fill="#d2584e" d="M 73.199219 74.304688 L 106.796875 74.304688 L 106.796875 107.902344 L 73.199219 107.902344 Z M 73.199219 74.304688 " fill-opacity="1" fill-rule="nonzero"/></g></g></svg>