<svg xmlns="http://www.w3.org/2000/svg" xmlns:xlink="http://www.w3.org/1999/xlink" width="150" zoomAndPan="magnify" viewBox="0 0 112.5 112.499997" height="150" preserveAspectRatio="xMidYMid meet" version="1.0"><defs><clipPath id="c595dd25a4"><path d="M 0 0 L 112.003906 0 L 112.003906 111.464844 L 0 111.464844 Z M 0 0 " clip-rule="nonzero"/></clipPath><clipPath id="6018776b5a"><path d="M 12.695312 0 L 99.308594 0 C 106.320312 0 112.003906 5.683594 112.003906 12.695312 L 112.003906 98.773438 C 112.003906 105.78125 106.320312 111.464844 99.308594 111.464844 L 12.695312 111.464844 C 5.683594 111.464844 0 105.78125 0 98.773438 L 0 12.695312 C 0 5.683594 5.683594 0 12.695312 0 Z M 12.695312 0 " clip-rule="nonzero"/></clipPath><clipPath id="26473650e4"><path d="M 0 0 L 111.699219 0 L 111.699219 111.699219 L 0 111.699219 Z M 0 0 " clip-rule="nonzero"/></clipPath><clipPath id="fd0f3a7f69"><path d="M 12.691406 0 L 99.292969 0 C 106.300781 0 111.984375 5.683594 111.984375 12.691406 L 111.984375 98.757812 C 111.984375 105.765625 106.300781 111.449219 99.292969 111.449219 L 12.691406 111.449219 C 5.683594 111.449219 0 105.765625 0 98.757812 L 0 12.691406 C 0 5.683594 5.683594 0 12.691406 0 Z M 12.691406 0 " clip-rule="nonzero"/></clipPath><clipPath id="3c3926a55d"><path d="M 27.46875 17.691406 L 84.457031 17.691406 L 84.457031 92.917969 L 27.46875 92.917969 Z M 27.46875 17.691406 " clip-rule="nonzero"/></clipPath></defs><g clip-path="url(#c595dd25a4)"><g clip-path="url(#6018776b5a)"><path fill="#5cae33" d="M 0 0 L 112.003906 0 L 112.003906 111.464844 L 0 111.464844 Z M 0 0 " fill-opacity="1" fill-rule="nonzero"/></g></g><g clip-path="url(#26473650e4)"><g clip-path="url(#fd0f3a7f69)"><path stroke-linecap="butt" transform="matrix(2.279558, 0, 0, 2.279558, 0.0000015, 0.00132074)" fill="none" stroke-linejoin="miter" d="M 5.567484 -0.000579384 L 43.557988 -0.000579384 C 46.632185 -0.000579384 49.125473 2.492708 49.125473 5.566906 L 49.125473 43.322646 C 49.125473 46.396843 46.632185 48.890131 43.557988 48.890131 L 5.567484 48.890131 C 2.493287 48.890131 -0.000000658022 46.396843 -0.000000658022 43.322646 L -0.000000658022 5.566906 C -0.000000658022 2.492708 2.493287 -0.000579384 5.567484 -0.000579384 Z M 5.567484 -0.000579384 " stroke="#5cae33" stroke-width="2.620442" stroke-opacity="1" stroke-miterlimit="4"/></g></g><g clip-path="url(#3c3926a55d)"><path fill="#ffffff" d="M 56.117188 93.769531 C 71.746094 93.769531 84.464844 81.054688 84.464844 65.425781 C 84.464844 50.417969 59.132812 20.070312 58.054688 18.785156 C 57.09375 17.640625 55.140625 17.640625 54.179688 18.785156 C 53.101562 20.070312 27.773438 50.417969 27.773438 65.425781 C 27.773438 81.054688 40.488281 93.769531 56.117188 93.769531 Z M 56.117188 24.398438 C 64.0625 34.261719 79.40625 55.382812 79.40625 65.425781 C 79.40625 78.265625 68.960938 88.710938 56.117188 88.710938 C 43.277344 88.710938 32.832031 78.265625 32.832031 65.425781 C 32.832031 55.390625 48.171875 34.265625 56.117188 24.398438 Z M 56.117188 24.398438 " fill-opacity="1" fill-rule="nonzero"/></g><path fill="#ffffff" d="M 42.460938 73.5625 C 45.863281 71.933594 42.453125 68.160156 42.949219 65.425781 C 42.949219 64.84375 43.167969 63.046875 45.179688 58.878906 C 46.605469 55.898438 42.074219 53.699219 40.625 56.675781 C 38.785156 60.484375 37.890625 63.347656 37.890625 65.425781 C 38.101562 68.269531 38.214844 74.683594 42.460938 73.5625 Z M 42.460938 73.5625 " fill-opacity="1" fill-rule="nonzero"/></svg>