<svg xmlns="http://www.w3.org/2000/svg" xmlns:xlink="http://www.w3.org/1999/xlink" width="500" zoomAndPan="magnify" viewBox="0 0 375 374.999991" height="500" preserveAspectRatio="xMidYMid meet" version="1.0"><path fill="#ffffff" d="M 187.179688 -0.320312 C 83.78125 -0.320312 -0.320312 83.78125 -0.320312 187.179688 C -0.320312 290.578125 83.78125 374.679688 187.179688 374.679688 C 290.578125 374.679688 374.679688 290.578125 374.679688 187.179688 C 374.679688 83.78125 290.578125 -0.320312 187.179688 -0.320312 Z M 187.179688 358.652344 C 92.628906 358.652344 15.707031 281.730469 15.707031 187.179688 C 15.707031 92.628906 92.628906 15.707031 187.179688 15.707031 C 281.730469 15.707031 358.652344 92.628906 358.652344 187.179688 C 358.652344 281.730469 281.730469 358.652344 187.179688 358.652344 Z M 187.179688 358.652344 " fill-opacity="1" fill-rule="nonzero"/><path fill="#ffffff" d="M 307.757812 130.0625 C 302.628906 124.9375 295.769531 122.050781 288.460938 122.050781 C 281.152344 122.050781 274.359375 124.871094 269.230469 130.0625 L 195.128906 204.230469 C 190.769531 208.589844 183.652344 208.589844 179.292969 204.230469 L 105.128906 130.0625 C 100 124.9375 93.140625 122.050781 85.832031 122.050781 C 78.527344 122.050781 71.730469 124.871094 66.601562 130.0625 C 55.960938 140.707031 55.960938 157.949219 66.601562 168.589844 L 167.949219 269.9375 C 173.078125 275.0625 179.9375 277.949219 187.179688 277.949219 C 194.421875 277.949219 201.28125 275.128906 206.410156 269.9375 L 307.757812 168.589844 C 318.398438 157.949219 318.398438 140.707031 307.757812 130.0625 Z M 307.757812 130.0625 " fill-opacity="1" fill-rule="nonzero"/></svg>