<svg xmlns="http://www.w3.org/2000/svg" xmlns:xlink="http://www.w3.org/1999/xlink" width="500" zoomAndPan="magnify" viewBox="0 0 375 562.499983" height="750" preserveAspectRatio="xMidYMid meet" version="1.0"><defs><clipPath id="fadae202b8"><path d="M 20 512.042969 L 350 512.042969 L 350 540 L 20 540 Z M 20 512.042969 " clip-rule="nonzero"/></clipPath></defs><path fill="#7e7e7e" d="M 48.371094 537.875 C 48.578125 545.089844 49.488281 555.035156 56.921875 558.445312 C 64.351562 555.035156 65.246094 545.089844 65.449219 537.875 Z M 305.054688 537.875 C 305.257812 545.089844 306.171875 555.035156 313.601562 558.445312 C 321.035156 555.035156 321.929688 545.089844 322.132812 537.875 Z M 305.054688 537.875 " fill-opacity="1" fill-rule="evenodd"/><g clip-path="url(#fadae202b8)"><path fill="#e19a61" d="M 20.632812 510.878906 L 349.878906 510.878906 L 349.878906 539.421875 L 20.632812 539.421875 Z M 20.632812 510.878906 " fill-opacity="1" fill-rule="evenodd"/><path fill="#b7601b" d="M 20.632812 530.453125 L 20.632812 531.199219 C 22.148438 531.296875 23.675781 531.464844 25.203125 531.671875 C 28.015625 532.050781 30.835938 532.574219 33.648438 533.078125 C 36.507812 533.589844 39.359375 534.066406 42.167969 534.40625 C 44.441406 534.640625 47.367188 534.351562 49.96875 534.539062 C 51.074219 534.621094 52.121094 534.78125 53.019531 535.144531 C 54.78125 535.855469 55.382812 537.476562 55.355469 539.273438 C 55.355469 539.320312 55.351562 539.371094 55.351562 539.421875 L 56.402344 539.421875 C 56.40625 539.382812 56.40625 539.347656 56.410156 539.3125 C 56.542969 537.011719 55.738281 534.960938 53.519531 533.96875 C 52.515625 533.519531 51.335938 533.277344 50.082031 533.160156 C 47.5 532.910156 44.585938 533.1875 42.332031 532.921875 C 39.539062 532.644531 36.707031 532.199219 33.859375 531.78125 C 31.015625 531.363281 28.15625 530.964844 25.3125 530.707031 C 23.742188 530.570312 22.183594 530.476562 20.632812 530.453125 Z M 20.632812 523.390625 L 20.632812 524.140625 C 21.648438 524.589844 22.699219 524.992188 23.769531 525.351562 C 26.832031 526.386719 30.058594 527.085938 33.085938 527.617188 C 34.894531 527.933594 36.738281 528.078125 38.585938 528.105469 C 40.421875 528.132812 42.261719 528.046875 44.078125 527.90625 C 46.03125 527.75 47.957031 527.496094 49.890625 527.410156 C 51.144531 527.359375 52.398438 527.375 53.667969 527.542969 C 58.277344 528.144531 62.65625 529.417969 67.183594 530.09375 C 69.144531 530.382812 71.136719 530.558594 73.179688 530.535156 C 74.457031 530.515625 77.820312 529.917969 80.332031 530.132812 C 81.367188 530.21875 82.261719 530.386719 82.640625 530.953125 C 82.882812 531.308594 82.800781 531.804688 82.648438 532.3125 C 82.367188 533.25 81.765625 534.210938 81.378906 534.714844 C 80.421875 535.964844 79.167969 536.949219 77.792969 537.796875 C 76.824219 538.394531 75.796875 538.921875 74.765625 539.421875 L 77.125 539.421875 C 77.542969 539.207031 77.957031 538.980469 78.363281 538.746094 C 79.878906 537.855469 81.257812 536.800781 82.328125 535.460938 C 82.789062 534.882812 83.507812 533.769531 83.855469 532.6875 C 84.144531 531.777344 84.144531 530.886719 83.722656 530.234375 C 83.179688 529.402344 81.964844 528.933594 80.457031 528.78125 C 77.902344 528.527344 74.46875 529.082031 73.167969 529.082031 C 71.203125 529.089844 69.292969 528.898438 67.402344 528.617188 C 62.863281 527.941406 58.464844 526.71875 53.84375 526.148438 C 52.492188 525.984375 51.15625 525.984375 49.820312 526.0625 C 47.875 526.179688 45.933594 526.46875 43.96875 526.660156 C 42.191406 526.835938 40.390625 526.953125 38.589844 526.964844 C 36.800781 526.976562 35.007812 526.882812 33.246094 526.617188 C 30.25 526.164062 27.054688 525.550781 24.007812 524.609375 C 22.855469 524.253906 21.722656 523.851562 20.632812 523.390625 Z M 20.632812 515.675781 L 20.632812 516.378906 C 25.105469 517.667969 29.707031 518.46875 34.363281 518.972656 C 43.292969 519.945312 52.421875 519.851562 61.234375 520.183594 C 65.070312 520.324219 68.9375 520.652344 72.8125 521.058594 C 78.625 521.667969 84.449219 522.457031 90.171875 523.121094 C 92.878906 523.425781 95.589844 523.804688 98.28125 524.289062 C 100.964844 524.769531 103.632812 525.355469 106.253906 526.089844 C 106.613281 526.1875 107.796875 526.445312 108.878906 526.835938 C 109.386719 527.019531 109.871094 527.226562 110.210938 527.46875 C 110.304688 527.535156 110.417969 527.660156 110.453125 527.699219 C 109.832031 530.261719 107.476562 531.957031 104.453125 533.289062 C 98.492188 535.914062 89.945312 537.066406 85.261719 539.421875 L 87.859375 539.421875 C 92.710938 537.703125 99.796875 536.65625 104.960938 534.460938 C 108.457031 532.96875 111.078125 530.929688 111.800781 527.972656 C 111.941406 527.402344 111.675781 526.820312 111.019531 526.34375 C 109.851562 525.492188 107.222656 524.886719 106.640625 524.71875 C 103.976562 523.957031 101.273438 523.335938 98.546875 522.835938 C 95.824219 522.332031 93.082031 521.949219 90.339844 521.632812 C 84.609375 520.996094 78.777344 520.222656 72.953125 519.65625 C 69.042969 519.277344 65.140625 518.996094 61.273438 518.894531 C 52.480469 518.6875 43.378906 518.898438 34.453125 518.066406 C 29.773438 517.628906 25.140625 516.90625 20.632812 515.675781 Z M 110.855469 539.421875 L 111.871094 539.421875 C 113.460938 537.847656 115.101562 536.304688 116.699219 534.679688 C 118.933594 532.410156 120.96875 530.070312 123.382812 528.207031 C 124.945312 527.003906 126.667969 526 128.71875 525.347656 C 130.65625 524.730469 132.65625 524.378906 134.679688 524.167969 C 137.746094 523.847656 140.867188 523.847656 143.90625 523.753906 C 150 523.558594 156.109375 523.539062 162.210938 523.382812 C 164.835938 523.316406 167.457031 523.222656 170.070312 523.078125 C 173.347656 522.898438 176.625 522.753906 179.898438 522.628906 C 193.027344 522.125 206.144531 521.953125 219.273438 521.308594 C 223.589844 521.085938 227.847656 520.242188 232.136719 519.75 C 233.941406 519.542969 235.75 519.398438 237.570312 519.390625 C 240.347656 519.382812 243.121094 519.480469 245.898438 519.628906 C 257.027344 520.238281 268.175781 521.808594 279.316406 521.988281 C 294.183594 522.210938 309.207031 521.960938 324.042969 523.203125 C 332.742188 523.933594 341.375 525.171875 349.875 527.324219 L 349.875 526.617188 C 341.40625 524.398438 332.800781 523.082031 324.125 522.28125 C 309.277344 520.914062 294.226562 521.050781 279.34375 520.710938 C 268.21875 520.472656 257.089844 518.820312 245.980469 518.171875 C 243.175781 518.007812 240.371094 517.910156 237.570312 517.910156 C 235.691406 517.914062 233.824219 518.054688 231.96875 518.269531 C 227.707031 518.753906 223.480469 519.601562 219.199219 519.820312 C 207.71875 520.429688 196.246094 520.664062 184.769531 521.097656 C 179.84375 521.285156 174.921875 521.511719 170 521.816406 C 167.394531 521.976562 164.785156 522.085938 162.175781 522.171875 C 156.074219 522.375 149.960938 522.445312 143.867188 522.6875 C 140.804688 522.8125 137.660156 522.839844 134.574219 523.1875 C 132.488281 523.425781 130.425781 523.808594 128.4375 524.460938 C 126.28125 525.164062 124.476562 526.230469 122.847656 527.511719 C 120.414062 529.421875 118.378906 531.808594 116.136719 534.125 C 114.382812 535.941406 112.582031 537.65625 110.855469 539.421875 Z M 145.789062 539.421875 L 147.222656 539.421875 C 148.285156 538.78125 149.375 538.191406 150.507812 537.675781 C 157.332031 534.566406 164.546875 533.136719 171.902344 532.484375 C 182.976562 531.5 194.375 532.285156 205.273438 531.871094 C 218.972656 531.320312 232.660156 531.925781 246.359375 531.835938 C 249.792969 531.816406 253.222656 531.742188 256.65625 531.605469 C 268.453125 531.109375 280.269531 529.707031 292.09375 529.097656 C 297.148438 528.835938 302.203125 528.714844 307.257812 528.882812 C 318.949219 529.261719 330.191406 531.777344 341.625 533.167969 C 344.363281 533.5 347.109375 533.765625 349.875 533.925781 L 349.875 533.238281 C 348.792969 533.164062 347.710938 533.070312 346.636719 532.964844 C 333.46875 531.671875 320.691406 528.320312 307.300781 527.746094 C 302.214844 527.535156 297.125 527.605469 292.035156 527.832031 C 280.210938 528.355469 268.390625 529.707031 256.601562 530.128906 C 242.898438 530.675781 229.207031 530.109375 215.515625 530.261719 C 212.082031 530.296875 208.648438 530.386719 205.21875 530.542969 C 194.304688 531.050781 182.882812 530.355469 171.804688 531.441406 C 164.351562 532.171875 157.054688 533.710938 150.167969 536.933594 C 148.640625 537.648438 147.1875 538.492188 145.789062 539.421875 Z M 204.636719 539.421875 L 208.726562 539.421875 C 212.730469 538.589844 216.890625 538.128906 220.980469 537.703125 C 226.757812 537.082031 232.441406 536.820312 238.101562 536.699219 C 246.660156 536.519531 255.171875 536.6875 263.898438 536.675781 C 275.113281 536.585938 286.773438 536.164062 297.546875 538.613281 C 298.605469 538.851562 299.660156 539.121094 300.699219 539.421875 L 303.804688 539.421875 C 301.839844 538.695312 299.828125 538.09375 297.78125 537.597656 C 286.960938 534.972656 275.199219 535.265625 263.894531 535.21875 C 255.160156 535.242188 246.632812 535.042969 238.066406 535.277344 C 232.367188 535.433594 226.652344 535.792969 220.84375 536.480469 C 215.382812 537.136719 209.792969 537.855469 204.636719 539.421875 Z M 200.488281 510.878906 L 198.546875 510.878906 C 197.933594 511.136719 197.320312 511.386719 196.699219 511.625 C 195 512.273438 193.269531 512.816406 191.46875 513.171875 C 187.792969 513.894531 183.976562 514.253906 180.101562 514.425781 C 171.140625 514.824219 161.859375 514.199219 153.222656 514.566406 C 147.464844 514.820312 141.671875 515.847656 135.886719 516.257812 C 133.433594 516.429688 130.984375 516.492188 128.535156 516.328125 C 126.292969 516.179688 124.058594 515.9375 121.828125 515.652344 C 112.839844 514.503906 103.941406 512.53125 94.910156 511.847656 C 92.171875 511.648438 89.433594 511.675781 86.695312 511.820312 C 80.394531 512.148438 74.105469 513.082031 67.78125 513.066406 C 63.554688 513.058594 59.261719 512.691406 54.976562 512.117188 C 52.390625 511.769531 49.804688 511.34375 47.238281 510.878906 L 43.371094 510.878906 C 47.15625 511.683594 51 512.425781 54.851562 512.992188 C 59.171875 513.632812 63.503906 514.054688 67.773438 514.117188 C 74.113281 514.207031 80.433594 513.355469 86.757812 513.089844 C 89.441406 512.976562 92.121094 512.96875 94.808594 513.1875 C 103.8125 513.917969 112.671875 515.964844 121.636719 517.136719 C 123.898438 517.429688 126.164062 517.664062 128.4375 517.8125 C 130.953125 517.976562 133.472656 517.910156 135.992188 517.722656 C 141.765625 517.285156 147.539062 516.203125 153.289062 515.90625 C 161.914062 515.449219 171.199219 515.980469 180.15625 515.476562 C 184.078125 515.257812 187.9375 514.839844 191.648438 514.058594 C 193.492188 513.667969 195.265625 513.089844 196.996094 512.402344 C 198.175781 511.933594 199.335938 511.414062 200.488281 510.878906 Z M 267.933594 510.878906 L 264.890625 510.878906 C 273.480469 513.644531 282.25 515.414062 291.140625 516.386719 C 295.957031 516.914062 300.8125 517.210938 305.6875 517.296875 C 312.925781 517.421875 320.207031 517.074219 327.503906 516.492188 C 330.449219 516.246094 333.429688 516.441406 336.390625 516.359375 C 337.683594 516.324219 338.976562 516.234375 340.257812 516.035156 C 341.539062 515.835938 342.804688 515.546875 344.066406 515.207031 C 346.011719 514.683594 347.9375 514.046875 349.875 513.484375 L 349.875 512.738281 C 347.863281 513.261719 345.867188 513.871094 343.851562 514.363281 C 342.617188 514.664062 341.375 514.921875 340.125 515.085938 C 338.878906 515.246094 337.625 515.300781 336.371094 515.308594 C 333.386719 515.328125 330.386719 515.074219 327.414062 515.261719 C 320.152344 515.753906 312.910156 515.941406 305.714844 515.796875 C 300.878906 515.703125 296.066406 515.457031 291.28125 515.003906 C 283.410156 514.257812 275.613281 512.953125 267.933594 510.878906 Z M 267.933594 510.878906 " fill-opacity="1" fill-rule="evenodd"/></g></svg>