<svg xmlns="http://www.w3.org/2000/svg" xmlns:xlink="http://www.w3.org/1999/xlink" width="500" zoomAndPan="magnify" viewBox="0 0 375 562.499983" height="750" preserveAspectRatio="xMidYMid meet" version="1.0"><defs><clipPath id="6c2cb14be8"><path d="M 20 512.042969 L 350 512.042969 L 350 540 L 20 540 Z M 20 512.042969 " clip-rule="nonzero"/></clipPath><clipPath id="ad8040ec39"><path d="M 0.167969 123 L 374.832031 123 L 374.832031 394 L 0.167969 394 Z M 0.167969 123 " clip-rule="nonzero"/></clipPath></defs><path fill="#7e7e7e" d="M 48.371094 537.875 C 48.578125 545.089844 49.488281 555.035156 56.921875 558.445312 C 64.351562 555.035156 65.246094 545.089844 65.449219 537.875 Z M 305.054688 537.875 C 305.257812 545.089844 306.171875 555.035156 313.601562 558.445312 C 321.035156 555.035156 321.929688 545.089844 322.132812 537.875 Z M 305.054688 537.875 " fill-opacity="1" fill-rule="evenodd"/><g clip-path="url(#6c2cb14be8)"><path fill="#e19a61" d="M 20.632812 510.878906 L 349.878906 510.878906 L 349.878906 539.421875 L 20.632812 539.421875 Z M 20.632812 510.878906 " fill-opacity="1" fill-rule="evenodd"/><path fill="#b7601b" d="M 20.632812 530.453125 L 20.632812 531.199219 C 22.148438 531.296875 23.675781 531.464844 25.203125 531.671875 C 28.015625 532.050781 30.835938 532.574219 33.648438 533.078125 C 36.507812 533.589844 39.359375 534.066406 42.167969 534.40625 C 44.441406 534.640625 47.367188 534.351562 49.96875 534.539062 C 51.074219 534.621094 52.121094 534.78125 53.019531 535.144531 C 54.78125 535.855469 55.382812 537.476562 55.355469 539.273438 C 55.355469 539.320312 55.351562 539.371094 55.351562 539.421875 L 56.402344 539.421875 C 56.40625 539.382812 56.40625 539.347656 56.410156 539.3125 C 56.542969 537.011719 55.738281 534.960938 53.519531 533.96875 C 52.515625 533.519531 51.335938 533.277344 50.082031 533.160156 C 47.5 532.910156 44.585938 533.1875 42.332031 532.921875 C 39.539062 532.644531 36.707031 532.199219 33.859375 531.78125 C 31.015625 531.363281 28.15625 530.964844 25.3125 530.707031 C 23.742188 530.570312 22.183594 530.476562 20.632812 530.453125 Z M 20.632812 523.390625 L 20.632812 524.140625 C 21.648438 524.589844 22.699219 524.992188 23.769531 525.351562 C 26.832031 526.386719 30.058594 527.085938 33.085938 527.617188 C 34.894531 527.933594 36.738281 528.078125 38.585938 528.105469 C 40.421875 528.132812 42.261719 528.046875 44.078125 527.90625 C 46.03125 527.75 47.957031 527.496094 49.890625 527.410156 C 51.144531 527.359375 52.398438 527.375 53.667969 527.542969 C 58.277344 528.144531 62.65625 529.417969 67.183594 530.09375 C 69.144531 530.382812 71.136719 530.558594 73.179688 530.535156 C 74.457031 530.515625 77.820312 529.917969 80.332031 530.132812 C 81.367188 530.21875 82.261719 530.386719 82.640625 530.953125 C 82.882812 531.308594 82.800781 531.804688 82.648438 532.3125 C 82.367188 533.25 81.765625 534.210938 81.378906 534.714844 C 80.421875 535.964844 79.167969 536.949219 77.792969 537.796875 C 76.824219 538.394531 75.796875 538.921875 74.765625 539.421875 L 77.125 539.421875 C 77.542969 539.207031 77.957031 538.980469 78.363281 538.746094 C 79.878906 537.855469 81.257812 536.800781 82.328125 535.460938 C 82.789062 534.882812 83.507812 533.769531 83.855469 532.6875 C 84.144531 531.777344 84.144531 530.886719 83.722656 530.234375 C 83.179688 529.402344 81.964844 528.933594 80.457031 528.78125 C 77.902344 528.527344 74.46875 529.082031 73.167969 529.082031 C 71.203125 529.089844 69.292969 528.898438 67.402344 528.617188 C 62.863281 527.941406 58.464844 526.71875 53.84375 526.148438 C 52.492188 525.984375 51.15625 525.984375 49.820312 526.0625 C 47.875 526.179688 45.933594 526.46875 43.96875 526.660156 C 42.191406 526.835938 40.390625 526.953125 38.589844 526.964844 C 36.800781 526.976562 35.007812 526.882812 33.246094 526.617188 C 30.25 526.164062 27.054688 525.550781 24.007812 524.609375 C 22.855469 524.253906 21.722656 523.851562 20.632812 523.390625 Z M 20.632812 515.675781 L 20.632812 516.378906 C 25.105469 517.667969 29.707031 518.46875 34.363281 518.972656 C 43.292969 519.945312 52.421875 519.851562 61.234375 520.183594 C 65.070312 520.324219 68.9375 520.652344 72.8125 521.058594 C 78.625 521.667969 84.449219 522.457031 90.171875 523.121094 C 92.878906 523.425781 95.589844 523.804688 98.28125 524.289062 C 100.964844 524.769531 103.632812 525.355469 106.253906 526.089844 C 106.613281 526.1875 107.796875 526.445312 108.878906 526.835938 C 109.386719 527.019531 109.871094 527.226562 110.210938 527.46875 C 110.304688 527.535156 110.417969 527.660156 110.453125 527.699219 C 109.832031 530.261719 107.476562 531.957031 104.453125 533.289062 C 98.492188 535.914062 89.945312 537.066406 85.261719 539.421875 L 87.859375 539.421875 C 92.710938 537.703125 99.796875 536.65625 104.960938 534.460938 C 108.457031 532.96875 111.078125 530.929688 111.800781 527.972656 C 111.941406 527.402344 111.675781 526.820312 111.019531 526.34375 C 109.851562 525.492188 107.222656 524.886719 106.640625 524.71875 C 103.976562 523.957031 101.273438 523.335938 98.546875 522.835938 C 95.824219 522.332031 93.082031 521.949219 90.339844 521.632812 C 84.609375 520.996094 78.777344 520.222656 72.953125 519.65625 C 69.042969 519.277344 65.140625 518.996094 61.273438 518.894531 C 52.480469 518.6875 43.378906 518.898438 34.453125 518.066406 C 29.773438 517.628906 25.140625 516.90625 20.632812 515.675781 Z M 110.855469 539.421875 L 111.871094 539.421875 C 113.460938 537.847656 115.101562 536.304688 116.699219 534.679688 C 118.933594 532.410156 120.96875 530.070312 123.382812 528.207031 C 124.945312 527.003906 126.667969 526 128.71875 525.347656 C 130.65625 524.730469 132.65625 524.378906 134.679688 524.167969 C 137.746094 523.847656 140.867188 523.847656 143.90625 523.753906 C 150 523.558594 156.109375 523.539062 162.210938 523.382812 C 164.835938 523.316406 167.457031 523.222656 170.070312 523.078125 C 173.347656 522.898438 176.625 522.753906 179.898438 522.628906 C 193.027344 522.125 206.144531 521.953125 219.273438 521.308594 C 223.589844 521.085938 227.847656 520.242188 232.136719 519.75 C 233.941406 519.542969 235.75 519.398438 237.570312 519.390625 C 240.347656 519.382812 243.121094 519.480469 245.898438 519.628906 C 257.027344 520.238281 268.175781 521.808594 279.316406 521.988281 C 294.183594 522.210938 309.207031 521.960938 324.042969 523.203125 C 332.742188 523.933594 341.375 525.171875 349.875 527.324219 L 349.875 526.617188 C 341.40625 524.398438 332.800781 523.082031 324.125 522.28125 C 309.277344 520.914062 294.226562 521.050781 279.34375 520.710938 C 268.21875 520.472656 257.089844 518.820312 245.980469 518.171875 C 243.175781 518.007812 240.371094 517.910156 237.570312 517.910156 C 235.691406 517.914062 233.824219 518.054688 231.96875 518.269531 C 227.707031 518.753906 223.480469 519.601562 219.199219 519.820312 C 207.71875 520.429688 196.246094 520.664062 184.769531 521.097656 C 179.84375 521.285156 174.921875 521.511719 170 521.816406 C 167.394531 521.976562 164.785156 522.085938 162.175781 522.171875 C 156.074219 522.375 149.960938 522.445312 143.867188 522.6875 C 140.804688 522.8125 137.660156 522.839844 134.574219 523.1875 C 132.488281 523.425781 130.425781 523.808594 128.4375 524.460938 C 126.28125 525.164062 124.476562 526.230469 122.847656 527.511719 C 120.414062 529.421875 118.378906 531.808594 116.136719 534.125 C 114.382812 535.941406 112.582031 537.65625 110.855469 539.421875 Z M 145.789062 539.421875 L 147.222656 539.421875 C 148.285156 538.78125 149.375 538.191406 150.507812 537.675781 C 157.332031 534.566406 164.546875 533.136719 171.902344 532.484375 C 182.976562 531.5 194.375 532.285156 205.273438 531.871094 C 218.972656 531.320312 232.660156 531.925781 246.359375 531.835938 C 249.792969 531.816406 253.222656 531.742188 256.65625 531.605469 C 268.453125 531.109375 280.269531 529.707031 292.09375 529.097656 C 297.148438 528.835938 302.203125 528.714844 307.257812 528.882812 C 318.949219 529.261719 330.191406 531.777344 341.625 533.167969 C 344.363281 533.5 347.109375 533.765625 349.875 533.925781 L 349.875 533.238281 C 348.792969 533.164062 347.710938 533.070312 346.636719 532.964844 C 333.46875 531.671875 320.691406 528.320312 307.300781 527.746094 C 302.214844 527.535156 297.125 527.605469 292.035156 527.832031 C 280.210938 528.355469 268.390625 529.707031 256.601562 530.128906 C 242.898438 530.675781 229.207031 530.109375 215.515625 530.261719 C 212.082031 530.296875 208.648438 530.386719 205.21875 530.542969 C 194.304688 531.050781 182.882812 530.355469 171.804688 531.441406 C 164.351562 532.171875 157.054688 533.710938 150.167969 536.933594 C 148.640625 537.648438 147.1875 538.492188 145.789062 539.421875 Z M 204.636719 539.421875 L 208.726562 539.421875 C 212.730469 538.589844 216.890625 538.128906 220.980469 537.703125 C 226.757812 537.082031 232.441406 536.820312 238.101562 536.699219 C 246.660156 536.519531 255.171875 536.6875 263.898438 536.675781 C 275.113281 536.585938 286.773438 536.164062 297.546875 538.613281 C 298.605469 538.851562 299.660156 539.121094 300.699219 539.421875 L 303.804688 539.421875 C 301.839844 538.695312 299.828125 538.09375 297.78125 537.597656 C 286.960938 534.972656 275.199219 535.265625 263.894531 535.21875 C 255.160156 535.242188 246.632812 535.042969 238.066406 535.277344 C 232.367188 535.433594 226.652344 535.792969 220.84375 536.480469 C 215.382812 537.136719 209.792969 537.855469 204.636719 539.421875 Z M 200.488281 510.878906 L 198.546875 510.878906 C 197.933594 511.136719 197.320312 511.386719 196.699219 511.625 C 195 512.273438 193.269531 512.816406 191.46875 513.171875 C 187.792969 513.894531 183.976562 514.253906 180.101562 514.425781 C 171.140625 514.824219 161.859375 514.199219 153.222656 514.566406 C 147.464844 514.820312 141.671875 515.847656 135.886719 516.257812 C 133.433594 516.429688 130.984375 516.492188 128.535156 516.328125 C 126.292969 516.179688 124.058594 515.9375 121.828125 515.652344 C 112.839844 514.503906 103.941406 512.53125 94.910156 511.847656 C 92.171875 511.648438 89.433594 511.675781 86.695312 511.820312 C 80.394531 512.148438 74.105469 513.082031 67.78125 513.066406 C 63.554688 513.058594 59.261719 512.691406 54.976562 512.117188 C 52.390625 511.769531 49.804688 511.34375 47.238281 510.878906 L 43.371094 510.878906 C 47.15625 511.683594 51 512.425781 54.851562 512.992188 C 59.171875 513.632812 63.503906 514.054688 67.773438 514.117188 C 74.113281 514.207031 80.433594 513.355469 86.757812 513.089844 C 89.441406 512.976562 92.121094 512.96875 94.808594 513.1875 C 103.8125 513.917969 112.671875 515.964844 121.636719 517.136719 C 123.898438 517.429688 126.164062 517.664062 128.4375 517.8125 C 130.953125 517.976562 133.472656 517.910156 135.992188 517.722656 C 141.765625 517.285156 147.539062 516.203125 153.289062 515.90625 C 161.914062 515.449219 171.199219 515.980469 180.15625 515.476562 C 184.078125 515.257812 187.9375 514.839844 191.648438 514.058594 C 193.492188 513.667969 195.265625 513.089844 196.996094 512.402344 C 198.175781 511.933594 199.335938 511.414062 200.488281 510.878906 Z M 267.933594 510.878906 L 264.890625 510.878906 C 273.480469 513.644531 282.25 515.414062 291.140625 516.386719 C 295.957031 516.914062 300.8125 517.210938 305.6875 517.296875 C 312.925781 517.421875 320.207031 517.074219 327.503906 516.492188 C 330.449219 516.246094 333.429688 516.441406 336.390625 516.359375 C 337.683594 516.324219 338.976562 516.234375 340.257812 516.035156 C 341.539062 515.835938 342.804688 515.546875 344.066406 515.207031 C 346.011719 514.683594 347.9375 514.046875 349.875 513.484375 L 349.875 512.738281 C 347.863281 513.261719 345.867188 513.871094 343.851562 514.363281 C 342.617188 514.664062 341.375 514.921875 340.125 515.085938 C 338.878906 515.246094 337.625 515.300781 336.371094 515.308594 C 333.386719 515.328125 330.386719 515.074219 327.414062 515.261719 C 320.152344 515.753906 312.910156 515.941406 305.714844 515.796875 C 300.878906 515.703125 296.066406 515.457031 291.28125 515.003906 C 283.410156 514.257812 275.613281 512.953125 267.933594 510.878906 Z M 267.933594 510.878906 " fill-opacity="1" fill-rule="evenodd"/></g><path fill="#f0ddce" d="M 145.984375 491.167969 C 145.984375 490.679688 145.863281 490.191406 145.863281 489.703125 C 145.984375 488.484375 145.496094 487.628906 144.523438 487.019531 C 143.667969 486.53125 143.058594 485.800781 142.328125 485.066406 C 140.378906 483.359375 139.035156 481.285156 138.183594 478.847656 C 137.574219 477.261719 136.597656 475.675781 135.988281 474.089844 C 135.011719 471.769531 134.160156 469.332031 133.550781 466.890625 C 132.941406 464.574219 132.453125 462.253906 132.453125 459.816406 C 132.453125 459.449219 132.574219 459.082031 132.453125 458.71875 C 131.84375 456.886719 132.085938 455.058594 132.085938 453.226562 C 132.085938 452.128906 132.207031 451.03125 131.71875 449.933594 C 131.597656 449.445312 131.597656 448.957031 131.597656 448.472656 C 131.597656 447.25 131.597656 445.910156 131.234375 444.6875 C 131.109375 444.203125 131.109375 443.714844 131.109375 443.226562 C 131.109375 432.367188 131.109375 421.511719 131.109375 410.53125 C 131.109375 409.800781 131.109375 409.191406 131.355469 408.457031 C 131.476562 407.96875 131.476562 407.359375 131.476562 406.75 C 131.476562 405.285156 131.476562 403.824219 131.476562 402.359375 C 131.476562 401.140625 131.355469 400.042969 131.84375 398.820312 C 131.964844 398.332031 131.964844 397.722656 131.964844 397.113281 C 131.964844 396.746094 131.964844 396.261719 131.964844 395.894531 C 132.085938 393.699219 132.453125 393.453125 134.648438 393.453125 C 149.398438 393.453125 164.273438 393.453125 179.027344 393.453125 C 180.246094 393.453125 181.34375 393.574219 182.5625 393.210938 C 183.050781 393.089844 183.660156 393.089844 184.269531 393.089844 C 204.019531 393.089844 223.773438 393.089844 243.402344 393.089844 C 243.765625 393.089844 244.132812 393.089844 244.5 393.089844 C 245.472656 393.089844 245.71875 393.332031 245.71875 394.429688 C 245.71875 395.527344 245.71875 396.625 245.71875 397.84375 C 245.71875 400.773438 245.71875 403.699219 245.71875 406.75 C 245.71875 408.214844 245.597656 409.679688 246.082031 411.140625 C 246.207031 411.628906 246.207031 412.238281 246.207031 412.851562 C 246.207031 415.535156 246.207031 418.21875 246.207031 420.902344 C 246.207031 422.242188 246.207031 423.707031 246.570312 425.050781 C 246.816406 426.023438 246.816406 427 246.570312 427.976562 C 246.328125 428.832031 246.328125 429.804688 246.328125 430.660156 C 246.328125 433.953125 246.328125 437.246094 246.328125 440.542969 C 246.328125 442.128906 246.328125 443.714844 245.960938 445.300781 C 245.71875 446.761719 245.839844 448.226562 245.839844 449.691406 C 245.839844 451.640625 245.472656 453.472656 245.230469 455.300781 C 244.984375 457.621094 244.5 459.816406 244.132812 462.132812 C 243.765625 463.839844 243.523438 465.550781 242.914062 467.257812 C 241.328125 471.160156 239.621094 475.1875 237.425781 478.847656 C 236.453125 480.433594 235.234375 481.773438 234.136719 483.238281 C 233.648438 483.847656 233.160156 484.578125 232.550781 485.1875 C 231.695312 486.042969 231.574219 486.898438 231.574219 487.996094 C 231.574219 489.09375 231.574219 490.070312 231.574219 491.167969 C 230.113281 490.558594 231.085938 489.214844 230.355469 487.996094 C 228.160156 489.824219 225.964844 491.53125 223.527344 492.996094 C 221.457031 494.214844 219.382812 495.558594 216.820312 495.679688 C 215.359375 495.4375 213.894531 495.925781 212.433594 496.289062 C 209.871094 496.777344 207.3125 497.023438 204.875 497.511719 C 202.558594 498 200.242188 497.511719 198.046875 498.242188 C 197.4375 498.484375 196.703125 498.242188 195.972656 498.363281 C 194.386719 498.363281 192.925781 498.242188 191.339844 498.730469 C 190.851562 498.851562 190.242188 498.730469 189.632812 498.851562 C 188.292969 498.851562 186.828125 498.972656 185.488281 499.097656 C 183.902344 499.339844 182.195312 499.339844 180.488281 498.972656 C 179.027344 498.609375 177.5625 498.730469 176.101562 498.363281 C 174.757812 498 173.417969 497.875 171.953125 497.632812 C 170.734375 497.386719 169.515625 497.144531 168.296875 497.144531 C 165.738281 497.023438 163.175781 496.289062 160.738281 495.925781 C 159.761719 496.535156 159.03125 495.800781 158.175781 495.558594 C 154.277344 494.09375 150.863281 492.019531 147.328125 489.824219 C 146.472656 489.945312 146.960938 491.042969 145.984375 491.167969 Z M 145.984375 491.167969 " fill-opacity="1" fill-rule="nonzero"/><path fill="#c57d01" d="M 216.699219 495.679688 C 217.066406 495.191406 217.675781 495.070312 218.164062 494.949219 C 220.359375 494.214844 222.308594 493.117188 224.257812 491.777344 C 226.210938 490.433594 228.160156 489.09375 229.988281 487.507812 C 230.234375 487.261719 230.476562 486.898438 230.964844 487.019531 C 231.332031 488.359375 230.84375 489.703125 231.453125 491.042969 C 231.574219 493.117188 231.574219 495.070312 231.695312 497.144531 C 231.941406 501.292969 232.183594 505.5625 232.429688 509.707031 C 232.429688 509.953125 232.429688 510.074219 232.429688 510.320312 C 232.429688 510.808594 232.304688 511.171875 231.695312 511.171875 C 230.355469 511.292969 229.015625 511.417969 227.671875 511.417969 C 226.574219 511.539062 225.480469 511.539062 224.257812 511.539062 C 222.796875 511.539062 222.796875 511.539062 222.308594 510.320312 C 220.601562 505.925781 219.015625 501.535156 217.308594 497.144531 C 217.308594 497.023438 217.1875 496.898438 217.066406 496.777344 C 216.820312 496.535156 216.820312 496.167969 216.699219 495.800781 C 216.824219 495.925781 216.824219 495.800781 216.699219 495.679688 Z M 145.984375 491.777344 C 145.742188 496.414062 145.496094 501.046875 145.375 505.683594 C 145.253906 507.269531 145.132812 508.855469 145.132812 510.5625 C 145.132812 511.050781 145.253906 511.292969 145.863281 511.417969 C 146.960938 511.539062 148.058594 511.660156 149.277344 511.660156 C 150.617188 511.78125 152.082031 511.78125 153.421875 511.90625 C 154.640625 511.90625 154.765625 511.90625 155.128906 510.808594 C 155.25 510.441406 155.375 509.953125 155.496094 509.585938 C 157.082031 505.4375 158.664062 501.167969 160.371094 497.023438 C 160.617188 496.777344 160.617188 496.414062 160.738281 496.046875 C 160.738281 495.925781 160.738281 495.800781 160.738281 495.800781 C 158.300781 494.949219 155.859375 494.09375 153.542969 492.753906 C 151.226562 491.410156 149.035156 490.070312 146.71875 488.605469 C 146.230469 489.460938 146.59375 490.433594 146.109375 491.167969 C 145.984375 491.289062 145.984375 491.53125 145.984375 491.777344 Z M 145.984375 491.777344 " fill-opacity="1" fill-rule="nonzero"/><path fill="#66b15c" d="M 362.519531 252.070312 C 362.519531 252.070312 362.519531 251.949219 362.519531 252.070312 C 362.519531 251.949219 362.519531 251.949219 362.519531 252.070312 Z M 368.128906 280.492188 C 367.761719 278.664062 366.664062 277.199219 365.324219 275.980469 C 363.371094 274.273438 361.789062 272.441406 360.445312 270.246094 C 359.347656 268.660156 358.007812 267.316406 356.421875 266.34375 C 354.839844 265.367188 353.253906 264.390625 351.667969 263.535156 C 350.570312 262.925781 349.472656 262.195312 348.621094 261.339844 C 345.9375 258.902344 342.769531 257.316406 339.355469 256.21875 C 335.574219 254.996094 331.796875 253.898438 328.015625 253.167969 C 326.550781 252.800781 324.96875 252.558594 323.382812 252.679688 C 320.210938 253.046875 316.921875 252.921875 313.75 253.289062 C 307.042969 253.898438 300.339844 254.996094 293.878906 256.949219 C 293.511719 257.070312 293.269531 257.191406 292.902344 256.949219 C 293.144531 256.707031 293.269531 256.582031 293.511719 256.460938 C 295.097656 255.363281 296.679688 254.144531 298.386719 253.046875 C 299.851562 252.070312 301.3125 251.09375 302.898438 250.363281 C 307.777344 248.289062 312.773438 246.335938 317.894531 244.75 C 320.820312 243.894531 323.75 242.796875 326.675781 241.699219 C 330.453125 240.238281 334.234375 238.773438 338.257812 237.796875 C 342.644531 236.820312 347.15625 235.96875 351.425781 234.015625 C 352.15625 233.648438 352.523438 233.769531 353.132812 234.382812 C 353.984375 235.355469 354.59375 236.457031 355.203125 237.554688 C 357.398438 241.824219 359.59375 246.214844 361.910156 250.484375 C 362.152344 250.972656 362.398438 251.582031 362.886719 251.949219 C 362.886719 251.703125 362.886719 251.460938 362.761719 251.214844 C 361.179688 246.457031 359.59375 241.824219 358.007812 237.066406 C 357.765625 236.210938 357.277344 235.355469 356.910156 234.625 C 356.421875 233.527344 355.691406 232.796875 354.59375 232.308594 C 352.277344 231.332031 349.960938 230.234375 347.644531 229.257812 C 346.792969 228.890625 346.058594 228.769531 345.207031 228.769531 C 342.769531 228.769531 340.453125 229.136719 338.136719 229.257812 C 335.574219 229.378906 333.136719 229.867188 330.699219 230.601562 C 327.039062 231.699219 323.75 233.285156 320.578125 235.234375 C 313.75 239.261719 306.921875 243.285156 300.09375 247.3125 C 294.609375 250.484375 289.246094 254.019531 284.246094 257.925781 C 283.636719 258.414062 282.902344 258.902344 282.171875 259.390625 C 279.246094 261.097656 276.320312 263.046875 273.515625 265 C 273.027344 265.246094 272.664062 265.730469 272.054688 265.730469 C 272.054688 265.609375 271.929688 265.609375 271.929688 265.488281 C 272.296875 264.632812 272.664062 263.660156 273.152344 262.804688 C 273.761719 261.339844 274.613281 260 275.710938 259.023438 C 277.175781 257.558594 278.394531 255.851562 279.367188 253.898438 C 280.710938 251.460938 282.292969 249.140625 284.125 246.945312 C 286.804688 243.894531 289.367188 240.726562 292.046875 237.675781 C 293.511719 235.96875 294.730469 234.136719 295.949219 232.183594 C 297.046875 230.476562 298.386719 228.769531 299.609375 227.0625 C 300.09375 226.453125 300.460938 225.71875 301.4375 225.71875 C 302.410156 224.867188 303.507812 224.132812 303.996094 222.792969 C 305.460938 221.207031 307.410156 220.230469 308.875 218.890625 C 308.996094 218.765625 309.238281 218.644531 309.484375 218.644531 C 309.972656 218.402344 310.457031 218.402344 310.824219 218.890625 C 311.554688 219.863281 312.53125 220.597656 313.507812 221.207031 C 316.066406 222.914062 318.628906 224.621094 321.066406 226.574219 C 321.308594 226.816406 321.554688 227.0625 321.917969 226.941406 C 322.042969 226.453125 321.554688 226.207031 321.308594 226.085938 C 319.847656 225.109375 318.75 223.769531 317.53125 222.425781 C 315.703125 220.476562 313.871094 218.523438 312.042969 216.570312 C 311.554688 216.082031 311.066406 215.839844 310.457031 215.71875 C 307.898438 215.472656 305.339844 215.230469 302.65625 215.351562 C 301.558594 215.351562 300.582031 215.351562 299.484375 215.230469 C 298.753906 215.472656 298.265625 216.203125 297.777344 216.691406 C 296.679688 217.789062 295.707031 219.011719 294.488281 219.863281 C 293.511719 219.988281 293.023438 220.839844 292.414062 221.574219 C 289.367188 225.109375 286.316406 228.890625 283.636719 232.796875 C 283.390625 233.160156 283.027344 233.527344 282.660156 233.894531 C 279.492188 238.285156 276.6875 242.921875 274.125 247.679688 C 270.832031 253.898438 268.394531 260.363281 267.664062 267.316406 C 267.542969 268.292969 267.175781 269.027344 266.445312 269.636719 C 261.566406 273.050781 257.421875 277.320312 252.667969 281.46875 C 253.765625 279.027344 254.984375 277.078125 255.472656 274.757812 C 257.421875 265.367188 261.691406 257.070312 266.933594 249.140625 C 268.882812 246.09375 270.710938 242.921875 271.6875 239.382812 C 272.785156 235.355469 274.734375 231.820312 277.539062 228.769531 C 278.515625 227.429688 279.492188 225.964844 281.074219 225.355469 C 282.539062 223.523438 284.734375 222.914062 286.683594 221.816406 C 287.292969 221.574219 288.023438 221.207031 287.902344 220.597656 C 287.660156 219.863281 286.804688 220.109375 286.316406 220.351562 C 284.246094 220.960938 282.050781 221.207031 280.101562 222.058594 C 279.976562 222.183594 279.855469 222.425781 279.613281 222.425781 C 278.148438 222.914062 276.5625 223.28125 275.34375 224.257812 C 274.980469 224.5 274.613281 224.378906 274.246094 224.257812 C 269.25 226.695312 265.714844 230.601562 262.910156 235.113281 C 258.519531 242.308594 254.863281 249.875 252.910156 258.167969 C 250.839844 266.464844 248.886719 274.636719 248.765625 283.175781 C 248.765625 284.398438 248.523438 285.496094 247.546875 286.46875 C 243.035156 291.226562 237.792969 295.253906 233.648438 300.378906 C 234.257812 298.058594 234.867188 295.863281 235.109375 293.546875 C 235.71875 288.542969 236.453125 283.542969 237.792969 278.664062 C 238.890625 274.515625 240.109375 270.367188 240.71875 266.21875 C 240.964844 264.144531 240.476562 261.949219 240.964844 259.875 C 241.695312 256.828125 240.230469 254.265625 239.867188 251.460938 C 239.742188 250.972656 239.378906 250.238281 238.769531 250.238281 C 238.160156 250.238281 238.035156 250.972656 237.792969 251.460938 C 237.671875 252.679688 238.160156 253.777344 237.671875 254.996094 C 236.941406 258.65625 235.964844 262.074219 234.5 265.488281 C 233.769531 267.195312 233.039062 269.027344 232.550781 270.855469 C 230.722656 278.664062 229.378906 286.46875 229.015625 294.523438 C 228.894531 297.570312 228.28125 300.5 228.648438 303.546875 C 228.769531 304.523438 228.160156 305.132812 227.550781 305.621094 C 225.84375 307.085938 224.503906 308.792969 223.285156 310.503906 C 219.75 315.382812 216.945312 320.628906 214.140625 325.871094 C 211.09375 331.605469 208.652344 337.707031 206.09375 343.683594 C 205.484375 345.632812 204.753906 347.464844 204.019531 349.417969 C 202.191406 354.175781 200.484375 359.054688 199.265625 363.933594 C 199.023438 365.03125 197.800781 366.007812 198.777344 367.347656 C 198.777344 367.59375 198.777344 367.835938 198.65625 367.957031 C 196.949219 371.738281 196.09375 375.765625 195 379.667969 C 194.265625 382.476562 193.535156 385.28125 192.925781 388.207031 C 192.804688 388.695312 192.558594 389.0625 192.070312 389.304688 C 191.949219 390.40625 192.195312 391.378906 191.828125 392.476562 C 191.707031 392.964844 191.949219 393.210938 192.4375 393.210938 C 195.609375 393.210938 198.898438 393.210938 202.070312 393.089844 C 202.558594 392.476562 202.558594 391.867188 202.679688 391.136719 C 203.046875 388.941406 203.167969 386.621094 203.410156 384.425781 C 203.898438 379.792969 204.996094 375.277344 205.726562 370.640625 C 205.605469 371.128906 205.726562 371.496094 206.335938 371.496094 C 206.582031 370.398438 206.335938 369.300781 206.335938 368.082031 C 206.214844 367.105469 206.335938 366.128906 206.582031 365.152344 C 207.070312 363.078125 207.554688 360.882812 207.921875 358.808594 C 209.140625 352.101562 210.726562 345.390625 212.800781 338.804688 C 214.261719 333.921875 216.089844 329.042969 218.652344 324.652344 C 219.140625 323.796875 219.625 322.945312 220.113281 322.089844 C 224.136719 314.40625 229.503906 307.816406 235.597656 301.71875 C 239.988281 297.328125 244.621094 293.058594 248.886719 288.421875 C 252.546875 284.398438 256.570312 280.613281 260.835938 277.199219 C 264.492188 274.273438 268.152344 271.464844 271.6875 268.539062 C 273.761719 266.953125 275.953125 265.609375 278.269531 264.511719 C 279.855469 263.78125 281.441406 263.046875 283.027344 262.316406 C 292.65625 258.167969 302.65625 255.484375 313.019531 254.632812 C 316.066406 254.386719 319.238281 254.386719 322.285156 254.019531 C 323.871094 253.777344 325.332031 254.265625 326.675781 255.121094 C 328.015625 255.972656 329.234375 257.070312 330.332031 258.289062 C 331.796875 260.121094 333.746094 261.460938 335.941406 262.195312 C 337.769531 262.804688 339.476562 263.414062 341.304688 263.902344 C 344.839844 264.878906 348.253906 266.21875 351.300781 268.171875 C 354.714844 270.246094 358.007812 272.6875 360.933594 275.371094 C 361.789062 276.222656 362.640625 277.078125 363.25 278.054688 C 365.078125 280.738281 366.175781 283.785156 367.03125 286.957031 C 367.640625 289.03125 367.394531 291.226562 366.664062 293.421875 C 366.054688 295.007812 365.203125 296.351562 364.46875 297.691406 C 364.226562 298.179688 363.738281 298.546875 363.984375 299.277344 C 364.105469 299.277344 364.347656 299.15625 364.347656 299.15625 C 366.910156 295.742188 368.128906 291.835938 368.859375 287.691406 C 369.226562 285.371094 368.617188 282.933594 368.128906 280.492188 Z M 187.683594 375.523438 C 187.683594 366.371094 187.4375 357.34375 186.464844 348.195312 C 185.730469 342.585938 185 336.972656 183.539062 331.484375 C 183.292969 330.265625 183.171875 329.167969 183.539062 327.945312 C 183.292969 327.945312 182.804688 328.3125 182.683594 327.824219 C 182.195312 326.484375 181.707031 325.140625 181.707031 323.675781 C 181.585938 323.554688 181.34375 323.3125 181.34375 323.1875 C 180.613281 320.503906 179.390625 317.941406 178.539062 315.257812 C 177.5625 312.332031 176.222656 309.648438 174.757812 307.085938 C 173.175781 304.28125 171.34375 301.597656 169.394531 299.035156 C 165.738281 294.15625 161.835938 289.398438 157.8125 284.882812 C 156.226562 283.054688 154.519531 281.46875 152.691406 279.882812 C 151.472656 278.90625 150.617188 277.6875 150.007812 276.101562 C 149.519531 274.882812 149.15625 273.539062 148.789062 272.320312 C 147.570312 268.414062 146.472656 264.390625 144.644531 260.609375 C 143.425781 258.046875 142.085938 255.605469 140.863281 253.046875 C 139.15625 249.507812 137.816406 245.847656 137.207031 241.945312 C 136.476562 237.066406 135.867188 232.183594 134.769531 227.429688 C 134.523438 226.574219 134.402344 225.71875 134.28125 224.988281 C 134.039062 222.671875 133.792969 220.351562 133.550781 218.035156 C 133.425781 217.425781 133.671875 216.816406 133.0625 216.328125 C 132.085938 216.816406 132.695312 217.546875 132.695312 218.15625 C 132.816406 223.890625 132.941406 229.5 132.695312 235.234375 C 132.574219 237.675781 132.453125 240.113281 132.332031 242.554688 C 132.332031 247.3125 132.941406 251.949219 134.160156 256.460938 C 135.5 261.585938 137.695312 266.21875 141.472656 270 C 142.570312 271.101562 143.425781 272.320312 144.523438 273.417969 C 144.035156 273.539062 143.667969 273.171875 143.179688 272.929688 C 140.132812 271.101562 137.207031 269.390625 134.160156 267.5625 C 133.304688 267.074219 132.453125 266.585938 131.597656 266.097656 C 130.988281 265.730469 130.867188 265.488281 131.109375 264.878906 C 131.84375 263.535156 131.476562 262.316406 130.867188 261.097656 C 129.160156 257.679688 127.574219 254.265625 125.746094 250.972656 C 124.527344 248.652344 122.820312 246.824219 120.625 245.480469 C 119.527344 244.871094 118.554688 244.382812 117.457031 243.894531 C 115.75 243.164062 113.921875 242.433594 112.335938 241.578125 C 109.285156 239.992188 106.359375 238.164062 104.167969 235.355469 C 103.191406 234.136719 102.214844 232.917969 101.484375 231.574219 C 100.753906 230.355469 100.019531 229.015625 99.167969 227.792969 C 95.996094 222.792969 93.070312 217.546875 91.851562 211.570312 C 91.851562 211.324219 91.730469 211.082031 91.609375 210.835938 C 91.609375 210.714844 91.363281 210.714844 91.242188 210.714844 C 91.121094 210.714844 91 210.835938 91 210.960938 C 91.121094 211.570312 91.121094 212.179688 91.242188 212.789062 C 92.097656 215.839844 92.707031 218.890625 93.191406 222.058594 C 94.046875 227.429688 95.996094 232.429688 98.679688 237.1875 C 102.460938 243.773438 107.578125 249.140625 113.921875 253.167969 C 116.601562 254.875 119.285156 256.460938 122.089844 258.046875 C 124.039062 259.265625 125.746094 260.851562 127.332031 262.5625 C 127.695312 263.046875 128.183594 263.414062 128.308594 264.023438 C 127.941406 264.269531 127.695312 264.023438 127.453125 263.902344 C 124.285156 262.195312 120.871094 260.730469 117.578125 259.265625 C 113.066406 257.191406 108.433594 255.605469 103.554688 254.753906 C 101.726562 254.386719 99.777344 254.019531 97.949219 253.65625 C 96.484375 253.289062 96.363281 253.167969 96.730469 251.703125 C 96.851562 251.09375 96.851562 250.605469 97.09375 249.996094 C 97.339844 249.019531 97.214844 248.042969 96.972656 247.066406 C 96.363281 244.871094 95.023438 243.164062 93.191406 241.824219 C 91.851562 240.847656 90.511719 239.992188 89.167969 239.140625 C 88.074219 238.40625 87.097656 237.796875 86.121094 236.941406 C 82.953125 234.136719 79.414062 232.0625 75.515625 230.597656 C 72.710938 229.5 69.90625 228.527344 66.980469 227.671875 C 64.175781 226.816406 61.25 226.328125 58.324219 226.695312 C 55.519531 227.0625 52.714844 227.304688 50.03125 228.160156 C 49.300781 228.402344 48.570312 228.402344 47.714844 228.527344 C 45.644531 228.769531 43.570312 229.015625 41.5 229.378906 C 41.011719 229.5 40.402344 229.5 39.914062 230.113281 C 43.691406 229.988281 47.351562 229.746094 51.128906 229.625 C 53.570312 229.5 56.007812 229.625 58.445312 230.234375 C 60.882812 230.84375 63.324219 231.574219 65.761719 232.429688 C 67.46875 232.917969 69.050781 233.769531 70.515625 234.625 C 76.003906 237.429688 80.757812 241.210938 84.902344 245.847656 C 87.21875 248.410156 89.78125 250.484375 92.828125 252.070312 C 93.191406 252.191406 93.679688 252.3125 93.679688 252.921875 C 90.023438 252.3125 86.367188 251.824219 82.707031 251.214844 C 81.367188 250.972656 80.027344 250.972656 78.683594 250.851562 C 77.953125 250.726562 77.34375 250.605469 77.222656 249.628906 C 77.097656 248.410156 76.246094 247.679688 75.515625 246.824219 C 71.734375 243.042969 67.589844 239.992188 62.710938 237.675781 C 61.371094 237.066406 60.03125 236.453125 58.566406 236.210938 C 54.054688 235.234375 49.667969 234.382812 45.035156 234.136719 C 43.449219 234.015625 41.863281 233.769531 40.15625 233.894531 C 38.207031 234.015625 36.253906 234.136719 34.304688 234.136719 C 33.695312 234.136719 33.207031 234.257812 32.71875 234.625 C 30.039062 236.210938 27.722656 238.285156 25.648438 240.601562 C 25.160156 241.089844 24.917969 241.578125 24.671875 242.1875 C 23.941406 244.871094 23.210938 247.433594 22.476562 250.117188 C 22.234375 250.972656 22.234375 251.214844 22.601562 252.433594 C 23.332031 250.726562 23.820312 248.777344 24.308594 246.945312 C 24.550781 245.847656 24.917969 244.75 25.40625 243.773438 C 26.136719 242.1875 27.234375 241.335938 28.941406 241.089844 C 29.792969 240.96875 30.648438 240.726562 31.378906 240.726562 C 33.328125 240.480469 35.160156 239.871094 37.230469 239.871094 C 42.351562 239.75 47.472656 239.871094 52.59375 240.238281 C 53.570312 240.359375 54.542969 240.480469 55.519531 240.726562 C 58.933594 241.699219 62.226562 243.042969 65.273438 245.117188 C 67.832031 246.824219 70.515625 248.410156 73.199219 249.875 C 73.441406 249.996094 73.929688 250.117188 73.808594 250.605469 C 71.492188 250.605469 69.175781 250.605469 66.859375 250.605469 C 62.101562 250.605469 57.347656 250.851562 52.59375 251.703125 C 43.207031 253.289062 34.546875 256.949219 27.113281 263.046875 C 24.183594 265.488281 21.015625 267.804688 17.84375 270 C 14.917969 271.832031 12.238281 273.90625 9.433594 275.980469 C 9.1875 276.222656 8.945312 276.46875 8.699219 276.710938 C 8.578125 276.832031 8.578125 276.957031 8.699219 277.078125 C 8.699219 277.199219 8.945312 277.199219 9.066406 277.199219 C 9.433594 277.078125 9.796875 277.078125 10.042969 276.832031 C 11.75 275.980469 13.457031 275.125 15.164062 274.269531 C 21.257812 270.855469 27.234375 267.316406 33.207031 263.902344 C 34.792969 263.046875 36.378906 262.074219 38.085938 261.460938 C 41.375 260.121094 44.667969 258.902344 47.839844 257.558594 C 54.421875 254.875 61.371094 253.289062 68.566406 253.046875 C 74.417969 252.800781 80.269531 253.167969 86 254.144531 C 91.121094 254.996094 96.242188 255.972656 101.363281 256.949219 C 106.238281 257.804688 111.117188 259.023438 115.625 261.21875 C 119.039062 262.804688 122.578125 264.144531 125.992188 265.976562 C 130.5 268.414062 135.132812 270.976562 139.523438 273.660156 C 143.425781 276.101562 147.328125 278.417969 150.742188 281.46875 C 153.667969 284.03125 156.347656 286.957031 159.03125 289.886719 C 163.785156 295.375 168.175781 301.109375 172.078125 307.207031 C 172.808594 308.429688 173.539062 309.648438 174.027344 310.867188 C 174.394531 311.84375 174.882812 312.820312 175.246094 313.796875 C 177.441406 318.675781 179.148438 323.554688 179.757812 328.921875 C 179.878906 330.386719 180.246094 331.851562 180.125 333.3125 C 180.367188 334.777344 179.878906 336.242188 180 337.707031 C 180.488281 341.730469 180.734375 345.632812 180.734375 349.660156 C 180.613281 355.148438 180.488281 360.761719 180.367188 366.25 C 180.246094 374.546875 179.390625 382.71875 179.027344 391.015625 C 178.90625 392.355469 178.417969 392.964844 177.074219 392.964844 C 176.101562 392.964844 175.125 392.84375 174.269531 393.574219 C 174.636719 394.0625 175.125 393.941406 175.613281 393.941406 C 178.90625 393.941406 182.195312 393.820312 185.488281 393.820312 C 187.925781 393.820312 187.804688 393.941406 187.804688 391.503906 C 187.683594 385.890625 187.683594 380.644531 187.683594 375.523438 Z M 187.683594 375.523438 " fill-opacity="1" fill-rule="nonzero"/><g clip-path="url(#ad8040ec39)"><path fill="#49873e" d="M 181.34375 344.535156 C 181.34375 350.027344 181.34375 355.515625 181.34375 361.003906 C 181.34375 361.738281 181.34375 362.347656 181.097656 363.078125 C 180.976562 363.6875 180.976562 364.300781 180.976562 364.910156 C 180.976562 367.226562 180.976562 369.542969 180.976562 371.863281 C 180.976562 373.449219 181.097656 375.035156 180.613281 376.621094 C 180.488281 377.109375 180.613281 377.59375 180.613281 378.082031 C 180.613281 379.546875 180.734375 381.011719 180.246094 382.476562 C 180.125 382.964844 180.246094 383.449219 180.125 383.9375 C 180.125 385.28125 180.246094 386.621094 179.757812 387.84375 C 179.636719 388.207031 179.636719 388.695312 179.636719 389.0625 C 179.636719 389.792969 179.636719 390.527344 179.636719 391.136719 C 179.636719 393.089844 179.636719 393.089844 177.808594 393.089844 C 176.589844 393.089844 175.367188 393.089844 174.269531 393.089844 C 174.027344 392.355469 174.148438 391.746094 174.148438 391.015625 C 174.269531 386.621094 174.394531 382.351562 174.515625 377.960938 C 174.636719 375.523438 174.757812 373.082031 175.003906 370.640625 C 175.492188 366.25 175.855469 361.859375 176.222656 357.46875 C 176.464844 354.785156 176.832031 352.222656 177.199219 349.539062 C 177.683594 345.878906 178.171875 342.21875 178.78125 338.558594 C 179.027344 337.21875 179.390625 335.875 179.757812 334.535156 C 180.125 334.167969 179.878906 333.558594 180.125 333.191406 C 180.125 333.070312 180.125 332.949219 180.246094 332.824219 C 180.734375 333.191406 180.613281 333.679688 180.613281 334.167969 C 180.613281 335.507812 180.613281 336.851562 180.976562 338.070312 C 181.097656 338.558594 180.976562 339.167969 181.097656 339.78125 C 181.097656 340.878906 181.097656 341.851562 181.464844 342.949219 C 181.34375 343.5625 181.34375 344.046875 181.34375 344.535156 Z M 25.527344 147.160156 C 25.527344 147.039062 25.527344 147.039062 25.527344 147.160156 C 25.527344 147.039062 25.40625 147.039062 25.527344 147.160156 C 25.40625 147.039062 25.527344 147.160156 25.527344 147.160156 Z M 374.832031 181.074219 C 374.101562 181.316406 373.613281 180.949219 373.003906 180.707031 C 368.371094 179.363281 363.738281 178.632812 358.984375 177.777344 C 350.449219 176.316406 341.792969 174.851562 333.378906 173.019531 C 329.722656 172.167969 325.941406 171.558594 322.285156 170.824219 C 321.554688 170.703125 320.945312 170.582031 320.210938 170.582031 C 314.847656 170.582031 309.359375 170.460938 303.996094 170.703125 C 300.09375 170.824219 296.195312 171.191406 292.171875 171.191406 C 291.683594 171.191406 291.195312 171.070312 290.707031 171.679688 C 291.4375 171.800781 292.046875 171.921875 292.78125 171.921875 C 297.414062 172.410156 301.800781 173.753906 305.949219 175.828125 C 308.140625 176.925781 309.847656 178.511719 311.191406 180.585938 C 312.164062 181.925781 313.019531 183.390625 313.75 184.976562 C 314.96875 187.539062 316.3125 190.097656 317.894531 192.539062 C 318.140625 192.785156 318.261719 193.148438 318.503906 193.394531 C 321.554688 199.25 326.066406 204.007812 331.183594 208.152344 C 334.355469 210.714844 337.890625 213.035156 341.425781 215.105469 C 341.792969 215.230469 342.28125 215.351562 342.28125 215.960938 C 339.355469 215.351562 336.304688 214.863281 333.5 213.644531 C 331.550781 212.910156 329.722656 212.179688 327.769531 211.449219 C 324.84375 210.347656 322.164062 208.886719 319.847656 206.8125 C 317.773438 204.980469 315.824219 203.152344 313.871094 201.199219 C 313.019531 200.347656 312.289062 199.371094 311.679688 198.394531 C 309.605469 195.222656 307.410156 191.929688 305.460938 188.636719 C 302.65625 183.878906 298.996094 179.972656 294.730469 176.558594 C 292.535156 174.851562 290.097656 173.753906 287.292969 173.144531 C 285.21875 172.65625 283.390625 172.777344 281.320312 173.265625 C 277.296875 174.484375 273.394531 175.582031 269.613281 177.289062 C 269.125 177.535156 268.640625 177.777344 268.152344 178.144531 C 268.03125 178.144531 268.03125 178.386719 268.03125 178.511719 C 271.078125 178.265625 274.246094 177.902344 277.296875 177.65625 C 278.878906 177.535156 280.34375 177.414062 281.929688 177.535156 C 283.390625 177.65625 284.734375 178.265625 285.832031 179.363281 C 287.414062 181.074219 289 182.78125 290.097656 184.855469 C 291.074219 186.5625 292.046875 188.269531 292.902344 189.976562 C 293.390625 190.832031 293.753906 191.808594 294 192.660156 C 294.730469 195.710938 295.585938 198.640625 296.070312 201.6875 C 296.804688 206.203125 297.535156 210.835938 298.753906 215.351562 C 297.289062 217.304688 295.949219 219.375 293.390625 220.109375 C 287.539062 215.472656 284.367188 209.25 283.757812 201.808594 C 283.148438 194.734375 279.855469 189.125 274.613281 184.609375 C 271.929688 182.292969 268.394531 181.195312 264.738281 180.949219 C 263.882812 180.949219 263.273438 181.316406 262.542969 181.683594 C 259.496094 183.390625 256.570312 185.34375 253.519531 187.171875 C 256.082031 186.441406 258.277344 187.292969 260.59375 188.511719 C 263.761719 190.222656 267.054688 191.683594 270.101562 193.515625 C 272.417969 194.980469 274.125 196.808594 275.101562 199.492188 C 277.660156 206.078125 278.757812 212.910156 279.613281 219.742188 C 279.734375 220.476562 279.734375 221.328125 279.492188 222.058594 C 277.539062 223.402344 275.589844 224.867188 273.027344 224.378906 C 268.761719 219.988281 265.835938 214.863281 266.445312 208.519531 C 267.175781 200.710938 261.203125 196.441406 255.59375 193.757812 C 253.644531 192.785156 251.449219 192.417969 249.496094 191.5625 C 248.277344 191.074219 247.304688 191.320312 246.328125 192.050781 C 241.207031 195.953125 236.574219 200.222656 232.550781 205.835938 C 234.867188 205.835938 236.9375 205.347656 239.011719 205.226562 C 243.402344 204.980469 247.789062 204.738281 252.179688 205.46875 C 252.667969 205.59375 253.15625 205.714844 253.644531 205.835938 C 254.007812 205.957031 254.617188 206.078125 254.617188 206.566406 C 254.617188 207.179688 254.007812 207.179688 253.519531 207.300781 C 250.714844 207.789062 247.789062 208.152344 244.621094 208.277344 C 245.597656 209.128906 246.328125 209.496094 247.179688 209.984375 C 251.9375 213.035156 255.351562 217.425781 257.910156 222.425781 C 258.640625 224.011719 259.128906 225.597656 259.007812 227.304688 C 259.007812 228.769531 259.007812 230.234375 259.25 231.699219 C 259.375 232.308594 259.375 233.039062 258.640625 233.285156 C 257.789062 233.648438 257.300781 232.917969 256.933594 232.429688 C 256.324219 231.574219 256.203125 230.476562 255.714844 229.5 C 251.328125 221.574219 245.71875 214.984375 236.574219 212.179688 C 235.109375 211.691406 233.890625 211.691406 232.671875 212.667969 C 232.0625 213.15625 231.574219 213.519531 230.84375 213.765625 C 225.355469 216.203125 221.941406 220.230469 219.75 225.84375 C 218.042969 230.476562 215.359375 234.625 213.894531 239.382812 C 210.480469 245.117188 208.53125 251.460938 206.09375 257.558594 C 204.753906 261.097656 203.410156 264.757812 202.191406 268.292969 C 201.339844 269.636719 200.851562 271.101562 200.484375 272.6875 C 197.558594 281.347656 194.386719 290.007812 191.339844 298.667969 C 188.78125 305.746094 186.707031 312.820312 185.121094 320.140625 C 184.757812 321.601562 184.878906 323.066406 185.367188 324.53125 C 188.660156 334.898438 191.949219 345.269531 195.484375 355.636719 C 196.21875 357.832031 196.460938 360.273438 197.679688 362.46875 C 198.289062 364.054688 197.558594 365.882812 198.535156 367.46875 C 198.65625 367.957031 198.535156 368.445312 198.410156 368.933594 C 196.21875 374.910156 194.753906 381.132812 193.167969 387.355469 C 192.925781 388.207031 192.925781 389.429688 191.585938 389.429688 C 191.097656 386.5 191.097656 383.449219 190.851562 380.402344 C 190.363281 376.132812 190 371.863281 189.632812 367.59375 C 189.390625 365.519531 189.269531 363.445312 189.144531 361.25 C 188.78125 356.492188 188.292969 351.734375 187.5625 346.976562 C 187.316406 345.023438 187.074219 343.074219 186.828125 341.121094 C 186.464844 337.339844 185.367188 333.800781 184.269531 330.265625 C 184.023438 329.410156 183.902344 328.433594 183.292969 327.703125 C 182.804688 328.191406 182.316406 328.3125 181.953125 327.582031 C 181.34375 326.238281 180.488281 324.898438 181.464844 323.3125 C 181.707031 322.335938 181.464844 321.359375 181.222656 320.382812 C 178.78125 311.234375 175.367188 302.449219 171.589844 293.667969 C 169.636719 289.152344 167.6875 284.640625 165.859375 280.128906 C 164.882812 277.808594 163.785156 275.734375 162.566406 273.539062 C 161.226562 271.101562 160.128906 268.660156 159.03125 266.097656 C 155.496094 258.414062 151.835938 250.851562 148.910156 242.921875 C 146.105469 235.722656 142.328125 229.015625 138.304688 222.304688 C 136.109375 218.644531 133.914062 214.984375 131.71875 211.324219 C 129.402344 207.421875 126.722656 203.882812 123.550781 200.710938 C 118.429688 195.589844 113.1875 190.710938 107.457031 186.195312 C 100.019531 180.339844 91.851562 175.703125 83.316406 171.679688 C 80.390625 170.214844 77.222656 168.996094 74.296875 167.652344 C 72.589844 166.800781 70.882812 166.800781 69.175781 167.164062 C 66.980469 167.53125 64.90625 168.386719 62.835938 169.484375 C 61.25 170.335938 59.664062 171.070312 57.957031 171.3125 C 57.347656 171.433594 56.738281 171.558594 56.128906 171.558594 C 53.203125 171.679688 50.398438 171.679688 47.472656 171.3125 C 42.230469 170.703125 37.109375 170.703125 31.988281 171.679688 C 26.5 172.777344 21.136719 174.117188 16.015625 176.316406 C 12.96875 177.535156 10.53125 179.609375 8.214844 181.925781 C 6.996094 183.144531 6.019531 184.488281 4.921875 185.707031 C 4.066406 186.683594 3.335938 187.78125 2.726562 189 C 1.75 190.832031 1.265625 192.785156 1.140625 194.855469 C 1.019531 197.417969 1.386719 199.859375 1.875 202.421875 C 1.996094 202.910156 1.996094 203.394531 1.996094 203.882812 C 1.996094 204.007812 1.875 204.128906 1.75 204.128906 C 1.507812 204.25 1.386719 204.007812 1.265625 203.882812 C 0.652344 200.957031 0.167969 198.152344 0.289062 195.101562 C 0.410156 193.148438 0.652344 191.320312 0.777344 189.488281 C 0.898438 187.78125 1.386719 186.316406 2.117188 184.855469 C 2.972656 183.144531 3.824219 181.4375 4.800781 179.851562 C 6.140625 177.535156 8.089844 175.582031 10.652344 174.605469 C 14.308594 173.265625 17.84375 171.3125 21.015625 168.996094 C 22.722656 167.652344 24.792969 167.042969 26.867188 166.679688 C 29.304688 166.191406 31.746094 165.824219 34.0625 165.457031 C 35.769531 165.214844 37.476562 164.847656 39.179688 164.238281 C 43.816406 162.410156 48.691406 161.921875 53.691406 162.410156 C 55.886719 162.652344 58.203125 162.53125 60.394531 162.894531 C 63.6875 163.261719 67.101562 163.75 70.394531 164.359375 C 71.367188 164.480469 72.464844 164.847656 73.441406 165.214844 C 82.953125 169.117188 92.339844 173.507812 100.996094 179.121094 C 104.410156 181.316406 107.703125 183.757812 110.871094 186.316406 C 110.992188 185.953125 110.871094 185.707031 110.628906 185.464844 C 108.675781 182.902344 106.96875 180.339844 105.261719 177.65625 C 103.433594 174.851562 100.996094 172.410156 98.558594 170.214844 C 98.070312 169.726562 97.460938 169.363281 96.972656 168.75 C 92.949219 164.605469 88.4375 161.066406 83.804688 157.527344 C 81.488281 155.699219 79.292969 153.746094 77.097656 151.796875 C 74.296875 149.113281 71.246094 146.550781 68.199219 143.988281 C 66.734375 142.769531 65.027344 141.546875 63.445312 140.449219 C 61.617188 139.109375 59.785156 137.886719 57.835938 136.667969 C 54.542969 134.472656 51.375 132.15625 48.691406 129.347656 C 47.714844 128.375 47.59375 128.375 46.375 129.105469 C 45.15625 129.835938 44.058594 130.691406 42.960938 131.546875 C 37.476562 136.546875 31.867188 141.425781 26.378906 146.429688 C 26.136719 146.671875 25.769531 146.914062 25.40625 147.160156 C 25.40625 146.429688 26.015625 146.0625 26.378906 145.695312 C 30.160156 141.058594 34.0625 136.425781 37.960938 131.667969 C 39.304688 130.082031 40.644531 128.617188 42.230469 127.277344 C 43.203125 126.421875 44.300781 125.933594 45.644531 125.8125 C 49.421875 125.566406 53.203125 125.445312 56.980469 125.203125 C 57.59375 125.203125 58.078125 125.324219 58.566406 125.566406 C 63.320312 127.761719 68.078125 129.960938 72.710938 132.644531 C 75.515625 134.230469 78.074219 136.304688 80.269531 138.621094 C 83.195312 141.546875 86 144.597656 88.558594 147.890625 C 95.996094 157.40625 103.554688 166.921875 110.992188 176.316406 C 113.921875 179.972656 116.601562 183.878906 118.917969 187.902344 C 119.648438 189 120.382812 190.222656 121.113281 191.320312 C 122.699219 193.757812 124.285156 196.320312 125.257812 199.125 C 125.503906 199.738281 125.867188 200.226562 126.234375 200.710938 C 128.429688 203.03125 130.378906 205.46875 132.207031 208.152344 C 132.332031 208.277344 132.453125 208.398438 132.816406 208.640625 C 133.0625 207.789062 132.941406 207.054688 132.816406 206.324219 C 132.695312 204.980469 132.574219 203.519531 132.453125 202.175781 C 132.332031 200.46875 132.085938 198.761719 131.355469 197.296875 C 129.890625 194.003906 129.160156 190.585938 128.792969 187.171875 C 128.308594 183.632812 127.332031 180.21875 126.113281 176.804688 C 125.992188 176.558594 125.867188 176.4375 125.625 176.191406 C 124.40625 176.804688 123.0625 177.289062 121.722656 177.535156 C 121.113281 177.65625 120.746094 178.023438 120.503906 178.511719 C 119.773438 179.851562 118.796875 181.074219 118.554688 182.660156 C 118.554688 182.78125 118.308594 182.78125 118.308594 182.902344 C 118.1875 182.902344 118.066406 182.78125 118.066406 182.660156 C 117.820312 181.195312 117.945312 179.730469 118.308594 178.265625 C 118.554688 177.289062 119.039062 176.558594 119.773438 176.070312 C 120.871094 175.339844 121.96875 174.730469 123.0625 174.363281 C 123.550781 174.242188 124.039062 173.996094 124.40625 173.753906 C 124.769531 173.632812 124.894531 173.265625 124.769531 172.898438 C 124.648438 172.65625 124.648438 172.410156 124.527344 172.046875 C 123.0625 168.875 122.210938 165.457031 120.992188 162.164062 C 120.871094 161.921875 120.871094 161.675781 120.503906 161.554688 C 120.015625 161.675781 119.648438 162.042969 119.40625 162.410156 C 118.429688 163.382812 117.457031 164.480469 116.480469 165.457031 C 115.992188 165.945312 115.503906 166.3125 115.015625 166.679688 C 114.53125 166.921875 114.042969 166.921875 113.675781 166.554688 C 113.308594 166.191406 113.1875 165.703125 113.433594 165.214844 C 113.554688 164.96875 113.675781 164.726562 113.921875 164.480469 C 114.40625 163.992188 114.773438 163.507812 115.261719 163.140625 C 117.089844 162.042969 118.066406 160.335938 119.285156 158.625 C 119.648438 158.140625 119.648438 157.773438 119.527344 157.285156 C 118.675781 153.382812 118.066406 149.355469 116.601562 145.695312 C 115.382812 142.523438 113.675781 139.472656 112.214844 136.304688 C 112.089844 135.9375 111.726562 135.691406 111.359375 135.203125 C 109.773438 136.179688 108.554688 137.523438 107.09375 138.621094 C 106.605469 138.011719 107.09375 137.523438 107.335938 137.15625 C 108.066406 136.058594 108.921875 134.960938 109.773438 133.984375 C 110.140625 133.496094 110.261719 133.007812 109.898438 132.519531 C 109.53125 131.789062 109.042969 131.058594 108.433594 130.449219 C 107.945312 129.960938 107.457031 129.835938 106.847656 130.203125 C 104.777344 131.667969 102.214844 131.910156 99.898438 132.519531 C 97.09375 133.132812 94.289062 133.863281 91.609375 134.71875 C 91 134.960938 90.265625 135.082031 89.535156 135.203125 C 89.414062 135.203125 89.046875 135.203125 88.925781 135.082031 C 88.804688 134.71875 89.167969 134.71875 89.292969 134.59375 C 89.414062 134.472656 89.535156 134.472656 89.65625 134.472656 C 93.191406 133.742188 96.242188 131.789062 99.410156 130.203125 C 101.851562 128.984375 104.410156 127.886719 106.847656 126.664062 C 107.335938 126.421875 107.824219 126.542969 108.3125 126.664062 C 110.507812 127.277344 112.699219 127.886719 114.773438 128.496094 C 115.382812 128.617188 115.871094 128.738281 116.359375 128.496094 C 116.847656 128.738281 117.457031 128.863281 117.945312 129.105469 C 121.722656 130.203125 124.285156 132.398438 125.503906 136.425781 C 126.601562 139.839844 128.308594 143.011719 129.402344 146.429688 C 129.769531 147.402344 130.136719 148.257812 130.746094 148.988281 C 130.988281 151.429688 131.597656 153.746094 132.941406 155.820312 C 132.816406 157.164062 133.0625 158.503906 133.425781 159.722656 C 134.28125 162.773438 135.257812 165.703125 135.867188 168.875 C 136.109375 169.972656 136.476562 170.949219 137.085938 171.679688 C 136.597656 173.632812 137.207031 175.582031 137.695312 177.414062 C 137.574219 179 137.9375 180.585938 138.183594 182.171875 C 139.28125 188.636719 139.15625 195.101562 138.546875 201.6875 C 138.183594 205.226562 137.816406 208.640625 136.476562 211.9375 C 135.867188 213.398438 136.476562 214.496094 137.207031 215.71875 C 140.988281 221.816406 144.765625 228.039062 147.9375 234.625 C 148.300781 235.480469 148.789062 236.332031 149.15625 237.1875 C 148.789062 235.96875 148.546875 234.746094 148.546875 233.40625 C 148.546875 231.332031 148.546875 229.378906 148.546875 227.304688 C 148.667969 224.621094 148.425781 222.0625 147.328125 219.621094 C 146.71875 218.277344 146.839844 217.179688 148.425781 216.449219 C 149.765625 215.839844 149.765625 214.621094 149.765625 213.398438 C 149.886719 206.203125 148.789062 199.125 147.328125 192.050781 C 146.71875 189.246094 146.351562 186.441406 145.742188 183.511719 C 145.132812 179.609375 145.375 175.703125 145.375 171.800781 C 146.105469 166.554688 144.644531 161.675781 142.570312 157.039062 C 141.351562 152.160156 138.914062 148.136719 134.648438 145.207031 C 134.402344 144.84375 134.160156 144.355469 133.914062 143.988281 C 133.671875 143.621094 133.671875 143.378906 133.914062 143.011719 C 134.28125 142.644531 134.769531 142.644531 135.011719 142.890625 C 136.230469 143.867188 137.9375 143.988281 139.035156 145.207031 C 139.035156 146.304688 140.011719 146.550781 140.621094 146.914062 C 145.742188 149.84375 149.519531 153.992188 152.691406 158.75 C 153.910156 160.578125 154.640625 162.652344 155.617188 164.480469 C 158.300781 170.582031 158.789062 177.167969 159.640625 183.632812 C 159.761719 184.488281 160.128906 185.34375 160.128906 186.316406 C 159.761719 189.488281 160.617188 192.785156 160.496094 195.953125 C 159.640625 202.296875 159.03125 208.765625 158.789062 215.105469 C 157.566406 219.5 156.347656 223.769531 156.226562 228.402344 C 154.886719 232.796875 153.789062 237.308594 152.082031 241.699219 C 151.59375 242.921875 151.960938 244.019531 152.449219 245.117188 C 154.765625 251.460938 157.933594 257.4375 160.617188 263.535156 C 161.714844 265.855469 162.8125 268.292969 163.785156 270.613281 C 163.785156 267.683594 163.785156 264.757812 164.273438 261.828125 C 165.128906 256.949219 166.710938 252.3125 167.445312 247.433594 C 167.929688 244.507812 168.664062 241.457031 168.542969 238.527344 C 169.273438 235.355469 169.394531 232.1875 169.636719 229.015625 C 170.492188 223.890625 171.710938 218.890625 173.417969 213.886719 C 174.394531 212.058594 175.246094 210.351562 176.101562 208.519531 C 177.441406 206.8125 178.171875 204.496094 180.125 203.03125 C 180.855469 203.152344 181.097656 203.761719 180.976562 204.496094 C 179.636719 207.054688 179.027344 209.738281 179.027344 212.546875 C 178.050781 214.984375 178.78125 217.667969 178.171875 220.109375 C 178.171875 220.351562 178.171875 219.988281 178.171875 220.351562 C 178.78125 226.085938 178.292969 231.699219 177.320312 237.429688 C 176.710938 239.992188 176.34375 242.675781 176.101562 245.238281 C 174.269531 253.289062 171.46875 261.097656 169.273438 269.148438 C 168.785156 270.734375 168.296875 272.441406 167.320312 273.785156 C 166.589844 274.882812 166.835938 275.859375 167.320312 276.957031 C 172.929688 289.398438 178.292969 301.964844 182.5625 315.136719 C 183.171875 312.699219 183.902344 310.378906 184.511719 308.0625 C 186.339844 301.839844 188.535156 295.742188 190.851562 289.765625 C 193.414062 282.6875 195.363281 275.246094 198.535156 268.292969 C 199.023438 267.316406 199.144531 266.34375 199.386719 265.246094 C 200.242188 262.925781 201.339844 260.730469 201.703125 258.292969 C 204.875 251.335938 207.433594 244.140625 210.605469 237.1875 C 212.921875 232.0625 215.480469 226.941406 217.554688 221.695312 C 219.625 218.277344 221.699219 214.742188 224.015625 211.449219 C 224.382812 210.835938 224.992188 210.226562 224.871094 209.375 C 227.917969 206.203125 227.917969 206.203125 225.601562 202.421875 C 224.136719 200.226562 223.164062 197.664062 221.457031 195.589844 C 221.210938 192.90625 219.871094 190.585938 219.015625 188.148438 C 216.945312 182.292969 216.210938 176.4375 217.066406 170.335938 C 218.042969 165.824219 219.503906 161.433594 220.601562 156.917969 C 221.089844 155.210938 222.066406 154.355469 223.773438 154.113281 C 226.941406 153.625 230.113281 153.257812 233.28125 152.648438 C 234.257812 152.527344 235.109375 152.648438 235.964844 153.015625 C 238.769531 154.601562 240.597656 157.285156 243.28125 159.480469 C 244.132812 155.578125 245.960938 152.285156 248.035156 149.234375 C 248.523438 148.5 248.886719 147.769531 249.742188 147.28125 C 250.230469 147.160156 250.472656 146.671875 250.839844 146.304688 C 252.179688 144.597656 253.398438 143.011719 254.738281 141.304688 C 255.226562 140.695312 255.714844 140.085938 256.445312 139.71875 C 261.8125 136.304688 267.542969 133.742188 273.636719 132.03125 C 274.613281 131.789062 275.222656 131.910156 275.832031 132.644531 C 276.929688 133.984375 278.027344 135.328125 279.246094 136.667969 C 279.734375 137.15625 279.855469 137.277344 280.464844 136.789062 C 283.636719 134.59375 287.414062 133.375 290.949219 131.910156 C 293.632812 130.8125 296.316406 129.714844 298.996094 128.738281 C 302.65625 127.277344 306.433594 126.054688 310.335938 125.445312 C 310.703125 125.445312 311.066406 125.203125 311.433594 125.445312 C 311.3125 125.8125 311.066406 125.8125 310.824219 125.933594 C 307.289062 127.152344 303.753906 128.375 300.21875 129.472656 C 295.949219 130.8125 292.171875 132.886719 288.757812 136.058594 C 286.316406 138.253906 283.878906 140.449219 281.683594 142.890625 C 280.953125 143.621094 280.222656 144.476562 279.613281 145.328125 C 276.078125 150.332031 273.027344 155.578125 270.957031 161.433594 C 269.492188 165.457031 267.785156 169.363281 265.46875 173.019531 C 264.738281 174.242188 264.128906 175.460938 263.519531 176.679688 C 263.882812 177.167969 264.25 176.925781 264.492188 176.804688 C 268.882812 174.363281 273.515625 172.65625 278.394531 171.433594 C 279.613281 171.191406 280.34375 170.460938 280.953125 169.484375 C 282.050781 167.652344 282.902344 165.824219 283.757812 163.871094 C 284.488281 162.164062 285.21875 160.335938 285.953125 158.625 C 288.023438 153.746094 290.828125 149.476562 294.609375 145.816406 C 298.265625 142.28125 302.167969 139.109375 306.800781 136.914062 C 308.507812 136.179688 309.972656 135.203125 311.433594 134.105469 C 313.75 132.398438 316.1875 130.8125 318.503906 129.105469 C 321.429688 127.03125 324.601562 125.324219 327.894531 123.859375 C 328.382812 123.617188 328.867188 123.371094 329.84375 123.007812 C 329.113281 123.980469 328.382812 124.347656 327.773438 124.714844 C 323.992188 127.152344 320.089844 129.714844 316.3125 132.15625 C 312.898438 134.351562 309.847656 136.789062 307.042969 139.71875 C 306.191406 140.574219 305.214844 141.425781 304.242188 142.28125 C 301.4375 144.597656 299.121094 147.160156 297.167969 150.332031 C 295.097656 153.625 293.023438 156.796875 290.828125 160.089844 C 288.878906 163.019531 286.925781 165.945312 284.609375 168.628906 C 284.246094 168.996094 284 169.363281 283.757812 169.847656 C 283.757812 169.847656 283.757812 169.972656 283.757812 170.09375 C 284.125 170.214844 284.488281 170.09375 284.734375 170.09375 C 287.78125 169.238281 290.949219 168.875 294.121094 168.996094 C 296.195312 169.117188 298.386719 168.996094 300.460938 168.628906 C 300.949219 168.507812 301.191406 168.386719 301.3125 167.898438 C 302.65625 162.53125 305.214844 157.652344 307.777344 152.894531 C 309.238281 150.085938 311.066406 147.769531 313.261719 145.453125 C 320.457031 137.886719 328.992188 132.398438 338.746094 128.863281 C 341.671875 127.761719 344.230469 127.398438 347.890625 127.398438 C 348.011719 127.886719 347.644531 128.007812 347.277344 128.128906 C 342.769531 130.324219 338.746094 133.375 334.964844 136.546875 C 333.257812 138.011719 331.671875 139.351562 329.964844 140.816406 C 326.550781 143.5 323.503906 146.550781 320.335938 149.597656 C 320.089844 149.84375 319.96875 149.964844 319.726562 150.210938 C 320.089844 150.574219 320.335938 150.332031 320.578125 150.210938 C 326.429688 147.648438 332.527344 145.574219 338.5 143.621094 C 340.695312 142.890625 342.769531 142.160156 344.839844 141.425781 C 347.523438 140.449219 350.449219 139.960938 353.253906 139.597656 C 354.230469 139.472656 355.203125 139.351562 356.179688 139.230469 C 357.03125 139.109375 357.765625 139.109375 358.617188 139.109375 C 358.496094 139.71875 358.128906 139.71875 357.765625 139.839844 C 355.203125 140.816406 352.886719 142.15625 350.570312 143.867188 C 346.914062 146.550781 343.132812 149.113281 339.355469 151.671875 C 334.113281 155.089844 328.867188 158.140625 323.382812 161.066406 C 320.820312 162.410156 318.140625 163.507812 315.457031 164.480469 C 312.289062 165.578125 309.117188 166.679688 305.949219 167.898438 C 305.703125 168.019531 305.335938 168.019531 305.335938 168.386719 C 307.777344 168.75 308.628906 168.628906 310.582031 168.140625 C 313.382812 167.289062 316.3125 166.679688 319.238281 166.3125 C 324.480469 165.457031 329.84375 165.457031 335.207031 165.945312 C 339.84375 166.3125 344.351562 167.410156 348.5 169.605469 C 352.035156 171.558594 355.8125 173.144531 359.59375 174.730469 C 361.179688 175.339844 362.761719 176.070312 364.347656 176.925781 C 367.152344 178.511719 369.957031 180.097656 373.003906 181.316406 C 374.347656 180.707031 374.710938 180.707031 374.832031 181.074219 Z M 149.519531 237.675781 C 149.519531 237.675781 149.398438 237.675781 149.398438 237.554688 C 149.277344 237.429688 149.277344 237.1875 149.15625 237.066406 C 149.277344 237.308594 149.277344 237.554688 149.398438 237.796875 C 149.519531 237.917969 149.765625 237.554688 149.519531 237.675781 Z M 164.519531 270.855469 C 164.394531 270.855469 164.273438 270.855469 164.273438 270.734375 C 164.273438 270.734375 164.273438 270.855469 164.273438 270.855469 C 164.394531 271.101562 164.761719 270.734375 164.519531 270.855469 Z M 230.355469 181.4375 C 231.820312 180.707031 233.160156 179.609375 234.5 178.632812 C 237.183594 176.558594 240.230469 175.21875 243.15625 173.632812 C 244.253906 173.144531 244.253906 173.144531 244.253906 172.046875 C 244.011719 169.484375 243.890625 166.921875 244.011719 164.238281 C 244.011719 163.140625 243.765625 162.285156 243.15625 161.554688 C 242.546875 160.824219 241.9375 160.210938 241.207031 159.601562 C 239.742188 158.503906 238.160156 157.652344 236.574219 156.796875 C 236.207031 156.550781 235.84375 156.675781 235.84375 157.164062 C 235.476562 158.871094 234.746094 160.335938 233.890625 161.796875 C 232.304688 164.480469 230.964844 167.410156 229.988281 170.335938 C 229.136719 172.65625 228.527344 174.972656 228.28125 177.535156 C 228.160156 179 227.917969 180.585938 228.527344 182.046875 C 229.257812 182.414062 229.867188 181.804688 230.355469 181.4375 Z M 246.816406 187.414062 C 245.839844 185.464844 245.71875 183.269531 245.351562 181.074219 C 245.230469 180.460938 245.230469 180.460938 244.132812 180.460938 C 241.328125 180.828125 238.769531 181.925781 236.328125 183.144531 C 233.527344 184.488281 230.964844 186.074219 229.378906 188.878906 C 229.378906 189.367188 229.257812 189.855469 229.378906 190.34375 C 229.746094 193.148438 230.113281 196.078125 230.476562 198.882812 C 230.597656 200.101562 230.84375 201.324219 231.210938 202.664062 C 231.941406 202.175781 232.304688 201.566406 232.792969 200.957031 C 235.234375 197.90625 237.914062 195.101562 241.085938 192.660156 C 242.546875 191.5625 244.011719 190.464844 245.351562 189.367188 C 245.71875 189.125 246.082031 188.757812 246.570312 188.515625 C 246.816406 188.027344 246.9375 187.78125 246.816406 187.414062 Z M 261.203125 177.902344 C 258.398438 177.046875 255.59375 176.558594 252.667969 176.679688 C 252.058594 176.679688 251.570312 176.925781 251.082031 177.046875 C 250.59375 177.167969 250.351562 177.414062 250.351562 177.902344 C 250.230469 178.753906 250.105469 179.730469 250.105469 180.585938 C 250.105469 182.171875 249.742188 183.632812 249.132812 185.097656 C 249.007812 185.464844 248.644531 185.828125 248.886719 186.441406 C 249.132812 186.316406 249.375 186.195312 249.496094 186.195312 C 253.15625 184 256.8125 181.683594 260.46875 179.488281 C 260.714844 179.242188 261.078125 179.121094 261.324219 178.875 C 261.8125 178.632812 261.8125 178.023438 261.203125 177.902344 Z M 264.25 171.191406 C 264.371094 169.972656 264.492188 168.75 264.617188 167.652344 C 265.226562 164.359375 265.714844 161.1875 266.445312 157.894531 C 267.664062 152.28125 270.101562 147.160156 274.003906 142.769531 C 275.222656 141.304688 276.5625 139.960938 278.027344 138.863281 C 278.515625 138.5 279.003906 138.011719 279.492188 137.644531 C 279.367188 137.402344 279.367188 137.15625 279.125 137.035156 C 278.515625 136.425781 277.785156 135.816406 277.050781 135.203125 C 276.5625 134.71875 275.953125 134.59375 275.34375 134.960938 C 273.515625 135.9375 271.566406 136.789062 269.613281 137.523438 C 268.515625 138.011719 267.542969 138.621094 266.566406 139.351562 C 262.421875 142.402344 259.25 146.304688 256.933594 150.820312 C 256.445312 151.796875 256.445312 151.796875 257.179688 152.648438 C 258.640625 154.234375 260.105469 155.699219 261.445312 157.285156 C 261.691406 157.527344 262.175781 157.773438 261.933594 158.503906 C 261.078125 158.015625 260.46875 157.40625 259.738281 156.917969 C 259.007812 156.429688 258.398438 155.941406 257.667969 155.453125 C 256.933594 154.96875 256.324219 154.355469 255.226562 153.992188 C 253.644531 157.652344 251.8125 161.1875 250.351562 164.847656 C 249.253906 167.777344 249.621094 170.824219 249.984375 173.753906 C 249.984375 174.117188 250.351562 174.363281 250.714844 174.363281 C 251.082031 174.363281 251.449219 174.484375 251.8125 174.484375 C 255.351562 174.730469 258.761719 175.460938 262.300781 176.4375 C 263.398438 174.730469 264.007812 173.019531 264.25 171.191406 Z M 264.25 171.191406 " fill-opacity="1" fill-rule="nonzero"/></g><path fill="#396532" d="M 206.09375 371.738281 C 206.335938 378.328125 206.703125 384.914062 206.703125 391.625 C 206.703125 391.988281 206.703125 392.355469 206.703125 392.722656 C 206.703125 393.210938 206.457031 393.453125 205.972656 393.453125 C 204.628906 393.453125 203.289062 393.574219 202.070312 393.332031 C 202.070312 390.527344 202.433594 387.597656 202.800781 384.792969 C 203.167969 382.597656 203.410156 380.402344 203.777344 378.207031 C 203.898438 377.351562 204.019531 376.375 204.265625 375.523438 C 204.753906 373.570312 205.117188 371.617188 205.605469 369.542969 C 206.09375 370.15625 205.484375 371.128906 206.09375 371.738281 Z M 206.214844 343.925781 C 206.09375 341.851562 205.972656 339.902344 205.726562 337.828125 C 205.363281 334.898438 205.238281 331.972656 205.238281 329.042969 C 204.996094 322.457031 204.753906 315.871094 204.386719 309.28125 C 203.898438 300.863281 203.410156 292.324219 203.167969 283.910156 C 203.046875 279.882812 202.921875 275.734375 202.679688 271.710938 C 202.679688 270.613281 202.433594 269.636719 202.3125 268.539062 C 202.191406 268.660156 201.949219 268.78125 201.824219 268.902344 C 201.339844 270.125 200.484375 271.34375 200.605469 272.808594 C 200.730469 277.320312 200.851562 281.957031 201.09375 286.46875 C 201.214844 291.105469 201.460938 295.742188 201.582031 300.375 C 201.703125 303.425781 202.070312 306.355469 202.191406 309.402344 C 202.3125 311.84375 202.558594 314.285156 202.191406 316.722656 C 202.070312 317.578125 201.949219 318.554688 201.824219 319.40625 C 201.460938 322.945312 201.09375 326.359375 200.730469 329.898438 C 199.875 336.242188 199.265625 342.707031 198.777344 349.171875 C 198.65625 351.488281 198.289062 353.808594 198.167969 356.125 C 198.046875 358.320312 197.4375 360.394531 197.558594 362.589844 C 197.558594 363.8125 197.558594 364.910156 197.558594 366.128906 C 197.558594 366.738281 197.679688 367.347656 198.410156 367.714844 C 198.410156 366.984375 198.535156 366.371094 198.535156 365.640625 C 199.386719 365.519531 199.144531 364.664062 199.386719 364.175781 C 199.632812 363.566406 199.875 362.835938 199.996094 362.226562 C 200.242188 361.371094 200.484375 360.640625 200.730469 359.785156 C 202.070312 355.148438 203.898438 350.636719 205.605469 346.246094 C 206.09375 345.269531 206.09375 344.535156 206.214844 343.925781 Z M 159.640625 215.839844 C 159.519531 215.59375 159.273438 215.472656 159.03125 215.351562 C 158.542969 215.59375 158.300781 215.960938 158.175781 216.449219 C 157.445312 219.621094 156.835938 222.792969 156.105469 226.085938 C 155.984375 226.941406 156.105469 227.792969 156.472656 228.527344 C 157.566406 229.988281 158.910156 230.964844 160.371094 231.820312 C 161.714844 232.550781 162.933594 233.527344 164.03125 234.503906 C 165.613281 235.96875 167.320312 237.1875 169.027344 238.652344 C 169.515625 238.527344 169.882812 238.285156 169.882812 237.675781 C 169.882812 235.113281 170.246094 232.550781 170.734375 230.113281 C 170.859375 229.625 170.492188 229.378906 170.371094 228.890625 C 167.078125 224.378906 163.296875 220.109375 159.640625 215.839844 Z M 236.816406 249.75 C 235.71875 247.921875 234.257812 246.335938 232.429688 245.359375 C 230.234375 244.261719 228.160156 242.921875 226.089844 241.578125 C 224.257812 240.480469 222.308594 239.382812 220.480469 238.285156 C 219.382812 237.675781 218.40625 237.554688 217.308594 237.917969 C 216.578125 238.164062 215.726562 238.40625 214.992188 239.015625 C 214.75 239.261719 214.382812 239.261719 214.140625 239.503906 C 213.164062 240.113281 212.675781 241.089844 212.1875 242.1875 C 212.066406 242.554688 211.945312 243.042969 211.824219 243.410156 C 210.117188 247.554688 208.410156 251.703125 206.703125 255.851562 C 206.457031 256.460938 206.09375 257.191406 206.214844 257.925781 C 206.335938 257.804688 206.457031 257.804688 206.582031 257.679688 C 206.703125 257.558594 206.824219 257.4375 206.945312 257.316406 C 207.070312 257.191406 207.191406 257.070312 207.433594 256.949219 C 208.164062 256.582031 208.777344 255.851562 209.261719 255.242188 C 210.726562 253.65625 212.066406 252.070312 213.410156 250.484375 C 215.359375 248.289062 217.433594 246.335938 219.992188 245.117188 C 221.210938 244.507812 222.550781 244.261719 223.894531 244.382812 C 227.1875 244.628906 229.867188 246.214844 232.304688 248.410156 C 232.429688 248.53125 232.550781 248.777344 232.671875 248.898438 C 234.378906 251.09375 236.085938 253.167969 237.671875 255.363281 C 237.792969 255.121094 237.914062 254.875 238.035156 254.632812 C 238.28125 253.777344 237.792969 252.921875 237.671875 252.070312 C 237.425781 250.972656 237.183594 250.363281 236.816406 249.75 Z M 176.710938 208.519531 C 176.464844 208.152344 176.34375 207.789062 176.101562 207.421875 C 172.566406 201.933594 168.785156 196.566406 165.003906 191.320312 C 163.664062 189.488281 162.078125 187.660156 160.371094 186.195312 C 159.882812 186.5625 159.882812 187.050781 159.882812 187.539062 C 159.640625 190.097656 160.371094 192.660156 160.371094 195.222656 C 160.371094 195.46875 160.496094 195.710938 160.617188 196.078125 C 160.859375 196.078125 160.980469 196.320312 161.105469 196.566406 C 161.347656 196.929688 161.714844 197.296875 161.957031 197.664062 C 165.980469 202.421875 169.761719 207.179688 173.296875 212.300781 C 173.660156 212.789062 174.027344 213.15625 174.269531 213.644531 C 174.515625 213.519531 174.882812 213.519531 174.882812 213.15625 C 175.367188 211.8125 175.976562 210.59375 176.710938 209.496094 C 176.953125 209.25 176.710938 208.886719 176.710938 208.519531 Z M 143.058594 155.699219 C 142.328125 153.746094 141.839844 151.671875 140.5 150.085938 C 139.28125 148.625 138.183594 147.160156 136.839844 145.816406 C 136.355469 145.328125 135.742188 144.964844 135.011719 145.085938 C 134.160156 145.085938 133.671875 145.695312 133.183594 146.304688 C 132.332031 147.160156 131.597656 148.011719 130.867188 148.867188 C 130.5 149.722656 130.5 150.574219 130.867188 151.550781 C 131.234375 152.527344 131.597656 153.503906 131.71875 154.601562 C 131.84375 155.453125 132.332031 155.820312 133.183594 155.941406 C 136.476562 155.820312 139.765625 155.941406 143.058594 156.796875 C 143.179688 156.1875 143.179688 155.941406 143.058594 155.699219 Z M 146.351562 179.851562 C 146.351562 179.242188 146.351562 178.632812 146.230469 178.023438 C 145.984375 177.289062 146.105469 176.679688 146.230469 175.949219 C 146.472656 174.484375 146.71875 173.019531 145.984375 171.679688 C 145.496094 171.070312 144.765625 171.070312 144.035156 171.070312 C 141.71875 171.191406 139.402344 171.3125 137.085938 171.558594 C 136.230469 172.046875 136.109375 172.777344 136.355469 173.632812 C 136.476562 174.117188 136.71875 174.605469 136.71875 175.21875 C 136.597656 175.949219 137.085938 176.4375 137.574219 176.925781 C 139.402344 178.265625 141.351562 179.609375 143.179688 180.949219 C 144.035156 181.558594 145.011719 182.171875 145.984375 182.78125 C 146.230469 182.902344 146.351562 183.023438 146.472656 183.144531 C 146.59375 183.023438 146.839844 182.78125 146.71875 182.660156 C 146.230469 181.804688 146.351562 180.828125 146.351562 179.851562 Z M 270.589844 112.515625 C 270.589844 112.269531 270.46875 112.148438 270.347656 111.90625 C 268.152344 109.222656 266.078125 106.292969 263.640625 103.730469 C 263.152344 103.242188 262.664062 102.757812 262.054688 102.269531 C 257.421875 98.972656 252.421875 96.167969 246.9375 94.582031 C 245.71875 94.214844 244.742188 94.339844 243.765625 94.828125 C 241.695312 95.925781 239.988281 97.511719 238.523438 99.21875 C 235.964844 102.390625 233.28125 105.195312 230.84375 108.488281 C 228.769531 111.296875 226.574219 113.855469 224.136719 116.296875 C 219.015625 121.542969 213.773438 126.789062 209.019531 132.398438 C 206.582031 135.203125 204.140625 138.132812 201.460938 140.816406 C 200.730469 141.546875 200.117188 142.402344 199.507812 143.257812 C 197.800781 145.816406 195.972656 148.378906 195 151.308594 C 194.875 151.550781 194.875 151.917969 194.511719 151.917969 C 194.144531 151.917969 194.144531 151.550781 194.144531 151.308594 C 193.535156 145.207031 192.683594 139.230469 191.585938 133.132812 C 191.339844 131.910156 191.21875 130.8125 191.097656 129.59375 C 191.949219 129.347656 192.683594 129.105469 193.414062 129.226562 C 194.875 129.472656 196.21875 128.984375 197.4375 128.375 C 201.09375 126.421875 203.777344 123.617188 205.363281 119.710938 C 206.09375 117.761719 206.824219 115.929688 207.433594 113.980469 C 209.628906 106.539062 212.1875 99.097656 215.117188 91.898438 C 216.699219 87.875 218.042969 83.847656 218.773438 79.578125 C 219.261719 76.40625 219.75 73.234375 220.234375 70.0625 C 220.601562 67.378906 221.089844 64.695312 221.089844 61.890625 C 221.089844 57.132812 221.578125 52.496094 222.066406 47.859375 C 222.550781 43.589844 222.550781 39.445312 222.308594 35.296875 C 222.308594 34.929688 222.1875 34.5625 222.066406 34.320312 C 222.066406 34.199219 221.820312 34.078125 221.820312 34.078125 C 221.578125 34.078125 221.332031 34.199219 221.332031 34.320312 C 220.847656 35.050781 220.722656 35.90625 220.601562 36.761719 C 219.992188 39.566406 219.140625 42.25 217.675781 44.8125 C 216.945312 46.152344 216.335938 47.617188 215.847656 49.082031 C 215.238281 50.421875 214.871094 51.886719 214.261719 53.230469 C 212.3125 58.109375 210.238281 62.867188 209.628906 68.109375 C 209.628906 68.234375 209.507812 68.355469 209.507812 68.476562 C 208.777344 72.136719 207.921875 75.796875 207.3125 79.457031 C 206.945312 81.652344 206.582031 83.847656 206.09375 86.042969 C 205.117188 90.558594 203.898438 95.070312 202.679688 99.585938 C 201.703125 103.488281 200.605469 107.511719 199.507812 111.417969 C 198.898438 113.613281 197.925781 115.808594 197.316406 118.003906 C 196.828125 119.710938 196.21875 121.296875 195.609375 123.007812 C 194.753906 125.203125 193.292969 126.789062 191.707031 128.375 C 191.339844 128.738281 190.976562 128.617188 190.976562 128.128906 C 190.730469 126.542969 190.730469 125.078125 190.363281 123.492188 C 190 121.785156 190.363281 120.320312 190.976562 118.859375 C 193.65625 113.003906 195 106.78125 195.121094 100.316406 C 195.242188 97.265625 195.121094 94.09375 195.121094 91.046875 C 195.242188 83.480469 194.753906 76.039062 193.777344 68.597656 C 193.046875 63.109375 192.070312 57.621094 190 52.496094 C 188.660156 49.082031 187.316406 45.664062 185.976562 42.25 C 185.246094 40.296875 184.148438 38.46875 182.804688 36.761719 C 182.316406 36.273438 182.074219 35.539062 181.707031 35.050781 C 180.613281 33.222656 179.269531 31.394531 177.5625 30.050781 C 176.589844 29.195312 175.613281 28.222656 174.636719 27.367188 C 170.246094 23.339844 165.613281 19.804688 160.738281 16.386719 C 160.617188 16.265625 160.371094 15.898438 160.007812 16.386719 C 160.128906 16.511719 160.128906 16.753906 160.25 16.875 C 163.054688 21.023438 165.738281 25.171875 167.6875 29.808594 C 168.054688 30.660156 168.542969 31.394531 168.785156 32.246094 C 170.613281 38.46875 172.566406 44.6875 174.515625 51.03125 C 179.636719 67.5 183.050781 84.335938 185.246094 101.414062 C 185.730469 105.195312 186.097656 108.976562 186.585938 112.757812 C 187.074219 116.785156 187.5625 120.6875 188.046875 124.714844 C 188.046875 124.957031 188.292969 125.324219 187.804688 125.691406 C 187.316406 124.835938 186.828125 123.980469 186.339844 123.128906 C 184.390625 119.347656 182.5625 115.566406 180.976562 111.660156 C 178.171875 104.707031 174.882812 98.121094 171.101562 91.65625 C 168.417969 87.019531 165.859375 82.382812 163.664062 77.503906 C 160.738281 70.917969 157.566406 64.574219 153.910156 58.351562 C 150.984375 53.472656 148.300781 48.472656 145.132812 43.714844 C 144.402344 42.492188 143.425781 41.394531 142.695312 40.296875 C 142.449219 39.933594 142.082031 39.6875 141.839844 39.320312 C 141.597656 39.078125 141.230469 38.832031 140.863281 39.078125 C 140.5 39.320312 140.621094 39.6875 140.742188 40.054688 C 140.988281 40.664062 141.109375 41.273438 141.351562 41.882812 C 142.082031 43.46875 142.695312 45.054688 143.425781 46.761719 C 145.132812 50.910156 146.351562 55.058594 146.472656 59.570312 C 146.59375 63.839844 147.570312 67.988281 149.277344 72.015625 C 152.203125 78.601562 155.617188 84.945312 159.152344 91.289062 C 160.25 93.363281 161.714844 95.070312 163.421875 96.777344 C 165.003906 98.363281 166.589844 100.070312 168.054688 101.65625 C 169.515625 103.242188 170.859375 104.828125 171.832031 106.78125 C 173.660156 110.441406 176.101562 113.855469 178.050781 117.515625 C 178.78125 118.738281 179.515625 119.835938 180.367188 121.054688 C 182.195312 123.617188 184.390625 125.933594 187.074219 127.640625 C 187.4375 127.886719 187.683594 128.128906 188.046875 128.375 C 188.660156 128.738281 188.902344 129.226562 189.023438 129.960938 C 189.632812 133.617188 190.242188 137.277344 190.730469 140.9375 C 190.851562 141.425781 190.976562 142.035156 190.730469 142.523438 C 190.609375 142.523438 190.488281 142.644531 190.488281 142.523438 C 190.363281 142.523438 190.242188 142.402344 190.121094 142.28125 C 186.21875 139.230469 182.683594 135.816406 180.246094 131.421875 C 179.878906 130.691406 179.390625 129.960938 178.90625 129.226562 C 176.222656 124.589844 173.175781 120.078125 169.882812 115.808594 C 167.808594 113.125 165.613281 110.683594 162.933594 108.488281 C 162.078125 107.757812 161.347656 107.148438 160.496094 106.414062 C 158.542969 104.707031 156.347656 103.242188 154.03125 102.144531 C 151.59375 100.925781 149.277344 99.828125 146.839844 98.609375 C 142.816406 96.65625 138.792969 94.582031 134.769531 92.628906 C 133.792969 92.144531 132.941406 92.144531 131.964844 92.507812 C 130.257812 93.242188 128.429688 93.851562 126.601562 94.460938 C 125.746094 94.703125 125.015625 95.070312 124.285156 95.558594 C 122.820312 96.535156 121.480469 97.265625 119.773438 97.875 C 119.164062 98.121094 118.429688 98.484375 117.941406 98.972656 C 117.089844 99.707031 116.238281 100.558594 115.382812 101.414062 C 115.140625 101.65625 114.894531 101.78125 115.015625 102.269531 C 116.96875 101.292969 119.039062 100.558594 120.746094 99.21875 C 121.964844 98.242188 123.429688 97.632812 124.894531 97.265625 C 126.355469 96.902344 127.695312 97.023438 128.917969 97.875 C 129.402344 98.242188 129.769531 98.484375 130.257812 98.851562 C 132.085938 100.070312 133.914062 101.292969 135.742188 102.390625 C 140.253906 105.074219 144.765625 107.636719 149.277344 110.195312 C 153.179688 112.394531 156.714844 115.199219 160.007812 118.371094 C 163.421875 121.542969 166.957031 124.714844 170.371094 128.007812 C 170.734375 128.375 171.222656 128.738281 171.589844 129.226562 C 173.175781 130.933594 174.757812 132.519531 176.34375 134.230469 C 180.246094 138.375 184.757812 141.546875 189.632812 144.476562 C 190.609375 144.964844 191.097656 145.695312 191.21875 146.792969 C 191.21875 147.160156 191.339844 147.648438 191.339844 148.011719 C 191.828125 152.527344 192.4375 157.039062 192.804688 161.675781 C 193.167969 164.847656 193.292969 168.019531 193.535156 171.070312 C 193.535156 171.3125 193.65625 171.679688 193.167969 171.679688 C 192.195312 169.972656 191.097656 168.140625 190.121094 166.433594 C 187.195312 161.675781 184.148438 157.039062 181.222656 152.40625 C 179.027344 148.867188 176.34375 145.453125 173.417969 142.523438 C 170.859375 139.839844 168.296875 137.277344 165.738281 134.71875 C 158.542969 127.886719 150.253906 123.25 140.253906 121.664062 C 136.476562 121.054688 132.695312 120.933594 129.039062 122.394531 C 127.695312 122.882812 126.234375 123.25 124.769531 123.371094 C 124.039062 123.492188 123.429688 123.617188 122.820312 124.105469 C 120.625 125.691406 118.429688 127.152344 116.359375 128.738281 C 116.480469 129.59375 117.089844 129.472656 117.699219 129.472656 C 118.554688 129.59375 119.285156 129.226562 120.136719 128.863281 C 122.453125 127.886719 124.894531 127.640625 127.332031 128.25 C 129.160156 128.738281 130.988281 129.105469 132.816406 129.714844 C 135.988281 130.570312 139.28125 131.300781 142.570312 131.058594 C 146.230469 130.8125 149.519531 131.667969 152.691406 133.375 C 155.617188 135.082031 158.054688 137.402344 160.738281 139.472656 C 168.542969 145.328125 174.757812 152.648438 180.246094 160.578125 C 183.660156 165.578125 187.195312 170.460938 192.070312 174.242188 C 192.925781 174.972656 193.414062 175.703125 193.535156 176.925781 C 194.023438 180.339844 194.023438 183.757812 194.265625 187.171875 C 194.632812 195.101562 195.121094 202.910156 195.484375 210.835938 C 193.535156 206.933594 190.976562 203.519531 189.144531 199.738281 C 183.78125 188.511719 178.050781 177.535156 170.613281 167.410156 C 166.222656 161.433594 160.980469 156.308594 154.398438 152.527344 C 150.375 150.332031 146.230469 148.625 142.207031 146.425781 C 141.351562 145.941406 140.5 145.453125 139.402344 145.941406 C 138.792969 146.183594 138.671875 146.425781 138.914062 146.671875 C 139.15625 146.914062 139.523438 147.039062 139.765625 147.28125 C 141.472656 148.378906 143.179688 149.476562 144.765625 150.699219 C 145.253906 151.0625 145.742188 151.308594 146.105469 151.671875 C 147.328125 153.382812 149.035156 154.480469 150.128906 156.1875 C 150.742188 157.164062 151.351562 158.261719 152.203125 159.113281 C 153.058594 160.089844 153.667969 161.308594 154.152344 162.53125 C 154.519531 163.507812 155.007812 164.238281 155.496094 165.09375 C 155.738281 166.066406 156.347656 166.679688 156.957031 167.289062 C 158.910156 169.238281 160.617188 171.558594 162.199219 173.875 C 168.417969 182.414062 173.539062 191.683594 178.292969 201.199219 C 178.78125 202.175781 179.027344 203.394531 180.367188 203.640625 C 180.855469 204.007812 180.976562 204.492188 181.222656 204.859375 C 180.855469 205.59375 181.34375 206.078125 181.585938 206.566406 C 184.878906 211.449219 188.535156 215.839844 194.144531 218.402344 C 195.242188 218.890625 195.851562 219.375 195.851562 220.71875 C 196.21875 226.941406 196.707031 233.160156 197.191406 239.261719 C 196.828125 238.164062 196.21875 237.308594 195.609375 236.453125 C 190.851562 229.015625 185.246094 222.183594 180.855469 214.496094 C 180.488281 213.765625 180.125 212.910156 179.148438 212.910156 C 178.539062 213.277344 178.292969 213.886719 178.292969 214.496094 C 178.171875 216.570312 178.292969 218.644531 178.171875 220.597656 C 178.050781 221.449219 178.539062 222.058594 178.90625 222.792969 C 181.34375 227.0625 183.78125 231.453125 186.339844 235.722656 C 189.269531 240.480469 192.4375 245.117188 196.707031 248.898438 C 197.679688 249.75 198.289062 250.851562 198.289062 252.191406 C 198.410156 254.632812 198.898438 257.070312 198.777344 259.511719 C 198.777344 259.511719 198.65625 259.390625 198.65625 259.265625 C 192.804688 251.582031 185.609375 245.238281 178.660156 238.652344 C 178.292969 238.285156 177.929688 237.917969 177.320312 238.285156 C 176.953125 238.652344 176.589844 239.140625 176.589844 239.75 C 176.464844 241.578125 176.101562 243.285156 175.855469 244.996094 C 175.855469 245.238281 176.101562 245.480469 176.101562 245.726562 C 176.101562 246.457031 176.710938 246.945312 177.199219 247.433594 C 178.539062 248.898438 180.125 250.238281 181.707031 251.582031 C 187.5625 256.582031 192.925781 262.4375 200.117188 265.730469 C 200.242188 265.609375 200.484375 265.488281 200.484375 265.246094 C 201.214844 263.414062 201.824219 261.585938 202.558594 259.632812 C 202.679688 259.390625 202.433594 259.144531 202.191406 258.902344 C 202.070312 258.902344 202.070312 258.902344 201.949219 258.902344 C 201.703125 258.777344 201.824219 258.535156 201.824219 258.289062 C 201.949219 255.484375 201.460938 252.679688 201.214844 249.996094 C 200.972656 248.042969 201.214844 246.335938 202.433594 244.628906 C 205.238281 240.847656 207.921875 236.941406 210.726562 233.039062 C 212.433594 230.601562 213.53125 227.914062 215.359375 225.597656 C 216.210938 224.5 217.675781 223.769531 218.164062 222.304688 C 219.015625 221.328125 219.75 220.351562 220.359375 219.253906 C 221.578125 217.304688 222.796875 215.230469 224.136719 213.277344 C 224.746094 212.421875 225.355469 211.570312 225.84375 210.714844 C 226.210938 210.226562 225.601562 210.226562 225.355469 210.105469 C 224.382812 209.496094 223.773438 210.226562 223.039062 210.59375 C 217.308594 213.886719 212.066406 217.667969 207.554688 222.425781 C 203.777344 226.453125 201.582031 231.453125 199.996094 236.210938 C 199.753906 232.183594 199.632812 227.671875 199.023438 223.160156 C 198.65625 219.863281 199.023438 217.304688 201.949219 215.105469 C 204.875 213.035156 207.554688 210.472656 209.996094 207.789062 C 213.164062 204.25 216.699219 201.199219 220.480469 198.394531 C 221.210938 197.90625 222.066406 197.417969 221.941406 196.320312 C 222.066406 195.710938 222.429688 195.222656 222.066406 194.492188 C 221.457031 192.90625 220.847656 191.320312 220.234375 189.734375 C 220.113281 189.488281 219.871094 189.246094 219.75 189.125 C 218.773438 188.757812 218.042969 189.367188 217.308594 189.855469 C 214.382812 191.808594 211.457031 193.757812 209.019531 196.320312 C 205.363281 200.101562 201.214844 203.519531 198.046875 208.152344 C 198.046875 201.6875 197.316406 195.589844 197.191406 189.367188 C 197.070312 186.316406 197.316406 186.195312 200.242188 185.21875 C 203.65625 184.242188 206.945312 182.902344 209.507812 180.460938 C 212.1875 177.902344 214.382812 175.09375 217.066406 172.53125 C 217.433594 172.167969 217.796875 171.679688 217.796875 171.070312 C 218.40625 170.214844 218.527344 169.117188 218.773438 168.140625 C 219.75 164.480469 220.722656 160.824219 221.699219 157.285156 C 222.066406 156.066406 222.429688 155.210938 224.015625 155.332031 C 224.625 155.332031 225.234375 155.089844 225.84375 154.96875 C 228.160156 154.601562 230.597656 154.480469 232.917969 153.992188 C 234.378906 153.625 235.597656 153.625 237.0625 154.113281 C 240.839844 152.769531 244.984375 152.648438 248.277344 150.085938 C 248.398438 149.964844 248.644531 149.964844 248.765625 149.84375 C 248.886719 149.84375 248.886719 149.84375 249.007812 149.84375 C 249.621094 149.234375 250.230469 148.625 250.351562 147.769531 C 249.007812 147.039062 247.667969 146.550781 246.207031 146.183594 C 242.425781 145.328125 238.644531 145.085938 234.746094 145.453125 C 233.039062 145.574219 231.820312 146.183594 230.722656 147.28125 C 227.796875 150.332031 224.503906 153.015625 221.210938 155.578125 C 218.652344 157.652344 216.335938 159.96875 214.140625 162.53125 C 212.800781 164.117188 211.335938 165.578125 209.628906 166.921875 C 208.410156 167.898438 207.3125 168.996094 206.214844 169.972656 C 204.140625 171.921875 202.433594 174.117188 200.605469 176.191406 C 199.386719 177.535156 198.167969 178.875 197.191406 180.460938 C 197.070312 180.707031 196.949219 180.949219 196.460938 180.828125 C 196.339844 179.121094 196.21875 177.289062 196.09375 175.460938 C 195.851562 172.046875 195.609375 168.75 195.363281 165.335938 C 195.121094 162.894531 195 160.457031 194.753906 158.015625 C 194.753906 157.285156 194.875 157.164062 195.609375 157.164062 C 198.65625 157.164062 201.214844 155.820312 203.53125 153.992188 C 205.484375 152.527344 207.191406 150.699219 208.53125 148.625 C 209.75 146.792969 210.96875 144.964844 212.3125 143.257812 C 215.359375 139.597656 218.042969 135.570312 220.601562 131.546875 C 223.164062 127.519531 226.453125 124.226562 230.113281 121.175781 C 234.136719 117.761719 238.402344 114.589844 242.792969 111.660156 C 243.644531 111.050781 244.5 110.441406 245.351562 109.832031 C 246.691406 108.855469 248.035156 107.757812 249.375 106.78125 C 251.570312 105.316406 253.277344 103.609375 254.863281 101.65625 C 255.105469 101.292969 255.472656 100.925781 255.835938 100.558594 C 256.203125 100.316406 256.570312 100.195312 256.933594 100.4375 C 259.617188 101.902344 262.054688 103.488281 264.007812 105.925781 C 265.714844 108.125 267.421875 110.195312 269.25 112.269531 C 269.492188 112.636719 269.738281 113.003906 270.101562 113.125 C 270.222656 113.125 270.347656 113.125 270.46875 113.003906 C 270.589844 112.882812 270.589844 112.636719 270.589844 112.515625 Z M 244.742188 176.804688 C 244.621094 176.191406 244.5 175.582031 244.5 174.972656 C 244.5 173.875 244.375 173.875 243.15625 173.632812 C 242.792969 173.753906 242.304688 173.753906 241.9375 173.875 C 239.5 174.730469 237.304688 176.191406 235.109375 177.65625 C 232.914062 179.121094 230.722656 180.585938 228.40625 182.046875 C 228.160156 184.121094 228.648438 186.195312 228.890625 188.269531 C 228.890625 188.390625 229.136719 188.636719 229.257812 188.757812 C 229.746094 188.269531 230.355469 187.902344 230.84375 187.414062 C 233.160156 185.21875 235.84375 183.511719 238.769531 182.535156 C 239.621094 182.292969 240.476562 181.925781 241.328125 181.683594 C 242.183594 181.316406 243.15625 181.074219 244.011719 180.460938 C 244.375 179.972656 244.984375 179.609375 244.863281 178.875 C 244.863281 178.144531 244.863281 177.414062 244.742188 176.804688 Z M 244.742188 176.804688 " fill-opacity="1" fill-rule="nonzero"/></svg>