<svg xmlns="http://www.w3.org/2000/svg" xmlns:xlink="http://www.w3.org/1999/xlink" width="500" zoomAndPan="magnify" viewBox="0 0 375 562.499983" height="750" preserveAspectRatio="xMidYMid meet" version="1.0"><defs><clipPath id="1b865dd79f"><path d="M 228 179 L 337.691406 179 L 337.691406 333 L 228 333 Z M 228 179 " clip-rule="nonzero"/></clipPath><clipPath id="e09c0a3e42"><path d="M 20 512.042969 L 350 512.042969 L 350 540 L 20 540 Z M 20 512.042969 " clip-rule="nonzero"/></clipPath></defs><path fill="#e9dbc0" d="M 269.582031 381.238281 C 269.25 411.625 264.054688 441.726562 258.875 471.660156 C 256.382812 486.015625 253.910156 500.375 251.421875 514.75 C 251.222656 515.917969 250.988281 517.136719 250.234375 518.039062 C 249.066406 519.425781 247.042969 519.625 245.222656 519.726562 C 230.671875 520.507812 216.132812 521.292969 201.582031 522.078125 C 177.386719 523.382812 152.578125 524.617188 129.503906 517.238281 C 126.929688 478.472656 122.871094 439.804688 117.472656 401.320312 C 116.671875 395.546875 113.714844 387.265625 119.210938 383.222656 C 124.222656 379.535156 140.28125 381.921875 146.460938 381.738281 C 166.09375 381.15625 185.742188 380.820312 205.375 380.71875 C 210.738281 380.703125 269.601562 380.835938 269.582031 381.238281 Z M 269.582031 381.238281 " fill-opacity="1" fill-rule="nonzero"/><path fill="#cf5d43" d="M 143.269531 163.046875 C 141.015625 164.5 138.726562 166.167969 136.054688 166.335938 C 132.460938 166.554688 129.386719 164.015625 126.296875 162.164062 C 119.847656 158.289062 111.828125 157.085938 104.523438 158.925781 C 101.917969 159.574219 99.394531 160.609375 96.753906 161.027344 C 92.0625 161.777344 87.28125 160.59375 82.519531 160.328125 C 71.058594 159.707031 59.429688 164.882812 52.230469 173.800781 C 78.59375 172.78125 105.242188 180.863281 126.597656 196.355469 C 128.917969 198.039062 131.359375 199.878906 134.214844 200.09375 C 138.125 200.394531 141.550781 197.605469 145.375 196.789062 C 154.082031 194.902344 161.582031 203.167969 170.289062 205.019531 C 178.542969 206.773438 186.796875 202.617188 194.214844 198.589844 C 197.738281 196.671875 201.382812 194.652344 203.6875 191.378906 C 214.328125 176.238281 194.78125 168.375 184.207031 164.96875 C 168.734375 159.992188 158.992188 152.945312 143.269531 163.046875 Z M 143.269531 163.046875 " fill-opacity="1" fill-rule="nonzero"/><path fill="#cf5d43" d="M 267.730469 274.972656 C 271.855469 278.328125 278.40625 277.710938 282.097656 281.550781 C 287.378906 287.078125 282.683594 296.875 286.375 303.570312 C 288.414062 307.261719 292.675781 309.347656 294.496094 313.15625 C 296.117188 316.558594 295.449219 320.699219 297.050781 324.125 C 299.558594 329.5 306.492188 331.101562 310.433594 335.527344 C 313.175781 338.582031 314.242188 342.738281 315.246094 346.710938 C 317.703125 356.496094 320.140625 366.296875 322.597656 376.078125 C 312.773438 366.296875 299.023438 360.550781 285.15625 360.453125 C 278.890625 360.402344 271.054688 360.636719 268.230469 355.042969 C 266.125 350.851562 268.097656 344.992188 264.820312 341.636719 C 260.109375 336.777344 250.371094 342.773438 245.558594 337.996094 C 240.746094 333.238281 246.945312 324.273438 243.402344 318.515625 C 240.777344 317.3125 237.703125 317.179688 234.980469 318.128906 C 230.636719 313.988281 236.484375 306.074219 233.511719 300.867188 C 232.058594 298.328125 228.984375 297.328125 226.292969 296.191406 C 215.902344 291.785156 207.878906 282.136719 205.457031 271.117188 C 200.128906 246.925781 228.917969 240.996094 247.277344 239.027344 C 277.269531 235.773438 253.492188 263.371094 267.730469 274.972656 Z M 267.730469 274.972656 " fill-opacity="1" fill-rule="nonzero"/><path fill="#b7c259" d="M 201.03125 373.589844 C 197.039062 338.28125 198.105469 302.636719 204.203125 267.625 C 206.460938 254.65625 209.800781 239.660156 217.371094 226.671875 C 224.890625 213.785156 240.496094 202.664062 255.296875 199.625 L 256.550781 205.738281 C 243.570312 208.410156 229.351562 218.542969 222.769531 229.828125 C 215.683594 241.949219 212.527344 256.289062 210.351562 268.710938 C 204.355469 303.136719 203.300781 338.199219 207.230469 372.90625 Z M 201.03125 373.589844 " fill-opacity="1" fill-rule="nonzero"/><path fill="#b7c259" d="M 141.785156 381.671875 L 135.566406 381.222656 C 138.390625 342.65625 133.714844 300.601562 129.1875 259.945312 C 128.449219 253.300781 127.75 247.007812 127.082031 240.695312 C 126.195312 232.347656 125.058594 224.320312 121.097656 217.910156 C 119.980469 216.105469 118.007812 214.785156 116.871094 214.667969 C 116.519531 214.636719 116.4375 214.71875 116.335938 214.835938 L 111.726562 210.644531 C 113.195312 209.027344 115.234375 208.257812 117.457031 208.457031 C 121.234375 208.808594 124.675781 211.8125 126.429688 214.621094 C 131.074219 222.148438 132.328125 230.929688 133.296875 240.03125 C 133.964844 246.324219 134.667969 252.601562 135.402344 259.246094 C 139.945312 300.199219 144.65625 342.539062 141.785156 381.671875 Z M 141.785156 381.671875 " fill-opacity="1" fill-rule="nonzero"/><path fill="#b7c259" d="M 190.386719 248.226562 L 184.15625 248.175781 L 184.355469 221.011719 C 184.40625 214.71875 184.457031 208.207031 182.9375 202.179688 C 181.648438 197.003906 179.175781 192.097656 175.785156 187.972656 L 180.597656 184.015625 C 184.574219 188.839844 187.464844 194.601562 188.984375 200.679688 C 190.671875 207.472656 190.636719 214.386719 190.585938 221.0625 Z M 190.386719 248.226562 " fill-opacity="1" fill-rule="nonzero"/><path fill="#b7c259" d="M 227.394531 383.492188 C 226.058594 383.492188 224.839844 382.890625 224.054688 381.855469 C 223.234375 380.753906 223.085938 379.335938 223.652344 378.050781 C 224.105469 377.03125 224.957031 376.230469 225.957031 375.84375 C 225.257812 348.5 226.578125 320.867188 229.886719 293.722656 C 231.207031 282.917969 233.09375 271.648438 240.246094 263.035156 L 245.039062 267.027344 C 238.957031 274.339844 237.285156 284.589844 236.082031 294.472656 C 232.757812 321.835938 231.457031 349.667969 232.242188 377.214844 C 232.273438 378.234375 232.324219 379.9375 231.253906 381.488281 C 230.417969 382.707031 228.964844 383.476562 227.480469 383.507812 C 227.445312 383.492188 227.414062 383.492188 227.394531 383.492188 Z M 228.964844 378.015625 L 225.15625 380.703125 C 225.691406 381.453125 226.628906 381.890625 227.5625 381.804688 C 227.964844 381.773438 228.917969 381.570312 229.367188 380.570312 C 229.703125 379.800781 229.585938 378.851562 229.066406 378.132812 C 229.03125 378.082031 229 378.050781 228.964844 378.015625 Z M 228.964844 378.015625 " fill-opacity="1" fill-rule="nonzero"/><path fill="#cf5d43" d="M 101.148438 208.507812 C 92.246094 211.746094 84.507812 220.09375 84.140625 229.863281 C 84.023438 233.085938 84.675781 236.324219 84.15625 239.511719 C 82.46875 249.847656 70.539062 253.703125 61.617188 258.644531 C 51.292969 264.355469 42.589844 277.660156 48.269531 288.179688 C 49.921875 291.234375 52.695312 293.9375 52.644531 297.460938 C 52.5625 302.371094 47.300781 305.058594 43.171875 307.476562 C 38.476562 310.25 34.101562 314.539062 33.28125 320.082031 C 32.464844 325.609375 36.875 331.921875 42.203125 331.050781 C 26.765625 346.429688 15.539062 371.070312 23.558594 391.472656 C 26.597656 380.234375 36.839844 368.800781 46.664062 363.089844 C 51.125 360.484375 56.253906 359.550781 61.132812 357.980469 C 72.929688 354.191406 85.746094 345.710938 88.570312 333.222656 C 89.9375 327.195312 89.121094 320.917969 92.027344 315.492188 C 97.207031 305.859375 112.394531 302.050781 116.421875 291.851562 C 120.046875 282.667969 111.875 270.816406 119.644531 265.023438 C 122.21875 263.101562 125.675781 262.75 128.148438 260.679688 C 134.734375 255.15625 130.640625 243.101562 135.5 235.921875 C 137.457031 233.035156 139.542969 231.480469 142.285156 229.378906 C 146.761719 225.921875 150.003906 220.460938 150.054688 214.6875 C 150.105469 208.910156 146.496094 203.097656 141.148438 201.582031 C 134.097656 199.59375 131.242188 206.570312 125.761719 207.789062 C 117.808594 209.578125 109.769531 205.371094 101.148438 208.507812 Z M 101.148438 208.507812 " fill-opacity="1" fill-rule="nonzero"/><path fill="#5d6e2f" d="M 95.167969 207.773438 C 86.261719 211.011719 78.527344 219.359375 78.160156 229.128906 C 78.042969 232.347656 78.695312 235.589844 78.175781 238.777344 C 76.488281 249.113281 64.558594 252.96875 55.636719 257.910156 C 45.3125 263.621094 36.605469 276.925781 42.289062 287.445312 C 43.941406 290.5 46.714844 293.203125 46.664062 296.726562 C 46.582031 301.636719 41.316406 304.324219 37.191406 306.742188 C 32.496094 309.515625 28.117188 313.804688 27.300781 319.347656 C 26.480469 324.875 30.890625 331.183594 36.222656 330.316406 C 20.785156 345.710938 15.539062 371.070312 23.558594 391.472656 C 26.597656 380.234375 30.859375 368.082031 40.683594 362.371094 C 45.144531 359.769531 50.273438 358.832031 55.152344 357.261719 C 66.949219 353.472656 78.292969 344.691406 81.132812 332.203125 C 82.503906 326.175781 81.867188 319.566406 84.777344 314.140625 C 89.957031 304.507812 104.140625 302.636719 108.183594 292.417969 C 111.808594 283.238281 105.910156 270.0625 113.679688 264.269531 C 116.253906 262.351562 119.710938 262 122.183594 259.929688 C 128.769531 254.402344 123.488281 242.351562 128.367188 235.171875 C 130.320312 232.28125 133.597656 230.730469 136.320312 228.625 C 140.796875 225.171875 144.039062 219.710938 144.089844 213.933594 C 144.140625 208.15625 140.53125 202.347656 135.183594 200.828125 C 128.132812 198.84375 125.277344 205.820312 119.796875 207.039062 C 111.828125 208.84375 103.789062 204.652344 95.167969 207.773438 Z M 95.167969 207.773438 " fill-opacity="1" fill-rule="nonzero"/><path fill="#faf5f5" d="M 75.570312 269.664062 C 76.40625 268.476562 76.65625 266.992188 76.339844 265.589844 C 76.289062 265.355469 76.136719 265.140625 75.972656 264.972656 C 76.003906 264.136719 74.785156 262.96875 73.648438 262.769531 C 69.839844 262.117188 65.863281 262.550781 62.285156 264.003906 C 61.050781 264.503906 59.78125 265.207031 59.164062 266.390625 C 58.175781 268.328125 59.394531 270.78125 61.25 271.917969 C 63.105469 273.050781 65.378906 273.1875 67.53125 273.285156 C 69.722656 273.402344 72.078125 273.453125 73.882812 272.234375 C 74.769531 271.683594 75.371094 270.683594 75.570312 269.664062 Z M 75.570312 269.664062 " fill-opacity="1" fill-rule="nonzero"/><path fill="#faf5f5" d="M 97.875 275.441406 C 96.824219 274.554688 95.652344 274.824219 94.734375 275.574219 C 93.730469 276.058594 93.214844 277.144531 92.996094 278.410156 C 92.710938 279.480469 92.679688 280.617188 92.777344 281.699219 C 92.878906 282.835938 92.980469 284.488281 93.898438 285.324219 C 94.28125 286.140625 94.851562 286.875 95.738281 287.011719 C 97.074219 287.210938 98.242188 285.976562 98.8125 284.921875 C 100.199219 282.300781 100.363281 277.527344 97.875 275.441406 Z M 97.875 275.441406 " fill-opacity="1" fill-rule="nonzero"/><path fill="#faf5f5" d="M 116.320312 247.660156 C 116.289062 247.007812 116.171875 246.222656 115.953125 245.40625 C 115.71875 243.601562 115.035156 241.816406 114.015625 240.597656 C 113.214844 239.644531 112.226562 239.410156 111.339844 239.660156 C 110.992188 239.5625 110.65625 239.578125 110.324219 239.730469 C 109.453125 239.960938 109.085938 240.746094 109.003906 241.714844 C 108.21875 244.335938 108.917969 248.210938 110.339844 250.28125 C 111.15625 251.480469 112.328125 251.78125 113.398438 251.449219 C 115.101562 251.632812 116.402344 249.5625 116.320312 247.660156 Z M 116.320312 247.660156 " fill-opacity="1" fill-rule="nonzero"/><path fill="#faf5f5" d="M 97.523438 223.933594 C 94.917969 224.269531 92.34375 225.488281 90.488281 227.359375 C 89.035156 228.808594 88.367188 231.414062 90.90625 232.164062 C 91.109375 232.234375 91.324219 232.25 91.527344 232.265625 C 94.398438 233.25 101.265625 228.09375 101.902344 226.1875 C 102.769531 223.632812 98.996094 223.734375 97.523438 223.933594 Z M 97.523438 223.933594 " fill-opacity="1" fill-rule="nonzero"/><path fill="#faf5f5" d="M 89.789062 249.695312 C 88.652344 248.511719 87.265625 248.160156 85.695312 248.660156 C 85.578125 248.695312 85.496094 248.761719 85.394531 248.828125 C 84.476562 248.910156 83.574219 249.113281 82.6875 249.480469 C 81.734375 249.863281 81.734375 251.066406 82.421875 251.683594 C 84.441406 253.484375 87.097656 252.683594 89.285156 251.683594 C 89.972656 251.367188 90.375 250.332031 89.789062 249.695312 Z M 89.789062 249.695312 " fill-opacity="1" fill-rule="nonzero"/><path fill="#faf5f5" d="M 103.171875 260.679688 C 102.503906 260.113281 101.46875 260.046875 100.847656 260.863281 C 100.730469 261.03125 100.648438 261.199219 100.582031 261.382812 C 100.515625 261.484375 100.414062 261.582031 100.363281 261.699219 C 100.011719 262.484375 100.199219 263.519531 100.898438 264.070312 C 101.148438 264.921875 101.515625 265.890625 102.300781 266.324219 C 103.289062 266.875 104.441406 266.375 104.84375 265.339844 C 105.425781 263.753906 104.824219 261.367188 103.171875 260.679688 Z M 103.171875 260.679688 " fill-opacity="1" fill-rule="nonzero"/><path fill="#faf5f5" d="M 83.890625 293.238281 C 83.65625 292.167969 83.457031 290.667969 82.621094 289.898438 C 81.902344 289.246094 80.832031 289.3125 80.132812 289.949219 C 78.394531 291.535156 79.046875 294.890625 79.796875 296.925781 C 80.0625 297.910156 80.597656 298.695312 81.535156 298.929688 C 84.476562 299.613281 84.222656 294.824219 83.890625 293.238281 Z M 83.890625 293.238281 " fill-opacity="1" fill-rule="nonzero"/><path fill="#faf5f5" d="M 64.15625 285.757812 C 62.003906 284.722656 60.066406 285.539062 58.460938 286.894531 C 57.359375 287.542969 55.621094 288.710938 55.953125 290.148438 C 56.457031 292.335938 58.945312 291.5 61.152344 290.230469 C 61.199219 290.214844 61.25 290.199219 61.285156 290.183594 C 61.335938 290.148438 61.367188 290.113281 61.417969 290.082031 C 62.789062 289.28125 63.992188 288.34375 64.476562 287.945312 C 65.226562 287.308594 65.027344 286.175781 64.15625 285.757812 Z M 64.15625 285.757812 " fill-opacity="1" fill-rule="nonzero"/><path fill="#faf5f5" d="M 74.167969 308.949219 C 74.066406 308.328125 73.566406 307.710938 72.746094 307.746094 C 70.625 307.828125 69.839844 309.597656 69.570312 311.5 C 68.234375 314.742188 68.25 319.632812 70.390625 320.851562 C 70.859375 321.117188 71.277344 321.21875 71.660156 321.203125 C 71.976562 321.367188 72.34375 321.46875 72.761719 321.484375 C 77.859375 321.71875 77.707031 311.101562 74.167969 308.949219 Z M 74.167969 308.949219 " fill-opacity="1" fill-rule="nonzero"/><path fill="#faf5f5" d="M 56.421875 306.84375 C 56.304688 306.726562 56.171875 306.625 56.003906 306.542969 C 53.964844 305.660156 51.59375 307.011719 49.890625 308.113281 C 48.453125 309.046875 45.679688 311.066406 45.894531 313.070312 C 45.964844 313.707031 46.265625 314.121094 46.664062 314.40625 C 46.75 314.488281 46.847656 314.539062 46.949219 314.589844 C 46.949219 314.589844 46.964844 314.589844 46.964844 314.605469 C 47.066406 314.65625 47.167969 314.691406 47.265625 314.707031 C 48.167969 314.992188 49.304688 314.875 50.125 314.640625 C 52.363281 314.023438 54.402344 312.804688 56.019531 311.132812 C 57.207031 309.933594 57.925781 307.894531 56.421875 306.84375 Z M 56.421875 306.84375 " fill-opacity="1" fill-rule="nonzero"/><path fill="#faf5f5" d="M 65.292969 325.726562 C 65.277344 325.609375 65.246094 325.507812 65.195312 325.425781 C 65.128906 325.242188 65.058594 325.074219 64.976562 324.925781 C 64.476562 323.941406 63.070312 323.90625 62.605469 324.941406 C 62.585938 324.992188 62.570312 325.023438 62.554688 325.074219 C 61.871094 325.492188 61.382812 326.261719 61.285156 327.160156 C 61.21875 327.863281 61.351562 328.597656 61.351562 329.316406 C 61.351562 330.082031 61.5 330.835938 62.136719 331.335938 C 63.441406 332.335938 65.078125 331.335938 65.496094 329.964844 C 65.863281 328.699219 65.746094 327.046875 65.292969 325.726562 Z M 65.292969 325.726562 " fill-opacity="1" fill-rule="nonzero"/><path fill="#faf5f5" d="M 50.824219 323.171875 C 50.542969 323.222656 50.207031 323.289062 49.871094 323.355469 C 49.1875 323.304688 48.4375 323.488281 47.835938 323.871094 C 45.261719 324.675781 42.636719 326.125 42.820312 328.78125 C 42.871094 329.464844 43.640625 329.964844 44.292969 329.867188 C 45.828125 329.632812 47.316406 329.148438 48.6875 328.378906 C 49.738281 327.78125 51.410156 326.84375 51.695312 325.527344 C 52.730469 324.859375 52.261719 322.9375 50.824219 323.171875 Z M 50.824219 323.171875 " fill-opacity="1" fill-rule="nonzero"/><path fill="#faf5f5" d="M 56.003906 337.53125 C 55.152344 337.164062 54.402344 337.480469 53.75 338.082031 C 53.699219 338.097656 53.648438 338.082031 53.582031 338.097656 C 51.34375 338.648438 50.609375 342.6875 50.558594 344.558594 C 50.542969 345.210938 50.609375 346.011719 50.824219 346.746094 C 50.941406 347.597656 51.257812 348.316406 51.945312 348.699219 C 52.597656 349.050781 53.113281 349 53.53125 348.730469 C 53.566406 348.730469 53.582031 348.730469 53.617188 348.714844 C 55.6875 348.179688 56.992188 345.425781 57.390625 343.539062 C 57.742188 341.96875 57.875 338.332031 56.003906 337.53125 Z M 56.003906 337.53125 " fill-opacity="1" fill-rule="nonzero"/><path fill="#faf5f5" d="M 38.59375 337.980469 C 38.496094 338.015625 38.378906 338.046875 38.277344 338.082031 C 37.625 338.179688 36.972656 338.429688 36.339844 338.78125 C 34.953125 339.515625 33.316406 340.652344 32.511719 342.054688 C 31.761719 343.390625 32.464844 345.007812 34.050781 345.191406 C 35.539062 345.359375 37.226562 344.140625 38.394531 343.339844 C 39.515625 342.570312 41.203125 341.4375 41.417969 339.96875 C 41.652344 338.265625 39.949219 337.648438 38.59375 337.980469 Z M 38.59375 337.980469 " fill-opacity="1" fill-rule="nonzero"/><path fill="#231f20" d="M 22.839844 388.050781 L 21.285156 387.867188 C 22.554688 377.214844 27.902344 366.628906 37.640625 355.492188 C 38.242188 354.808594 38.84375 354.140625 39.445312 353.457031 C 43.824219 348.53125 48.351562 343.441406 49.605469 337.144531 C 49.789062 336.261719 49.890625 335.324219 49.988281 334.425781 C 50.125 333.304688 50.257812 332.152344 50.523438 331.019531 C 51.878906 325.160156 56.238281 320.851562 60.464844 316.695312 C 63.992188 313.222656 67.632812 309.632812 69.4375 305.175781 C 70.691406 302.085938 71.058594 298.613281 71.410156 295.257812 C 71.84375 291.101562 72.296875 286.808594 74.417969 283.085938 C 75.621094 280.984375 77.308594 279.113281 78.945312 277.308594 C 81.734375 274.238281 84.359375 271.332031 84.425781 267.558594 C 84.441406 266.875 84.359375 266.191406 84.273438 265.472656 C 84.175781 264.503906 84.058594 263.503906 84.15625 262.484375 C 84.574219 258.460938 88.050781 255.824219 91.109375 253.503906 C 91.644531 253.101562 92.175781 252.699219 92.679688 252.300781 C 98.140625 247.960938 101.984375 241.832031 103.503906 235.039062 L 105.027344 235.371094 C 103.421875 242.515625 99.378906 248.960938 93.648438 253.519531 C 93.128906 253.9375 92.59375 254.335938 92.042969 254.753906 C 89.101562 256.992188 86.046875 259.296875 85.695312 262.652344 C 85.609375 263.503906 85.710938 264.371094 85.8125 265.304688 C 85.894531 266.058594 85.980469 266.824219 85.960938 267.609375 C 85.878906 271.96875 82.921875 275.222656 80.0625 278.378906 C 78.476562 280.113281 76.855469 281.917969 75.738281 283.871094 C 73.78125 287.308594 73.363281 291.265625 72.914062 295.441406 C 72.546875 298.914062 72.179688 302.503906 70.824219 305.773438 C 68.886719 310.515625 65.128906 314.222656 61.5 317.8125 C 57.257812 322.003906 53.246094 325.960938 51.996094 331.386719 C 51.742188 332.4375 51.628906 333.488281 51.492188 334.625 C 51.375 335.558594 51.277344 336.511719 51.074219 337.460938 C 49.753906 344.175781 45.078125 349.433594 40.550781 354.507812 C 39.949219 355.191406 39.347656 355.859375 38.746094 356.546875 C 29.289062 367.414062 24.058594 377.714844 22.839844 388.050781 Z M 22.839844 388.050781 " fill-opacity="1" fill-rule="nonzero"/><path fill="#231f20" d="M 121.316406 206.789062 C 120.632812 207.039062 119.929688 207.308594 119.246094 207.558594 C 121.015625 208.007812 122.519531 209.792969 122.804688 211.847656 C 123.070312 213.867188 122.320312 216.1875 120.730469 218.207031 C 118.894531 220.5625 116.035156 222.164062 113.28125 223.71875 C 109.4375 225.886719 105.492188 228.109375 104.207031 232.332031 C 104.390625 232.382812 104.574219 232.464844 104.742188 232.550781 C 105.042969 232.699219 105.328125 232.882812 105.628906 233.066406 C 106.628906 229.246094 110.140625 227.273438 114.046875 225.070312 C 116.9375 223.449219 119.929688 221.765625 121.96875 219.175781 C 123.839844 216.789062 124.691406 214.117188 124.355469 211.648438 C 124.054688 209.59375 122.886719 207.808594 121.316406 206.789062 Z M 121.316406 206.789062 " fill-opacity="1" fill-rule="nonzero"/><path fill="#faf5f5" d="M 126.730469 230.046875 C 127.5 228.675781 127.28125 226.390625 126.878906 225.136719 C 126.527344 224.050781 125.660156 223.132812 124.707031 222.785156 C 124.074219 222.164062 123.289062 221.78125 122.320312 221.863281 C 119.613281 222.132812 119.945312 226.121094 120.429688 227.976562 C 120.933594 229.929688 122.570312 233.566406 125.140625 232.015625 C 125.460938 231.816406 125.726562 231.566406 125.945312 231.28125 C 126.042969 231.199219 126.144531 231.113281 126.230469 230.996094 C 126.445312 230.730469 126.613281 230.394531 126.730469 230.046875 Z M 126.730469 230.046875 " fill-opacity="1" fill-rule="nonzero"/><g clip-path="url(#1b865dd79f)"><path fill="#5d6e2f" d="M 276.449219 179.757812 C 283.5 180.292969 289.164062 186.355469 291.386719 193.050781 C 293.609375 199.742188 293.074219 207.023438 292.375 214.050781 C 291.957031 218.160156 291.753906 222.949219 294.828125 225.703125 C 297.351562 227.941406 301.128906 227.910156 304.203125 229.277344 C 313.257812 233.269531 312.671875 245.988281 311.722656 255.824219 C 311.570312 257.292969 311.488281 258.894531 312.253906 260.164062 C 313.574219 262.316406 316.582031 262.449219 318.972656 263.269531 C 323.699219 264.886719 326.589844 269.914062 327.175781 274.871094 C 327.761719 279.832031 326.472656 284.804688 325.1875 289.632812 C 324.753906 291.285156 324.335938 293.171875 325.238281 294.621094 C 326.039062 295.890625 327.578125 296.410156 328.914062 297.078125 C 334.828125 300.046875 337.636719 307.210938 337.351562 313.824219 C 337.082031 320.417969 334.308594 326.628906 331.605469 332.65625 C 328.246094 325.175781 318.90625 322.972656 310.902344 321.234375 C 302.882812 319.5 293.578125 315.941406 291.921875 307.914062 C 290.667969 301.851562 294.460938 295.039062 291.488281 289.613281 C 287.042969 281.46875 272.425781 284.789062 267.710938 276.777344 C 264.070312 270.582031 268.296875 260.3125 262.015625 256.824219 C 259.757812 255.574219 256.984375 255.90625 254.445312 255.390625 C 246.441406 253.753906 243.085938 241.78125 249.097656 236.238281 C 238.355469 237.074219 228.015625 227.273438 228.265625 216.503906 C 228.648438 199.878906 246.292969 210.011719 253.644531 202.015625 C 260.945312 194 261.246094 178.609375 276.449219 179.757812 Z M 276.449219 179.757812 " fill-opacity="1" fill-rule="nonzero"/></g><path fill="#231f20" d="M 330.015625 324.40625 C 326.308594 318.496094 323.316406 312.152344 321.160156 305.507812 C 320.476562 303.386719 319.859375 301.199219 319.257812 299.082031 C 317.988281 294.574219 316.683594 289.929688 314.59375 285.625 C 311.4375 279.0625 306.589844 273.46875 301.914062 268.0625 C 301.210938 267.242188 300.511719 266.441406 299.824219 265.625 C 288.164062 251.984375 277.855469 237.089844 269.183594 221.363281 C 268.816406 220.695312 268.449219 220.011719 268.0625 219.328125 C 264.570312 212.933594 260.980469 206.355469 255.632812 201.445312 C 255.5 201.980469 255.246094 202.464844 254.832031 202.847656 C 259.859375 207.574219 263.335938 213.917969 266.691406 220.078125 C 267.0625 220.761719 267.429688 221.429688 267.8125 222.117188 C 276.515625 237.925781 286.894531 252.917969 298.640625 266.640625 C 299.339844 267.460938 300.042969 268.261719 300.742188 269.078125 C 305.355469 274.40625 310.132812 279.929688 313.191406 286.292969 C 315.214844 290.480469 316.5 295.058594 317.753906 299.496094 C 318.355469 301.636719 318.972656 303.839844 319.675781 305.992188 C 321.746094 312.386719 324.570312 318.496094 328.078125 324.238281 C 328.714844 324.273438 329.363281 324.324219 330.015625 324.40625 Z M 330.015625 324.40625 " fill-opacity="1" fill-rule="nonzero"/><path fill="#fae8e8" d="M 256.617188 220.113281 C 256.433594 220.046875 256.25 220.027344 256.050781 220.011719 C 256.117188 219.679688 255.933594 219.277344 255.5 219.210938 C 252.726562 218.84375 250.019531 221.882812 249.367188 224.386719 C 249.097656 225.40625 249.25 226.574219 250.300781 227.074219 C 251.6875 227.742188 253.460938 226.554688 254.546875 225.804688 C 255.75 224.988281 257.136719 223.902344 257.554688 222.449219 C 257.855469 221.515625 257.636719 220.445312 256.617188 220.113281 Z M 256.617188 220.113281 " fill-opacity="1" fill-rule="nonzero"/><path fill="#fae8e8" d="M 276.550781 246.65625 C 276.382812 246.742188 276.234375 246.859375 276.082031 246.976562 C 275.882812 246.691406 275.480469 246.523438 275.128906 246.808594 C 272.910156 248.511719 273.140625 252.566406 274.445312 254.789062 C 274.980469 255.707031 275.914062 256.425781 277.019531 256.023438 C 278.472656 255.507812 278.875 253.4375 279.125 252.117188 C 279.390625 250.699219 279.609375 248.945312 278.890625 247.625 C 278.421875 246.773438 277.519531 246.171875 276.550781 246.65625 Z M 276.550781 246.65625 " fill-opacity="1" fill-rule="nonzero"/><path fill="#fae8e8" d="M 286.777344 224.554688 C 286.109375 223.550781 284.9375 222.382812 283.703125 222.214844 C 282.582031 222.066406 281.964844 223.035156 282.03125 224.050781 C 282.0625 224.535156 282.199219 225.054688 282.414062 225.570312 C 282.414062 225.722656 282.449219 225.855469 282.515625 225.988281 C 282.75 226.488281 283.101562 226.921875 283.519531 227.289062 C 283.652344 227.441406 283.800781 227.574219 283.953125 227.675781 C 284.085938 227.773438 284.253906 227.875 284.421875 227.957031 C 285.273438 228.476562 286.242188 228.792969 287.125 228.925781 C 287.460938 228.976562 287.796875 228.660156 287.8125 228.324219 C 287.863281 226.992188 287.527344 225.6875 286.777344 224.554688 Z M 284.921875 226.757812 C 284.738281 226.625 284.570312 226.457031 284.402344 226.304688 C 284.988281 226.207031 285.207031 225.289062 284.519531 225.070312 C 285.1875 225.289062 285.1875 225.085938 285.40625 225.703125 C 285.488281 225.9375 285.574219 226.207031 285.589844 226.457031 C 285.625 226.921875 285.472656 227.039062 285.1875 226.941406 C 285.121094 226.890625 285.023438 226.824219 284.921875 226.757812 Z M 284.921875 226.757812 " fill-opacity="1" fill-rule="nonzero"/><path fill="#b7c259" d="M 157.640625 381.804688 C 152.628906 345.910156 151.40625 309.648438 154.199219 279.699219 C 155.03125 270.78125 156.234375 261.398438 160.949219 253.253906 C 162.035156 251.382812 164.742188 249.894531 167.046875 250.679688 C 168.75 251.265625 169.734375 252.882812 169.484375 254.722656 L 163.304688 253.886719 C 163.1875 254.738281 163.621094 255.691406 164.371094 256.222656 C 165.160156 256.792969 165.960938 256.707031 166.109375 256.640625 C 166.128906 256.625 166.226562 256.539062 166.34375 256.355469 C 162.269531 263.417969 161.164062 272.050781 160.394531 280.28125 C 157.640625 309.765625 158.84375 345.527344 163.804688 380.953125 Z M 157.640625 381.804688 " fill-opacity="1" fill-rule="nonzero"/><path fill="#cf5d43" d="M 159.292969 318.429688 C 166.511719 323.921875 175.917969 326.960938 181.046875 334.441406 C 187.363281 343.605469 185.007812 355.859375 184.390625 366.964844 C 183.769531 378.082031 187.230469 391.789062 198.039062 394.460938 C 201.128906 395.226562 204.488281 394.929688 207.429688 396.179688 C 219.59375 401.371094 210.90625 422.960938 220.945312 431.558594 C 225.355469 435.332031 231.789062 435.097656 237.4375 436.480469 C 253.675781 440.457031 262.597656 457.453125 269.464844 472.695312 C 270.804688 456.617188 286.660156 444.078125 286.542969 427.933594 C 286.425781 412.625 272.039062 400.886719 269.433594 385.8125 C 267.980469 377.429688 269.851562 367.464844 263.753906 361.539062 C 260.8125 358.683594 256.585938 357.515625 253.460938 354.859375 C 246.375 348.847656 247.226562 337.980469 245.859375 328.796875 C 244.488281 319.617188 235.667969 309.199219 227.613281 313.839844 C 228.832031 304.640625 230.035156 295.105469 227.328125 286.242188 C 224.621094 277.375 216.835938 269.328125 207.546875 269.445312 C 209.5 269.429688 202.015625 257.34375 201.148438 256.507812 C 196.804688 252.382812 191.355469 250.898438 185.558594 250.496094 C 177.457031 249.929688 164.472656 253.070312 157.921875 258.109375 C 140.179688 271.765625 142.132812 305.339844 159.292969 318.429688 Z M 159.292969 318.429688 " fill-opacity="1" fill-rule="nonzero"/><path fill="#868e41" d="M 164.003906 310.984375 C 171.222656 316.476562 180.628906 319.515625 185.757812 326.996094 C 192.074219 336.160156 189.71875 348.414062 189.101562 359.515625 C 188.484375 370.636719 191.941406 384.34375 202.75 387.015625 C 205.84375 387.78125 209.199219 387.480469 212.140625 388.734375 C 224.304688 393.925781 215.617188 415.511719 225.65625 424.109375 C 230.070312 427.882812 236.5 427.652344 242.148438 429.035156 C 258.390625 433.011719 267.3125 450.003906 274.179688 465.25 C 275.515625 449.171875 291.371094 436.632812 291.253906 420.488281 C 291.136719 405.179688 276.75 393.441406 274.144531 378.367188 C 272.691406 369.984375 274.5625 360.019531 268.464844 354.089844 C 265.523438 351.238281 261.296875 350.066406 258.171875 347.414062 C 251.085938 341.402344 251.941406 330.535156 250.570312 321.351562 C 249.199219 312.167969 240.378906 301.75 232.324219 306.394531 C 233.542969 297.195312 234.746094 287.660156 232.039062 278.796875 C 229.332031 269.929688 221.546875 261.882812 212.257812 262 C 214.214844 261.984375 206.726562 249.894531 205.859375 249.0625 C 201.515625 244.9375 196.066406 243.453125 190.269531 243.050781 C 182.167969 242.484375 169.183594 245.621094 162.636719 250.664062 C 144.890625 264.320312 146.847656 297.910156 164.003906 310.984375 Z M 164.003906 310.984375 " fill-opacity="1" fill-rule="nonzero"/><path fill="#231f20" d="M 178.289062 279.078125 L 177.921875 277.558594 C 178.105469 277.511719 178.375 277.242188 178.574219 276.242188 C 179.511719 271.367188 180.5625 265.824219 179.175781 260.75 C 177.890625 256.105469 173.578125 251.515625 168.617188 251.882812 C 167.78125 251.949219 166.878906 252.417969 166.546875 252.96875 C 166.378906 253.234375 166.429688 253.4375 166.476562 253.570312 L 165.042969 254.1875 C 164.757812 253.519531 164.824219 252.800781 165.207031 252.167969 C 165.792969 251.199219 167.148438 250.445312 168.5 250.347656 C 174.496094 249.894531 179.242188 255.171875 180.679688 260.347656 C 182.183594 265.773438 181.082031 271.5 180.113281 276.542969 C 179.996094 277.074219 179.675781 278.746094 178.289062 279.078125 Z M 178.289062 279.078125 " fill-opacity="1" fill-rule="nonzero"/><path fill="#231f20" d="M 270.601562 466.265625 C 267.710938 459.972656 267.128906 452.945312 266.542969 446.132812 C 265.957031 439.121094 265.339844 431.859375 262.164062 425.628906 C 261.363281 424.078125 260.394531 422.558594 259.457031 421.074219 C 258.171875 419.050781 256.835938 416.980469 255.898438 414.710938 C 254.179688 410.589844 253.828125 406.097656 253.492188 401.757812 C 253.308594 399.453125 253.125 397.082031 252.742188 394.792969 C 251.523438 387.648438 248.128906 380.804688 243.167969 375.527344 C 241.347656 373.589844 239.292969 371.804688 237.285156 370.085938 C 235.164062 368.265625 232.992188 366.378906 231.054688 364.257812 C 223.820312 356.394531 220.410156 345.960938 217.105469 335.859375 C 213.761719 325.660156 210.304688 315.109375 202.917969 307.476562 C 200.730469 305.222656 198.191406 303.222656 195.734375 301.285156 C 193.828125 299.78125 191.839844 298.230469 190.019531 296.527344 C 184.839844 291.734375 182.015625 286.542969 181.816406 281.5 L 183.371094 281.449219 C 183.585938 287.292969 187.679688 292.253906 191.074219 295.390625 C 192.859375 297.042969 194.796875 298.578125 196.703125 300.066406 C 199.191406 302.035156 201.78125 304.054688 204.039062 306.394531 C 211.671875 314.289062 215.183594 325.007812 218.589844 335.375 C 221.847656 345.308594 225.207031 355.59375 232.207031 363.207031 C 234.078125 365.242188 236.234375 367.097656 238.304688 368.898438 C 240.328125 370.652344 242.433594 372.457031 244.304688 374.460938 C 249.46875 379.96875 253.007812 387.097656 254.277344 394.527344 C 254.679688 396.882812 254.863281 399.285156 255.046875 401.621094 C 255.398438 406.03125 255.714844 410.203125 257.335938 414.09375 C 258.222656 416.230469 259.523438 418.269531 260.777344 420.222656 C 261.730469 421.722656 262.734375 423.277344 263.550781 424.894531 C 266.859375 431.40625 267.496094 438.804688 268.097656 445.980469 C 268.664062 452.660156 269.234375 459.554688 272.007812 465.597656 Z M 270.601562 466.265625 " fill-opacity="1" fill-rule="nonzero"/><path fill="#faf5f5" d="M 172.441406 272.085938 C 172.476562 271.949219 172.492188 271.832031 172.511719 271.71875 C 172.542969 271.566406 172.578125 271.433594 172.59375 271.28125 C 172.742188 270.230469 172.726562 268.527344 171.625 267.960938 C 170.570312 267.410156 169.550781 268.128906 169 269.011719 C 168.984375 269.046875 168.96875 269.078125 168.949219 269.113281 C 167.230469 269.796875 165.910156 271.648438 165.207031 273.253906 C 164.972656 273.789062 164.789062 274.453125 164.742188 275.121094 C 164.070312 276.558594 163.671875 278.144531 164.457031 279.378906 C 165.808594 281.515625 168.332031 279.246094 169.402344 278.011719 C 170.605469 276.59375 171.691406 274.6875 172.257812 272.785156 C 172.277344 272.734375 172.277344 272.703125 172.292969 272.652344 C 172.34375 272.453125 172.394531 272.269531 172.441406 272.085938 Z M 172.441406 272.085938 " fill-opacity="1" fill-rule="nonzero"/><path fill="#faf5f5" d="M 197.453125 261.882812 C 195.835938 259.8125 192.257812 258.726562 189.835938 258.476562 C 188.699219 258.359375 187.445312 258.394531 186.660156 259.347656 C 185.777344 260.429688 186.144531 261.785156 186.960938 262.769531 C 188.765625 264.957031 191.789062 266.308594 194.582031 266.542969 C 195.96875 266.660156 197.4375 266.523438 198.273438 265.289062 C 199.125 264.003906 198.589844 262.71875 197.453125 261.882812 Z M 197.453125 261.882812 " fill-opacity="1" fill-rule="nonzero"/><path fill="#faf5f5" d="M 176.386719 286.226562 C 176.335938 285.472656 175.667969 284.707031 174.714844 284.972656 C 172.859375 285.472656 171.539062 287.210938 171.40625 289.113281 C 171.339844 290.046875 171.558594 291.132812 172.292969 291.800781 C 173.277344 292.6875 174.53125 292.167969 175.316406 291.300781 C 176.335938 290.183594 177.523438 287.628906 176.386719 286.226562 Z M 176.386719 286.226562 " fill-opacity="1" fill-rule="nonzero"/><path fill="#faf5f5" d="M 266.507812 233.199219 C 266.460938 232.449219 265.789062 231.683594 264.839844 231.949219 C 262.984375 232.449219 261.664062 234.1875 261.53125 236.089844 C 261.464844 237.023438 261.679688 238.109375 262.414062 238.777344 C 263.402344 239.660156 264.65625 239.144531 265.441406 238.277344 C 266.441406 237.15625 267.628906 234.601562 266.507812 233.199219 Z M 266.507812 233.199219 " fill-opacity="1" fill-rule="nonzero"/><path fill="#faf5f5" d="M 194.914062 274.636719 C 193.710938 274.054688 191.722656 273.285156 190.453125 274.039062 C 190.035156 274.289062 189.769531 274.671875 189.636719 275.105469 C 189.386719 275.605469 189.453125 276.140625 189.820312 276.558594 C 190.035156 276.910156 190.335938 277.175781 190.6875 277.394531 C 190.6875 277.410156 190.6875 277.425781 190.703125 277.445312 L 190.738281 277.511719 C 190.9375 277.859375 191.472656 278.144531 191.875 278.0625 C 192.089844 278.027344 192.277344 277.960938 192.441406 277.878906 C 193.175781 278.09375 193.914062 278.226562 194.632812 278.195312 C 195.515625 278.160156 196.203125 277.542969 196.285156 276.640625 C 196.386719 275.707031 195.71875 275.023438 194.914062 274.636719 Z M 194.914062 274.636719 " fill-opacity="1" fill-rule="nonzero"/><path fill="#faf5f5" d="M 216.351562 292.585938 C 215.25 290.851562 211.972656 290 210.070312 289.78125 C 208.648438 289.613281 204.421875 289.429688 205.574219 292.101562 C 205.660156 292.300781 205.777344 292.453125 205.910156 292.570312 C 206.863281 294.839844 209.25 295.242188 211.472656 295.339844 C 211.625 295.339844 211.808594 295.359375 212.039062 295.359375 C 212.757812 295.457031 213.460938 295.441406 214.027344 295.257812 C 215.785156 295.023438 217.503906 294.371094 216.351562 292.585938 Z M 216.351562 292.585938 " fill-opacity="1" fill-rule="nonzero"/><path fill="#faf5f5" d="M 188.230469 301.519531 C 187.210938 300.785156 185.976562 301.402344 185.15625 302.152344 C 185.058594 302.234375 184.957031 302.351562 184.855469 302.453125 C 184.472656 302.71875 184.136719 303.019531 183.921875 303.269531 C 182.652344 304.707031 182.035156 306.609375 182.101562 308.511719 C 182.117188 309.148438 182.785156 309.847656 183.46875 309.714844 C 184.054688 309.597656 184.589844 309.398438 185.074219 309.148438 C 185.660156 309.214844 186.277344 308.996094 186.695312 308.480469 C 186.960938 308.164062 187.128906 307.761719 187.246094 307.328125 C 187.914062 306.476562 188.414062 305.457031 188.785156 304.355469 C 189.117188 303.386719 189.167969 302.1875 188.230469 301.519531 Z M 188.230469 301.519531 " fill-opacity="1" fill-rule="nonzero"/><path fill="#faf5f5" d="M 315.597656 301.953125 C 314.578125 301.21875 313.34375 301.835938 312.523438 302.585938 C 312.421875 302.671875 312.324219 302.785156 312.222656 302.886719 C 311.839844 303.152344 311.503906 303.453125 311.285156 303.703125 C 310.015625 305.140625 309.398438 307.027344 309.464844 308.949219 C 309.480469 309.582031 310.152344 310.28125 310.835938 310.148438 C 311.421875 310.03125 311.953125 309.832031 312.441406 309.582031 C 313.023438 309.648438 313.640625 309.429688 314.058594 308.914062 C 314.328125 308.597656 314.496094 308.195312 314.613281 307.761719 C 315.28125 306.910156 315.78125 305.890625 316.148438 304.789062 C 316.484375 303.820312 316.53125 302.621094 315.597656 301.953125 Z M 315.597656 301.953125 " fill-opacity="1" fill-rule="nonzero"/><path fill="#faf5f5" d="M 200.160156 317.863281 C 199.910156 318.078125 199.675781 318.3125 199.441406 318.546875 C 196.320312 320.25 194.0625 330.25 194.765625 332.453125 C 195.867188 335.960938 199.175781 333.773438 200.730469 331.921875 C 202.902344 329.300781 204.253906 325.160156 204.371094 321.785156 C 204.4375 319.53125 202.902344 315.574219 200.160156 317.863281 Z M 200.160156 317.863281 " fill-opacity="1" fill-rule="nonzero"/><path fill="#faf5f5" d="M 287.226562 263.535156 C 286.976562 263.753906 286.742188 263.988281 286.507812 264.222656 C 283.382812 265.921875 281.128906 275.925781 281.832031 278.128906 C 282.933594 281.632812 286.242188 279.445312 287.796875 277.59375 C 289.96875 274.972656 291.320312 270.832031 291.4375 267.460938 C 291.519531 265.207031 289.96875 261.25 287.226562 263.535156 Z M 287.226562 263.535156 " fill-opacity="1" fill-rule="nonzero"/><path fill="#faf5f5" d="M 210.972656 339.464844 C 210.820312 338.796875 210.203125 338.214844 209.351562 338.480469 C 207.578125 339.050781 206.644531 340.667969 206.007812 342.320312 C 205.523438 343.589844 204.65625 345.625 205.476562 346.929688 C 206.425781 348.449219 208.199219 347.582031 209.101562 346.527344 C 209.566406 345.976562 209.96875 345.375 210.335938 344.742188 C 210.753906 344.523438 210.953125 344.074219 210.921875 343.605469 C 211.140625 343.140625 211.339844 342.65625 211.507812 342.152344 C 211.839844 341.152344 211.691406 340.015625 210.972656 339.464844 Z M 210.972656 339.464844 " fill-opacity="1" fill-rule="nonzero"/><path fill="#faf5f5" d="M 308.445312 288.160156 C 308.296875 287.492188 307.679688 286.910156 306.824219 287.175781 C 305.054688 287.746094 304.117188 289.363281 303.484375 291.015625 C 303 292.285156 302.128906 294.324219 302.949219 295.625 C 303.902344 297.144531 305.671875 296.277344 306.574219 295.222656 C 307.042969 294.671875 307.445312 294.070312 307.8125 293.4375 C 308.230469 293.21875 308.429688 292.769531 308.394531 292.300781 C 308.613281 291.835938 308.8125 291.351562 308.980469 290.851562 C 309.316406 289.847656 309.164062 288.730469 308.445312 288.160156 Z M 308.445312 288.160156 " fill-opacity="1" fill-rule="nonzero"/><path fill="#faf5f5" d="M 227.5625 334.039062 C 226.308594 333.238281 222.25 331.46875 221.933594 334.15625 C 221.898438 334.375 221.933594 334.574219 221.964844 334.757812 C 221.882812 335.023438 221.867188 335.308594 221.980469 335.542969 C 222.5 336.628906 223.886719 337.113281 224.921875 337.628906 C 225.957031 338.128906 227.261719 338.949219 228.449219 338.867188 C 229.652344 338.78125 230.417969 337.628906 230.003906 336.496094 C 229.632812 335.441406 228.464844 334.609375 227.5625 334.039062 Z M 227.5625 334.039062 " fill-opacity="1" fill-rule="nonzero"/><path fill="#faf5f5" d="M 303.382812 257.425781 C 302.128906 256.625 298.070312 254.855469 297.753906 257.542969 C 297.71875 257.757812 297.753906 257.960938 297.785156 258.144531 C 297.703125 258.410156 297.6875 258.695312 297.804688 258.929688 C 298.320312 260.011719 299.707031 260.496094 300.742188 261.015625 C 301.78125 261.515625 303.082031 262.335938 304.269531 262.25 C 305.472656 262.167969 306.242188 261.015625 305.824219 259.878906 C 305.4375 258.828125 304.285156 257.992188 303.382812 257.425781 Z M 303.382812 257.425781 " fill-opacity="1" fill-rule="nonzero"/><path fill="#faf5f5" d="M 218.207031 357.765625 C 217.820312 355.726562 215.917969 356.730469 215.148438 357.429688 C 213.160156 359.199219 211.371094 361.371094 210.386719 364.242188 C 209.769531 366.0625 208.832031 369.917969 210.421875 371.90625 C 212.007812 373.910156 213.644531 372.003906 214.648438 370.804688 C 216.453125 368.648438 218.574219 366.027344 219.390625 362.921875 C 219.828125 361.269531 219.777344 358.632812 218.207031 357.765625 Z M 218.207031 357.765625 " fill-opacity="1" fill-rule="nonzero"/><path fill="#faf5f5" d="M 249.96875 363.859375 C 247.710938 362.671875 244.921875 362.003906 242.515625 363.089844 C 242.015625 363.308594 241.796875 363.722656 241.746094 364.160156 C 241.445312 364.726562 241.546875 365.460938 242.316406 366.113281 C 242.765625 366.496094 243.269531 366.828125 243.820312 367.128906 C 244.222656 367.429688 244.65625 367.699219 245.074219 367.980469 C 245.859375 368.734375 246.792969 369.316406 247.828125 369.71875 C 248.128906 369.902344 248.429688 370.085938 248.75 370.269531 C 249.148438 370.503906 249.535156 370.46875 249.835938 370.300781 C 251.320312 370.585938 253.042969 370.519531 253.511719 368.933594 C 254.144531 366.746094 251.605469 364.710938 249.96875 363.859375 Z M 249.96875 363.859375 " fill-opacity="1" fill-rule="nonzero"/><path fill="#faf5f5" d="M 330.316406 304.773438 C 328.0625 303.589844 325.269531 302.921875 322.867188 304.003906 C 322.363281 304.222656 322.148438 304.640625 322.097656 305.074219 C 321.796875 305.640625 321.894531 306.375 322.664062 307.027344 C 323.117188 307.410156 323.617188 307.746094 324.167969 308.046875 C 324.570312 308.347656 325.003906 308.613281 325.421875 308.898438 C 326.207031 309.648438 327.144531 310.234375 328.179688 310.632812 C 328.480469 310.816406 328.78125 311 329.097656 311.183594 C 329.5 311.417969 329.882812 311.386719 330.183594 311.21875 C 331.671875 311.5 333.390625 311.433594 333.859375 309.847656 C 334.511719 307.660156 331.972656 305.625 330.316406 304.773438 Z M 330.316406 304.773438 " fill-opacity="1" fill-rule="nonzero"/><path fill="#faf5f5" d="M 319.925781 273.605469 C 317.667969 272.417969 314.878906 271.75 312.472656 272.835938 C 311.972656 273.050781 311.753906 273.46875 311.703125 273.902344 C 311.402344 274.472656 311.503906 275.207031 312.273438 275.855469 C 312.722656 276.242188 313.226562 276.574219 313.777344 276.875 C 314.175781 277.175781 314.613281 277.445312 315.03125 277.726562 C 315.816406 278.480469 316.75 279.0625 317.785156 279.464844 C 318.085938 279.648438 318.386719 279.832031 318.707031 280.015625 C 319.105469 280.25 319.492188 280.214844 319.792969 280.046875 C 321.277344 280.332031 323 280.265625 323.46875 278.679688 C 324.101562 276.492188 321.5625 274.453125 319.925781 273.605469 Z M 319.925781 273.605469 " fill-opacity="1" fill-rule="nonzero"/><path fill="#faf5f5" d="M 240.59375 385.128906 C 240.292969 384.710938 239.976562 384.394531 239.644531 384.144531 C 239.609375 383.492188 239.15625 382.90625 238.339844 383.007812 C 235.449219 383.375 234.179688 386.414062 233.292969 388.882812 C 232.257812 391.773438 231.605469 395.34375 232.308594 398.402344 C 232.808594 400.570312 234.679688 401.972656 236.800781 400.671875 C 239.125 399.25 240.277344 396.128906 240.960938 393.640625 C 241.679688 390.9375 242.332031 387.617188 240.59375 385.128906 Z M 240.59375 385.128906 " fill-opacity="1" fill-rule="nonzero"/><path fill="#faf5f5" d="M 246.761719 404.976562 C 246.125 405.113281 245.574219 405.363281 245.074219 405.695312 C 241.933594 407.316406 238.90625 411.605469 240.378906 414.175781 C 243.019531 418.769531 249.667969 411.238281 250.285156 408.402344 C 250.785156 406.0625 249.148438 404.476562 246.761719 404.976562 Z M 246.761719 404.976562 " fill-opacity="1" fill-rule="nonzero"/><path fill="#faf5f5" d="M 272.675781 410.203125 C 271.152344 408.050781 268.496094 406.246094 266.089844 405.246094 C 264.789062 404.710938 263.5 405.144531 262.882812 406.128906 C 262.550781 406.195312 262.230469 406.378906 262.015625 406.75 C 260.695312 408.851562 264.371094 411.390625 265.722656 412.425781 C 267.3125 413.644531 270.152344 416.0625 272.339844 415.363281 C 274.78125 414.5625 273.742188 411.722656 272.675781 410.203125 Z M 272.675781 410.203125 " fill-opacity="1" fill-rule="nonzero"/><path fill="#faf5f5" d="M 256.316406 422.691406 C 256.417969 421.824219 255.714844 420.890625 254.695312 421.324219 C 251.605469 422.640625 251.957031 427.667969 253.09375 430.238281 C 253.628906 431.421875 254.664062 432.441406 256.066406 432.160156 C 257.722656 431.808594 258.136719 429.738281 258.238281 428.320312 C 258.371094 426.800781 257.804688 423.742188 256.316406 422.691406 Z M 256.316406 422.691406 " fill-opacity="1" fill-rule="nonzero"/><path fill="#faf5f5" d="M 272.839844 424.664062 C 272.074219 424.546875 271.503906 424.710938 271.105469 425.046875 C 270.621094 424.746094 270.117188 424.695312 269.617188 424.996094 C 269.550781 425.046875 269.464844 425.078125 269.398438 425.128906 C 269.050781 425.347656 268.78125 425.863281 268.847656 426.265625 C 269.117188 428.21875 270.621094 430.1875 272.238281 431.824219 C 273.59375 433.542969 275.449219 434.996094 277.269531 435.816406 C 277.636719 435.980469 278.003906 436.046875 278.371094 436.066406 C 279.640625 436.398438 280.929688 436.316406 281.949219 435.332031 C 286.125 431.257812 276.03125 425.164062 272.839844 424.664062 Z M 272.839844 424.664062 " fill-opacity="1" fill-rule="nonzero"/><path fill="#faf5f5" d="M 268.113281 385.0625 C 267.945312 384.644531 267.660156 384.257812 267.328125 383.925781 C 267.160156 383.691406 266.976562 383.457031 266.777344 383.222656 C 266.691406 383.109375 266.644531 382.972656 266.542969 382.855469 C 265.40625 381.539062 263.453125 380.71875 261.53125 380.371094 C 260.746094 380.167969 259.960938 380.101562 259.191406 380.1875 C 259.074219 380.1875 258.941406 380.1875 258.824219 380.203125 C 257.769531 380.285156 256.886719 380.785156 256.382812 381.503906 C 255.933594 381.839844 255.566406 382.289062 255.382812 382.90625 C 255.046875 383.960938 255.480469 384.976562 256.21875 385.878906 C 257.402344 388.199219 259.859375 389.800781 262.433594 390.121094 C 264.6875 390.402344 268.113281 389.550781 268.53125 386.898438 C 268.597656 386.214844 268.429688 385.613281 268.113281 385.0625 Z M 268.113281 385.0625 " fill-opacity="1" fill-rule="nonzero"/><path fill="#faf5f5" d="M 245.375 348.5 C 245.375 348.148438 245.324219 347.78125 245.222656 347.378906 C 244.253906 343.855469 238.742188 342.289062 235.53125 342.820312 C 234.164062 343.054688 233.09375 343.773438 232.441406 344.726562 C 231.640625 345.007812 231.070312 345.527344 230.886719 346.378906 C 230.652344 346.730469 230.503906 347.144531 230.488281 347.679688 C 230.453125 348.347656 230.636719 348.984375 230.953125 349.566406 C 231.089844 350.519531 231.992188 351.238281 233.144531 351.769531 C 234.914062 352.871094 237.203125 353.390625 238.941406 353.023438 C 241.078125 352.988281 243.636719 352.238281 244.773438 350.570312 C 245.421875 349.851562 245.558594 349.148438 245.375 348.5 Z M 245.375 348.5 " fill-opacity="1" fill-rule="nonzero"/><path fill="#faf5f5" d="M 305.15625 246.558594 C 305.15625 246.207031 305.105469 245.839844 305.003906 245.4375 C 304.035156 241.914062 298.523438 240.347656 295.3125 240.878906 C 293.945312 241.113281 292.875 241.832031 292.222656 242.785156 C 291.421875 243.066406 290.851562 243.585938 290.667969 244.4375 C 290.433594 244.789062 290.285156 245.203125 290.269531 245.738281 C 290.234375 246.40625 290.417969 247.042969 290.734375 247.625 C 290.871094 248.578125 291.773438 249.296875 292.925781 249.828125 C 294.695312 250.929688 296.984375 251.449219 298.722656 251.082031 C 300.859375 251.046875 303.417969 250.296875 304.554688 248.628906 C 305.203125 247.910156 305.339844 247.207031 305.15625 246.558594 Z M 305.15625 246.558594 " fill-opacity="1" fill-rule="nonzero"/><path fill="#faf5f5" d="M 227.945312 311.335938 C 225.574219 309.296875 221.867188 308.78125 218.992188 310 C 216.835938 310.902344 216.132812 312.9375 216.886719 314.675781 C 216.886719 314.789062 216.902344 314.890625 216.917969 315.007812 C 216.667969 315.609375 216.902344 316.425781 217.539062 316.710938 C 217.589844 316.726562 217.636719 316.742188 217.671875 316.777344 C 218.757812 318.261719 220.746094 319.332031 222.316406 319.632812 C 222.902344 319.816406 223.503906 319.917969 224.085938 319.917969 C 225.84375 320.101562 227.578125 319.699219 228.648438 318.296875 C 231.039062 316.527344 229.933594 313.039062 227.945312 311.335938 Z M 227.945312 311.335938 " fill-opacity="1" fill-rule="nonzero"/><path fill="#7e7e7e" d="M 48.371094 537.875 C 48.578125 545.089844 49.488281 555.035156 56.921875 558.445312 C 64.351562 555.035156 65.246094 545.089844 65.449219 537.875 Z M 305.054688 537.875 C 305.257812 545.089844 306.171875 555.035156 313.601562 558.445312 C 321.035156 555.035156 321.929688 545.089844 322.132812 537.875 Z M 305.054688 537.875 " fill-opacity="1" fill-rule="evenodd"/><g clip-path="url(#e09c0a3e42)"><path fill="#e19a61" d="M 20.632812 510.878906 L 349.878906 510.878906 L 349.878906 539.421875 L 20.632812 539.421875 Z M 20.632812 510.878906 " fill-opacity="1" fill-rule="evenodd"/><path fill="#b7601b" d="M 20.632812 530.453125 L 20.632812 531.199219 C 22.148438 531.296875 23.675781 531.464844 25.203125 531.671875 C 28.015625 532.050781 30.835938 532.574219 33.648438 533.078125 C 36.507812 533.589844 39.359375 534.066406 42.167969 534.40625 C 44.441406 534.640625 47.367188 534.351562 49.96875 534.539062 C 51.074219 534.621094 52.121094 534.78125 53.019531 535.144531 C 54.78125 535.855469 55.382812 537.476562 55.355469 539.273438 C 55.355469 539.320312 55.351562 539.371094 55.351562 539.421875 L 56.402344 539.421875 C 56.40625 539.382812 56.40625 539.347656 56.410156 539.3125 C 56.542969 537.011719 55.738281 534.960938 53.519531 533.96875 C 52.515625 533.519531 51.335938 533.277344 50.082031 533.160156 C 47.5 532.910156 44.585938 533.1875 42.332031 532.921875 C 39.539062 532.644531 36.707031 532.199219 33.859375 531.78125 C 31.015625 531.363281 28.15625 530.964844 25.3125 530.707031 C 23.742188 530.570312 22.183594 530.476562 20.632812 530.453125 Z M 20.632812 523.390625 L 20.632812 524.140625 C 21.648438 524.589844 22.699219 524.992188 23.769531 525.351562 C 26.832031 526.386719 30.058594 527.085938 33.085938 527.617188 C 34.894531 527.933594 36.738281 528.078125 38.585938 528.105469 C 40.421875 528.132812 42.261719 528.046875 44.078125 527.90625 C 46.03125 527.75 47.957031 527.496094 49.890625 527.410156 C 51.144531 527.359375 52.398438 527.375 53.667969 527.542969 C 58.277344 528.144531 62.65625 529.417969 67.183594 530.09375 C 69.144531 530.382812 71.136719 530.558594 73.179688 530.535156 C 74.457031 530.515625 77.820312 529.917969 80.332031 530.132812 C 81.367188 530.21875 82.261719 530.386719 82.640625 530.953125 C 82.882812 531.308594 82.800781 531.804688 82.648438 532.3125 C 82.367188 533.25 81.765625 534.210938 81.378906 534.714844 C 80.421875 535.964844 79.167969 536.949219 77.792969 537.796875 C 76.824219 538.394531 75.796875 538.921875 74.765625 539.421875 L 77.125 539.421875 C 77.542969 539.207031 77.957031 538.980469 78.363281 538.746094 C 79.878906 537.855469 81.257812 536.800781 82.328125 535.460938 C 82.789062 534.882812 83.507812 533.769531 83.855469 532.6875 C 84.144531 531.777344 84.144531 530.886719 83.722656 530.234375 C 83.179688 529.402344 81.964844 528.933594 80.457031 528.78125 C 77.902344 528.527344 74.46875 529.082031 73.167969 529.082031 C 71.203125 529.089844 69.292969 528.898438 67.402344 528.617188 C 62.863281 527.941406 58.464844 526.71875 53.84375 526.148438 C 52.492188 525.984375 51.15625 525.984375 49.820312 526.0625 C 47.875 526.179688 45.933594 526.46875 43.96875 526.660156 C 42.191406 526.835938 40.390625 526.953125 38.589844 526.964844 C 36.800781 526.976562 35.007812 526.882812 33.246094 526.617188 C 30.25 526.164062 27.054688 525.550781 24.007812 524.609375 C 22.855469 524.253906 21.722656 523.851562 20.632812 523.390625 Z M 20.632812 515.675781 L 20.632812 516.378906 C 25.105469 517.667969 29.707031 518.46875 34.363281 518.972656 C 43.292969 519.945312 52.421875 519.851562 61.234375 520.183594 C 65.070312 520.324219 68.9375 520.652344 72.8125 521.058594 C 78.625 521.667969 84.449219 522.457031 90.171875 523.121094 C 92.878906 523.425781 95.589844 523.804688 98.28125 524.289062 C 100.964844 524.769531 103.632812 525.355469 106.253906 526.089844 C 106.613281 526.1875 107.796875 526.445312 108.878906 526.835938 C 109.386719 527.019531 109.871094 527.226562 110.210938 527.46875 C 110.304688 527.535156 110.417969 527.660156 110.453125 527.699219 C 109.832031 530.261719 107.476562 531.957031 104.453125 533.289062 C 98.492188 535.914062 89.945312 537.066406 85.261719 539.421875 L 87.859375 539.421875 C 92.710938 537.703125 99.796875 536.65625 104.960938 534.460938 C 108.457031 532.96875 111.078125 530.929688 111.800781 527.972656 C 111.941406 527.402344 111.675781 526.820312 111.019531 526.34375 C 109.851562 525.492188 107.222656 524.886719 106.640625 524.71875 C 103.976562 523.957031 101.273438 523.335938 98.546875 522.835938 C 95.824219 522.332031 93.082031 521.949219 90.339844 521.632812 C 84.609375 520.996094 78.777344 520.222656 72.953125 519.65625 C 69.042969 519.277344 65.140625 518.996094 61.273438 518.894531 C 52.480469 518.6875 43.378906 518.898438 34.453125 518.066406 C 29.773438 517.628906 25.140625 516.90625 20.632812 515.675781 Z M 110.855469 539.421875 L 111.871094 539.421875 C 113.460938 537.847656 115.101562 536.304688 116.699219 534.679688 C 118.933594 532.410156 120.96875 530.070312 123.382812 528.207031 C 124.945312 527.003906 126.667969 526 128.71875 525.347656 C 130.65625 524.730469 132.65625 524.378906 134.679688 524.167969 C 137.746094 523.847656 140.867188 523.847656 143.90625 523.753906 C 150 523.558594 156.109375 523.539062 162.210938 523.382812 C 164.835938 523.316406 167.457031 523.222656 170.070312 523.078125 C 173.347656 522.898438 176.625 522.753906 179.898438 522.628906 C 193.027344 522.125 206.144531 521.953125 219.273438 521.308594 C 223.589844 521.085938 227.847656 520.242188 232.136719 519.75 C 233.941406 519.542969 235.75 519.398438 237.570312 519.390625 C 240.347656 519.382812 243.121094 519.480469 245.898438 519.628906 C 257.027344 520.238281 268.175781 521.808594 279.316406 521.988281 C 294.183594 522.210938 309.207031 521.960938 324.042969 523.203125 C 332.742188 523.933594 341.375 525.171875 349.875 527.324219 L 349.875 526.617188 C 341.40625 524.398438 332.800781 523.082031 324.125 522.28125 C 309.277344 520.914062 294.226562 521.050781 279.34375 520.710938 C 268.21875 520.472656 257.089844 518.820312 245.980469 518.171875 C 243.175781 518.007812 240.371094 517.910156 237.570312 517.910156 C 235.691406 517.914062 233.824219 518.054688 231.96875 518.269531 C 227.707031 518.753906 223.480469 519.601562 219.199219 519.820312 C 207.71875 520.429688 196.246094 520.664062 184.769531 521.097656 C 179.84375 521.285156 174.921875 521.511719 170 521.816406 C 167.394531 521.976562 164.785156 522.085938 162.175781 522.171875 C 156.074219 522.375 149.960938 522.445312 143.867188 522.6875 C 140.804688 522.8125 137.660156 522.839844 134.574219 523.1875 C 132.488281 523.425781 130.425781 523.808594 128.4375 524.460938 C 126.28125 525.164062 124.476562 526.230469 122.847656 527.511719 C 120.414062 529.421875 118.378906 531.808594 116.136719 534.125 C 114.382812 535.941406 112.582031 537.65625 110.855469 539.421875 Z M 145.789062 539.421875 L 147.222656 539.421875 C 148.285156 538.78125 149.375 538.191406 150.507812 537.675781 C 157.332031 534.566406 164.546875 533.136719 171.902344 532.484375 C 182.976562 531.5 194.375 532.285156 205.273438 531.871094 C 218.972656 531.320312 232.660156 531.925781 246.359375 531.835938 C 249.792969 531.816406 253.222656 531.742188 256.65625 531.605469 C 268.453125 531.109375 280.269531 529.707031 292.09375 529.097656 C 297.148438 528.835938 302.203125 528.714844 307.257812 528.882812 C 318.949219 529.261719 330.191406 531.777344 341.625 533.167969 C 344.363281 533.5 347.109375 533.765625 349.875 533.925781 L 349.875 533.238281 C 348.792969 533.164062 347.710938 533.070312 346.636719 532.964844 C 333.46875 531.671875 320.691406 528.320312 307.300781 527.746094 C 302.214844 527.535156 297.125 527.605469 292.035156 527.832031 C 280.210938 528.355469 268.390625 529.707031 256.601562 530.128906 C 242.898438 530.675781 229.207031 530.109375 215.515625 530.261719 C 212.082031 530.296875 208.648438 530.386719 205.21875 530.542969 C 194.304688 531.050781 182.882812 530.355469 171.804688 531.441406 C 164.351562 532.171875 157.054688 533.710938 150.167969 536.933594 C 148.640625 537.648438 147.1875 538.492188 145.789062 539.421875 Z M 204.636719 539.421875 L 208.726562 539.421875 C 212.730469 538.589844 216.890625 538.128906 220.980469 537.703125 C 226.757812 537.082031 232.441406 536.820312 238.101562 536.699219 C 246.660156 536.519531 255.171875 536.6875 263.898438 536.675781 C 275.113281 536.585938 286.773438 536.164062 297.546875 538.613281 C 298.605469 538.851562 299.660156 539.121094 300.699219 539.421875 L 303.804688 539.421875 C 301.839844 538.695312 299.828125 538.09375 297.78125 537.597656 C 286.960938 534.972656 275.199219 535.265625 263.894531 535.21875 C 255.160156 535.242188 246.632812 535.042969 238.066406 535.277344 C 232.367188 535.433594 226.652344 535.792969 220.84375 536.480469 C 215.382812 537.136719 209.792969 537.855469 204.636719 539.421875 Z M 200.488281 510.878906 L 198.546875 510.878906 C 197.933594 511.136719 197.320312 511.386719 196.699219 511.625 C 195 512.273438 193.269531 512.816406 191.46875 513.171875 C 187.792969 513.894531 183.976562 514.253906 180.101562 514.425781 C 171.140625 514.824219 161.859375 514.199219 153.222656 514.566406 C 147.464844 514.820312 141.671875 515.847656 135.886719 516.257812 C 133.433594 516.429688 130.984375 516.492188 128.535156 516.328125 C 126.292969 516.179688 124.058594 515.9375 121.828125 515.652344 C 112.839844 514.503906 103.941406 512.53125 94.910156 511.847656 C 92.171875 511.648438 89.433594 511.675781 86.695312 511.820312 C 80.394531 512.148438 74.105469 513.082031 67.78125 513.066406 C 63.554688 513.058594 59.261719 512.691406 54.976562 512.117188 C 52.390625 511.769531 49.804688 511.34375 47.238281 510.878906 L 43.371094 510.878906 C 47.15625 511.683594 51 512.425781 54.851562 512.992188 C 59.171875 513.632812 63.503906 514.054688 67.773438 514.117188 C 74.113281 514.207031 80.433594 513.355469 86.757812 513.089844 C 89.441406 512.976562 92.121094 512.96875 94.808594 513.1875 C 103.8125 513.917969 112.671875 515.964844 121.636719 517.136719 C 123.898438 517.429688 126.164062 517.664062 128.4375 517.8125 C 130.953125 517.976562 133.472656 517.910156 135.992188 517.722656 C 141.765625 517.285156 147.539062 516.203125 153.289062 515.90625 C 161.914062 515.449219 171.199219 515.980469 180.15625 515.476562 C 184.078125 515.257812 187.9375 514.839844 191.648438 514.058594 C 193.492188 513.667969 195.265625 513.089844 196.996094 512.402344 C 198.175781 511.933594 199.335938 511.414062 200.488281 510.878906 Z M 267.933594 510.878906 L 264.890625 510.878906 C 273.480469 513.644531 282.25 515.414062 291.140625 516.386719 C 295.957031 516.914062 300.8125 517.210938 305.6875 517.296875 C 312.925781 517.421875 320.207031 517.074219 327.503906 516.492188 C 330.449219 516.246094 333.429688 516.441406 336.390625 516.359375 C 337.683594 516.324219 338.976562 516.234375 340.257812 516.035156 C 341.539062 515.835938 342.804688 515.546875 344.066406 515.207031 C 346.011719 514.683594 347.9375 514.046875 349.875 513.484375 L 349.875 512.738281 C 347.863281 513.261719 345.867188 513.871094 343.851562 514.363281 C 342.617188 514.664062 341.375 514.921875 340.125 515.085938 C 338.878906 515.246094 337.625 515.300781 336.371094 515.308594 C 333.386719 515.328125 330.386719 515.074219 327.414062 515.261719 C 320.152344 515.753906 312.910156 515.941406 305.714844 515.796875 C 300.878906 515.703125 296.066406 515.457031 291.28125 515.003906 C 283.410156 514.257812 275.613281 512.953125 267.933594 510.878906 Z M 267.933594 510.878906 " fill-opacity="1" fill-rule="evenodd"/></g></svg>