<svg xmlns="http://www.w3.org/2000/svg" xmlns:xlink="http://www.w3.org/1999/xlink" width="500" zoomAndPan="magnify" viewBox="0 0 375 562.499983" height="750" preserveAspectRatio="xMidYMid meet" version="1.0"><defs><clipPath id="2b2e45c73e"><path d="M 107 387 L 272 387 L 272 524.179688 L 107 524.179688 Z M 107 387 " clip-rule="nonzero"/></clipPath><clipPath id="cc141badf7"><path d="M 186 387 L 192 387 L 192 524.179688 L 186 524.179688 Z M 186 387 " clip-rule="nonzero"/></clipPath><clipPath id="cc75e23969"><path d="M 153 387 L 159 387 L 159 524.179688 L 153 524.179688 Z M 153 387 " clip-rule="nonzero"/></clipPath><clipPath id="56f8c723fc"><path d="M 219 387 L 225 387 L 225 524.179688 L 219 524.179688 Z M 219 387 " clip-rule="nonzero"/></clipPath><clipPath id="f80706417c"><path d="M 20 512.042969 L 350 512.042969 L 350 540 L 20 540 Z M 20 512.042969 " clip-rule="nonzero"/></clipPath></defs><path fill="#4e7f6c" d="M 326.722656 244.769531 C 331.148438 243.433594 335.882812 243.472656 340.460938 243.332031 C 342.5 243.277344 344.519531 243.066406 346.527344 242.695312 C 347.347656 233.226562 347.328125 222.292969 339.917969 216.484375 C 333.90625 211.773438 325.382812 212.476562 317.875 213.847656 C 315.226562 214.335938 312.59375 214.878906 309.96875 215.476562 C 310.035156 216.59375 310.007812 217.710938 309.894531 218.828125 C 309.808594 220.019531 309.628906 221.199219 309.355469 222.363281 C 309.035156 223.570312 308.5625 224.726562 308.246094 225.933594 C 307.996094 226.875 307.832031 227.84375 307.597656 228.792969 C 307.535156 229.054688 307.480469 229.320312 307.425781 229.585938 C 307.644531 230.691406 307.394531 231.898438 306.507812 232.609375 C 305.535156 233.386719 304.347656 233.972656 303.0625 233.558594 C 302.484375 233.382812 301.976562 233.085938 301.546875 232.65625 C 301.117188 232.230469 300.8125 231.726562 300.636719 231.148438 C 300.332031 230.097656 300.566406 229.003906 300.785156 227.964844 C 301.195312 225.941406 301.710938 223.945312 302.335938 221.980469 C 302.546875 221.328125 302.757812 220.671875 302.90625 220.003906 C 302.945312 219.816406 302.984375 219.574219 302.996094 219.519531 C 303.007812 219.460938 303.015625 219.355469 303.023438 219.273438 C 303.09375 218.574219 303.152344 217.871094 303.171875 217.167969 C 296.101562 219.050781 289.164062 221.328125 282.355469 223.996094 C 282.214844 225.46875 282.074219 226.945312 281.980469 228.421875 C 281.878906 230.003906 281.773438 231.625 281.34375 233.152344 C 280.941406 234.464844 280.394531 235.707031 279.695312 236.886719 C 279.320312 237.550781 278.882812 238.195312 278.53125 238.875 C 278.460938 239.011719 278.402344 239.164062 278.339844 239.308594 L 278.3125 239.363281 C 278.3125 239.378906 278.300781 239.394531 278.292969 239.414062 C 278.164062 239.742188 278.035156 240.074219 277.914062 240.40625 C 277.597656 241.269531 277.339844 242.152344 277.144531 243.050781 C 277.121094 243.164062 277.042969 243.75 277.035156 243.71875 C 277.003906 244.082031 276.996094 244.445312 277.007812 244.8125 C 277.007812 244.984375 277.132812 245.351562 277.082031 245.25 C 277.113281 245.378906 277.140625 245.507812 277.171875 245.632812 C 277.296875 246.140625 277.433594 246.644531 277.574219 247.148438 C 277.890625 248.265625 278.265625 249.355469 278.648438 250.453125 L 278.667969 250.503906 C 278.699219 250.570312 278.726562 250.640625 278.757812 250.703125 C 278.839844 250.875 278.929688 251.050781 279.023438 251.222656 C 279.886719 251.800781 280.433594 252.726562 280.488281 253.960938 C 280.566406 255.667969 278.851562 257.578125 277.066406 257.378906 C 273.332031 256.972656 272.203125 253.039062 271.265625 249.945312 C 270.949219 248.902344 270.640625 247.84375 270.414062 246.777344 C 269.992188 244.816406 270.175781 242.816406 270.628906 240.875 C 271.074219 238.976562 271.742188 237.160156 272.625 235.421875 C 272.992188 234.699219 273.460938 234.023438 273.855469 233.3125 C 274.007812 233.042969 274.15625 232.773438 274.296875 232.5 C 274.410156 232.273438 274.714844 231.347656 274.445312 232.222656 C 274.617188 231.644531 274.808594 231.085938 274.945312 230.492188 C 274.945312 230.460938 274.953125 230.425781 274.960938 230.394531 C 274.933594 230.511719 274.917969 230.527344 275.011719 230.117188 C 275.042969 229.738281 275.082031 229.359375 275.105469 228.980469 C 275.148438 228.292969 275.203125 227.613281 275.257812 226.933594 C 262.335938 232.582031 250.148438 239.527344 238.703125 247.765625 C 237.535156 248.609375 236.390625 249.464844 235.257812 250.335938 C 235.375 250.679688 235.496094 251.023438 235.613281 251.371094 C 236.441406 253.804688 236.929688 256.328125 237.65625 258.792969 C 237.828125 259.347656 238 259.898438 238.195312 260.445312 C 238.265625 260.632812 238.339844 260.824219 238.410156 261.011719 C 238.4375 261.058594 238.585938 261.398438 238.625 261.480469 C 239.140625 262.558594 239.761719 263.570312 240.289062 264.636719 C 241.511719 267.085938 242.324219 269.621094 242.472656 272.363281 C 242.671875 272.335938 242.867188 272.316406 243.0625 272.296875 C 244.785156 272.140625 246.636719 272.546875 247.917969 273.757812 C 249.71875 275.457031 249.527344 278.03125 248.433594 280.050781 C 246.972656 282.753906 244.367188 284.304688 241.308594 284.414062 C 237.425781 284.558594 234.335938 281.59375 234.867188 277.648438 C 234.984375 276.855469 235.15625 276.070312 235.382812 275.300781 C 235.460938 275.03125 235.527344 274.761719 235.597656 274.492188 L 235.597656 274.457031 C 235.597656 274.273438 235.625 274.089844 235.632812 273.902344 C 235.667969 273.164062 235.648438 272.425781 235.574219 271.6875 C 235.574219 271.664062 235.558594 271.628906 235.546875 271.578125 C 235.511719 271.417969 235.484375 271.253906 235.449219 271.09375 C 235.375 270.773438 235.292969 270.453125 235.195312 270.136719 C 235.085938 269.761719 234.953125 269.394531 234.816406 269.027344 L 234.78125 268.933594 C 234.78125 268.917969 234.769531 268.90625 234.761719 268.886719 C 234.6875 268.726562 234.613281 268.566406 234.539062 268.40625 C 234.210938 267.71875 233.847656 267.066406 233.472656 266.40625 C 232.632812 264.882812 231.933594 263.300781 231.382812 261.652344 C 230.640625 259.449219 230.175781 257.164062 229.550781 254.9375 C 221.476562 261.777344 214.15625 269.25 206.535156 276.804688 C 204.402344 278.917969 202.144531 280.882812 199.882812 282.828125 L 200.617188 283.152344 C 200.523438 283.109375 201.335938 283.453125 201.429688 283.496094 L 202.011719 283.730469 C 206.050781 285.355469 210.277344 286.769531 213.972656 289.105469 C 217.761719 291.5 220.910156 294.855469 222.707031 298.992188 C 224.378906 302.835938 225.117188 306.960938 226.523438 310.902344 C 226.742188 311.527344 226.976562 312.148438 227.234375 312.757812 C 227.257812 312.816406 227.324219 312.941406 227.367188 313.011719 C 227.335938 312.949219 227.300781 312.882812 227.265625 312.820312 C 227.429688 313.113281 227.417969 313.101562 227.367188 313.011719 C 227.480469 313.230469 227.585938 313.449219 227.710938 313.664062 C 228.207031 314.550781 228.777344 315.386719 229.34375 316.226562 C 230.757812 318.335938 232.1875 320.546875 232.691406 323.074219 C 233.15625 325.414062 231.699219 327.167969 229.390625 327.402344 C 226.660156 327.679688 224.398438 325.867188 222.910156 323.777344 C 220.328125 320.140625 219.394531 315.257812 218.339844 311.003906 C 217.8125 308.867188 217.308594 306.71875 216.617188 304.621094 C 216.472656 304.179688 216.316406 303.738281 216.152344 303.300781 L 216.152344 303.289062 C 216.09375 303.167969 216.042969 303.039062 215.980469 302.917969 C 215.851562 302.660156 215.675781 302.417969 215.535156 302.164062 C 215.371094 302.011719 215.207031 301.886719 215.507812 302.117188 C 215.492188 302.089844 215.476562 302.0625 215.460938 302.03125 C 214.464844 301.050781 214.015625 299.792969 214.457031 298.433594 C 214.347656 298.308594 214.238281 298.179688 214.128906 298.058594 C 213.765625 297.660156 213.386719 297.277344 212.996094 296.910156 C 212.316406 296.25 211.574219 295.667969 210.769531 295.167969 C 209.941406 294.636719 209.085938 294.148438 208.207031 293.703125 C 207.304688 293.246094 206.378906 292.828125 205.449219 292.425781 L 205.316406 292.363281 L 205.128906 292.289062 C 204.9375 292.214844 204.75 292.132812 204.554688 292.054688 C 204.074219 291.859375 203.589844 291.667969 203.105469 291.480469 C 200.992188 290.644531 198.867188 289.820312 196.785156 288.894531 C 195.949219 288.527344 195.113281 288.128906 194.292969 287.703125 C 188.957031 292.558594 184.246094 297.863281 181.992188 305.4375 C 178.980469 315.542969 181.8125 327.765625 190.445312 333.824219 C 202.125 342.023438 220.210938 337.28125 230.457031 347.214844 C 238.519531 355.035156 238.058594 368.75 245.851562 376.832031 C 253.859375 385.140625 267.519531 384.371094 278.335938 380.339844 C 299.894531 372.308594 316.304688 354.292969 326.753906 333.582031 C 325.300781 333.570312 323.847656 333.582031 322.394531 333.675781 C 320.875 333.765625 319.367188 333.957031 317.871094 334.246094 C 316.066406 334.5625 314.269531 334.933594 312.464844 335.25 C 309.363281 335.789062 306.203125 336.269531 303.054688 336.09375 C 299.730469 335.914062 296.613281 334.90625 293.507812 333.769531 C 290.335938 332.605469 287.214844 331.265625 284.160156 329.820312 L 284.015625 329.753906 C 283.734375 330.003906 283.4375 330.234375 283.117188 330.441406 C 280.992188 331.808594 278.039062 332.34375 275.582031 331.707031 C 272.867188 331.003906 270.847656 328.453125 271.066406 325.597656 C 271.3125 322.394531 273.953125 320.640625 277.003906 320.65625 C 278.644531 320.683594 280.242188 320.953125 281.796875 321.457031 C 282.832031 321.328125 283.902344 321.617188 284.585938 322.414062 C 284.621094 322.453125 284.652344 322.492188 284.683594 322.53125 C 286.855469 323.460938 288.964844 324.574219 291.070312 325.488281 C 294.039062 326.773438 297.730469 328.269531 301.140625 329.023438 C 302.417969 329.304688 304.039062 329.347656 305.734375 329.261719 C 307.386719 329.175781 309.023438 328.976562 310.644531 328.660156 C 314.410156 327.996094 318.148438 327.160156 321.96875 326.871094 C 324.621094 326.671875 327.277344 326.757812 329.933594 326.78125 C 330.519531 325.425781 331.078125 324.066406 331.613281 322.695312 C 337.261719 308.234375 340.507812 293.070312 342.71875 277.679688 C 341.402344 277.308594 340.078125 276.953125 338.730469 276.671875 C 337.953125 276.480469 337.164062 276.375 336.367188 276.351562 C 335.859375 276.328125 335.355469 276.328125 334.847656 276.351562 C 334.738281 276.351562 333.761719 276.4375 333.824219 276.417969 C 331.992188 276.65625 330.191406 277.226562 328.449219 277.824219 C 324.769531 279.089844 321.171875 280.707031 317.289062 281.269531 L 316.378906 281.390625 C 316.886719 281.324219 316.652344 281.355469 315.675781 281.488281 C 315.214844 281.546875 314.757812 281.601562 314.296875 281.644531 C 313.34375 281.742188 312.386719 281.773438 311.425781 281.742188 C 309.128906 281.652344 306.96875 281.167969 304.917969 280.125 C 303.214844 279.261719 302.867188 277.003906 303.691406 275.445312 C 304.585938 273.746094 306.777344 273.402344 308.371094 274.214844 C 308.542969 274.292969 308.632812 274.339844 308.667969 274.363281 C 308.839844 274.421875 309 274.484375 309.167969 274.535156 C 309.589844 274.660156 310.015625 274.757812 310.449219 274.832031 C 310.238281 274.789062 311.308594 274.898438 311.425781 274.902344 C 311.847656 274.917969 312.269531 274.917969 312.691406 274.902344 C 313.574219 274.878906 314.449219 274.792969 315.324219 274.6875 L 316.011719 274.597656 C 315.71875 274.628906 315.785156 274.617188 316.210938 274.550781 C 316.632812 274.488281 317.070312 274.378906 317.484375 274.289062 C 321.101562 273.441406 324.492188 271.867188 328.035156 270.765625 C 332.113281 269.5 336.167969 269.191406 340.363281 270.035156 C 341.46875 270.257812 342.554688 270.550781 343.632812 270.863281 C 344.515625 263.832031 345.222656 256.769531 345.886719 249.722656 C 344.210938 249.96875 342.527344 250.121094 340.835938 250.179688 C 338.640625 250.253906 336.441406 250.28125 334.25 250.425781 C 332.058594 250.574219 330.78125 250.710938 328.550781 251.382812 C 326.714844 251.9375 324.902344 250.722656 324.34375 248.996094 C 323.753906 247.1875 325.011719 245.28125 326.722656 244.769531 Z M 197.257812 317.082031 C 196.695312 317.453125 196.082031 317.691406 195.417969 317.800781 C 194.753906 317.910156 194.09375 317.882812 193.441406 317.71875 C 191.722656 317.261719 190.578125 315.949219 189.972656 314.324219 C 189.363281 312.699219 189.582031 310.949219 189.828125 309.300781 C 189.953125 308.4375 190.703125 307.703125 191.402344 307.253906 C 192.175781 306.753906 193.160156 306.710938 194.035156 306.910156 C 194.851562 307.097656 195.664062 307.773438 196.082031 308.484375 C 196.113281 308.542969 196.140625 308.597656 196.167969 308.65625 C 196.695312 308.894531 197.148438 309.234375 197.523438 309.671875 C 197.714844 309.898438 197.894531 310.128906 198.097656 310.34375 C 198.214844 310.46875 198.324219 310.597656 198.421875 310.738281 C 198.808594 311.210938 199.082031 311.742188 199.246094 312.328125 C 199.777344 314.191406 198.785156 316.046875 197.257812 317.078125 Z M 292.503906 306.699219 C 288.988281 307.890625 284.855469 306.773438 281.636719 305.21875 C 280.335938 304.585938 279.8125 302.976562 280.015625 301.625 C 279.753906 300.367188 280.300781 298.992188 281.308594 298.171875 C 281.824219 296.917969 283.136719 295.984375 284.5 296.007812 C 287.082031 296.042969 289.53125 296.65625 291.9375 297.546875 C 293.554688 298.144531 294.625 299.53125 294.386719 301.300781 C 294.386719 301.316406 294.386719 301.332031 294.386719 301.347656 C 295.921875 303.160156 294.609375 305.980469 292.503906 306.691406 Z M 292.503906 306.699219 " fill-opacity="1" fill-rule="nonzero"/><path fill="#4e7f6c" d="M 151.804688 270.570312 C 151.144531 268.527344 150.277344 266.582031 149.199219 264.726562 C 149.15625 264.789062 149.109375 264.847656 149.0625 264.90625 C 148.835938 265.214844 148.609375 265.523438 148.382812 265.835938 C 146.578125 268.34375 144.925781 270.953125 143.167969 273.496094 C 139.757812 278.429688 135.742188 283.769531 129.695312 285.492188 C 127.851562 286.007812 126.054688 284.851562 125.488281 283.101562 C 124.921875 281.351562 126.15625 279.382812 127.878906 278.894531 C 128.175781 278.808594 128.46875 278.703125 128.765625 278.609375 L 128.78125 278.609375 C 128.859375 278.570312 128.941406 278.539062 129.019531 278.496094 C 129.589844 278.214844 130.136719 277.890625 130.664062 277.527344 C 130.816406 277.421875 131.664062 276.734375 130.957031 277.332031 C 131.148438 277.167969 131.34375 277.011719 131.53125 276.847656 C 132.050781 276.394531 132.550781 275.914062 133.027344 275.414062 C 133.503906 274.917969 134.003906 274.355469 134.464844 273.804688 C 134.640625 273.59375 134.816406 273.378906 134.988281 273.164062 C 135.085938 273.042969 135.183594 272.921875 135.277344 272.800781 L 135.320312 272.738281 C 136.214844 271.53125 137.085938 270.3125 137.925781 269.070312 C 140.195312 265.726562 142.371094 262.101562 145.019531 258.957031 C 141.824219 255.363281 137.917969 252.332031 133.726562 249.96875 C 127.554688 246.488281 120.777344 244.300781 113.867188 242.644531 C 112.832031 243.613281 111.722656 244.507812 110.640625 245.414062 C 108.316406 247.300781 106.378906 249.523438 104.816406 252.074219 C 101.78125 256.90625 99.9375 262.308594 97.261719 267.320312 C 96.363281 269.007812 94.164062 269.386719 92.582031 268.546875 C 90.90625 267.664062 90.515625 265.449219 91.355469 263.867188 C 94.027344 258.855469 95.875 253.453125 98.910156 248.632812 C 100.667969 245.828125 102.726562 243.203125 105.246094 241.054688 L 105.46875 240.871094 C 93.050781 238.46875 80.527344 236.925781 67.902344 236.234375 C 67.953125 236.863281 67.957031 237.492188 67.914062 238.121094 C 67.730469 240.511719 67.050781 242.839844 66.476562 245.15625 C 66.222656 246.152344 65.988281 247.152344 65.816406 248.167969 C 65.816406 248.183594 65.816406 248.191406 65.816406 248.203125 C 65.816406 248.214844 65.816406 248.238281 65.816406 248.261719 C 65.800781 248.476562 65.777344 248.691406 65.769531 248.90625 C 65.753906 249.367188 65.765625 249.828125 65.816406 250.285156 C 66.011719 252.191406 64.09375 253.628906 62.394531 253.707031 C 60.417969 253.796875 59.15625 252.058594 58.972656 250.285156 C 58.761719 248.21875 59.222656 246.078125 59.707031 244.070312 C 60.160156 242.1875 60.828125 239.855469 61.070312 238.214844 C 61.140625 237.734375 61.070312 236.730469 60.984375 235.9375 C 53.257812 235.707031 45.53125 235.800781 37.808594 236.214844 C 18.394531 237.257812 19.898438 252.589844 20.476562 268.347656 C 20.550781 270.289062 20.660156 272.234375 20.8125 274.175781 C 22.085938 273.949219 23.371094 273.804688 24.664062 273.742188 C 27.882812 273.625 30.863281 274.601562 33.800781 275.808594 C 34.664062 276.152344 35.542969 276.371094 36.417969 276.667969 C 36.46875 276.667969 36.523438 276.679688 36.574219 276.683594 C 36.816406 276.695312 37.058594 276.683594 37.296875 276.683594 C 37.507812 276.671875 37.78125 276.636719 37.753906 276.644531 C 37.96875 276.605469 38.183594 276.566406 38.398438 276.519531 C 38.875 276.417969 39.34375 276.273438 39.816406 276.160156 C 39.816406 276.160156 40.464844 276.019531 40.113281 276.113281 C 39.832031 276.183594 40.195312 276.09375 40.242188 276.078125 C 40.75 275.90625 41.242188 275.644531 41.730469 275.429688 C 43.089844 274.847656 44.449219 274.257812 45.832031 273.734375 C 48.339844 272.785156 50.996094 271.972656 53.3125 273.824219 C 54.761719 274.984375 54.507812 277.464844 53.3125 278.660156 C 52.90625 279.074219 52.425781 279.359375 51.863281 279.515625 C 51.304688 279.667969 50.742188 279.671875 50.183594 279.519531 L 50.09375 279.539062 C 49.445312 279.703125 48.808594 279.902344 48.183594 280.140625 C 47.445312 280.402344 46.722656 280.699219 46 281 L 45.851562 281.0625 L 45.449219 281.234375 L 44.417969 281.683594 C 41.183594 283.089844 37.585938 284.09375 34.066406 283.171875 C 32.886719 282.863281 31.78125 282.324219 30.648438 281.882812 C 29.835938 281.570312 29.011719 281.285156 28.175781 281.039062 C 27.054688 280.710938 26.6875 280.621094 25.621094 280.59375 C 25.101562 280.582031 24.601562 280.59375 24.09375 280.632812 C 23.960938 280.640625 22.953125 280.75 23.046875 280.730469 C 22.53125 280.804688 22.015625 280.890625 21.496094 280.984375 C 23.070312 293.621094 26.269531 305.835938 31.089844 317.621094 L 31.277344 317.667969 C 31.5625 317.734375 31.847656 317.792969 32.136719 317.839844 L 32.335938 317.882812 L 32.4375 317.882812 C 33.078125 317.9375 33.714844 317.996094 34.359375 318.015625 C 35.660156 318.046875 36.964844 318 38.261719 317.863281 C 38.5 317.84375 39.585938 317.691406 38.984375 317.789062 C 39.238281 317.75 39.5 317.714844 39.75 317.671875 C 40.398438 317.5625 41.042969 317.441406 41.6875 317.300781 C 43.066406 317 44.421875 316.628906 45.761719 316.1875 C 46.425781 315.96875 47.082031 315.730469 47.730469 315.472656 L 48.058594 315.339844 C 48.339844 315.207031 48.628906 315.085938 48.910156 314.957031 C 50.09375 314.394531 51.234375 313.753906 52.328125 313.027344 C 52.601562 312.84375 52.867188 312.644531 53.136719 312.460938 L 53.191406 312.425781 L 53.289062 312.339844 C 53.707031 311.984375 54.117188 311.625 54.503906 311.234375 C 54.734375 311 54.953125 310.753906 55.171875 310.507812 L 55.230469 310.449219 C 55.5 310.035156 55.773438 309.636719 56 309.199219 L 56.09375 309.015625 C 56.152344 308.800781 56.238281 308.589844 56.296875 308.371094 C 56.3125 308.308594 56.363281 307.9375 56.40625 307.769531 C 56.40625 307.753906 56.40625 307.738281 56.40625 307.722656 C 56.507812 305.808594 57.894531 304.390625 59.828125 304.300781 C 61.609375 304.222656 63.34375 305.933594 63.246094 307.722656 C 63.074219 311.085938 61.457031 314.046875 59.050781 316.355469 C 54.652344 320.574219 48.429688 322.953125 42.53125 324.082031 C 39.976562 324.570312 37.140625 324.941406 34.339844 324.898438 C 38.667969 333.804688 44.242188 342.238281 51.675781 348.542969 C 52.988281 347.96875 54.316406 347.449219 55.636719 346.9375 C 58.277344 345.914062 60.945312 344.976562 63.585938 343.949219 C 64.296875 343.671875 65.007812 343.382812 65.714844 343.085938 L 65.789062 343.058594 L 66.0625 342.941406 C 66.371094 342.808594 66.679688 342.671875 66.984375 342.535156 C 68.253906 341.960938 69.507812 341.351562 70.726562 340.671875 C 71.34375 340.324219 71.953125 339.960938 72.546875 339.574219 C 72.835938 339.386719 73.125 339.195312 73.40625 338.996094 C 73.464844 338.957031 73.769531 338.730469 73.925781 338.621094 L 74.0625 338.511719 C 74.175781 338.417969 74.289062 338.324219 74.40625 338.230469 C 74.65625 338.015625 74.894531 337.796875 75.132812 337.570312 C 75.542969 337.175781 75.921875 336.757812 76.296875 336.332031 C 76.351562 336.273438 76.386719 336.230469 76.417969 336.203125 C 76.457031 336.140625 76.492188 336.082031 76.523438 336.03125 C 76.683594 335.800781 76.832031 335.570312 76.972656 335.339844 C 77.113281 335.105469 77.246094 334.867188 77.371094 334.625 C 77.425781 334.519531 77.46875 334.40625 77.523438 334.304688 C 77.714844 333.78125 77.871094 333.246094 78 332.707031 C 78.019531 332.609375 78.035156 332.519531 78.054688 332.421875 C 78.003906 332.300781 78.003906 332.179688 78.054688 332.058594 C 78.078125 331.855469 78.117188 331.632812 78.121094 331.542969 C 78.128906 331.09375 78.222656 330.660156 78.398438 330.246094 C 78.578125 329.832031 78.824219 329.464844 79.144531 329.144531 C 79.460938 328.828125 79.828125 328.578125 80.246094 328.402344 C 80.660156 328.226562 81.09375 328.132812 81.542969 328.125 C 83.339844 328.042969 85.035156 329.753906 84.964844 331.542969 C 84.816406 335.183594 83.464844 338.390625 81.132812 341.164062 C 77.234375 345.796875 71.144531 348.292969 65.648438 350.4375 C 63.199219 351.398438 60.71875 352.28125 58.257812 353.21875 C 69.886719 359.984375 85.601562 360.851562 96.117188 352.515625 C 103.328125 346.800781 107.117188 337.847656 113.242188 330.980469 C 119.757812 323.679688 128.660156 318.996094 136.128906 312.671875 C 148.257812 302.421875 156.675781 285.703125 151.804688 270.570312 Z M 29.046875 260.351562 C 29.019531 260.378906 28.992188 260.402344 28.964844 260.425781 C 28.804688 260.890625 28.550781 261.292969 28.199219 261.632812 C 27.757812 262.035156 27.253906 262.328125 26.6875 262.511719 C 26.238281 262.65625 25.785156 262.679688 25.324219 262.574219 C 25.015625 262.574219 24.730469 262.496094 24.460938 262.339844 C 24.03125 262.203125 23.664062 261.964844 23.359375 261.632812 L 22.828125 260.945312 C 22.648438 260.585938 22.492188 260.214844 22.355469 259.839844 C 22.296875 259.617188 22.261719 259.394531 22.246094 259.167969 C 22.171875 258.816406 22.171875 258.464844 22.246094 258.113281 C 22.257812 257.9375 22.28125 257.765625 22.324219 257.59375 C 22.425781 257.300781 22.546875 257.015625 22.683594 256.734375 C 22.859375 256.441406 23.0625 256.171875 23.300781 255.921875 C 23.34375 255.878906 23.386719 255.839844 23.433594 255.800781 C 23.550781 255.703125 23.671875 255.613281 23.777344 255.511719 C 24.453125 254.863281 25.257812 254.53125 26.191406 254.507812 C 26.304688 254.5 26.417969 254.5 26.535156 254.507812 L 26.617188 254.507812 C 27.53125 254.464844 28.386719 254.910156 29.03125 255.511719 C 29.671875 256.109375 30.03125 257.089844 30.03125 257.921875 C 30.03125 258.863281 29.703125 259.671875 29.046875 260.351562 Z M 61.054688 333.886719 C 61.027344 333.914062 61.003906 333.949219 60.972656 333.980469 C 60.351562 334.617188 59.597656 334.945312 58.710938 334.964844 C 58.125 335.238281 57.523438 335.496094 56.910156 335.710938 C 55.292969 336.285156 53.496094 335.195312 52.875 333.730469 C 52.1875 332.113281 52.839844 330.40625 54.273438 329.460938 C 55.238281 328.824219 56.257812 328.289062 57.324219 327.851562 C 57.6875 327.632812 58.078125 327.484375 58.496094 327.414062 C 58.9375 327.261719 59.386719 327.222656 59.847656 327.289062 C 61.546875 327.214844 62.976562 328.667969 63.191406 330.257812 C 63.410156 331.898438 62.496094 333.246094 61.054688 333.886719 Z M 107.011719 324.476562 C 106.925781 324.675781 106.824219 324.867188 106.703125 325.046875 C 106.484375 326.542969 105.300781 327.367188 104.386719 328.449219 C 102.679688 330.476562 99.324219 329.253906 98.671875 326.9375 C 98.484375 326.324219 98.433594 325.695312 98.511719 325.058594 C 98.59375 324.417969 98.800781 323.824219 99.132812 323.273438 C 99.230469 323.117188 99.335938 322.96875 99.453125 322.824219 C 99.476562 322.339844 99.601562 321.882812 99.828125 321.453125 C 100.054688 321.019531 100.359375 320.660156 100.75 320.363281 C 101.027344 320.152344 101.328125 319.984375 101.65625 319.867188 C 101.75 319.792969 101.847656 319.730469 101.945312 319.671875 C 102.808594 319.171875 103.636719 319.183594 104.582031 319.328125 C 105.703125 319.5 106.609375 320.507812 107.023438 321.492188 C 107.453125 322.488281 107.449219 323.484375 107.011719 324.476562 Z M 107.011719 324.476562 " fill-opacity="1" fill-rule="nonzero"/><path fill="#9bae7f" d="M 40.71875 256.683594 C 40.179688 256.511719 39.695312 256.246094 39.257812 255.890625 C 39.660156 256.3125 40.148438 256.574219 40.71875 256.683594 Z M 40.71875 256.683594 " fill-opacity="1" fill-rule="nonzero"/><path fill="#255542" d="M 25.75 246.765625 C 27.632812 247.511719 29.476562 248.347656 31.277344 249.277344 C 33.042969 250.191406 34.808594 251.097656 36.53125 252.097656 C 39.851562 254.003906 43.023438 256.136719 46.042969 258.492188 C 52.546875 263.609375 57.832031 270.015625 63.808594 275.691406 C 69.757812 281.375 76.140625 286.519531 82.953125 291.128906 C 89.75 295.703125 96.886719 299.792969 103.191406 305.058594 C 108.671875 309.640625 113.511719 315.289062 115.890625 322.105469 C 116.179688 322.933594 116.425781 323.773438 116.636719 324.625 C 116.714844 324.933594 117.152344 325.140625 117.417969 325.191406 C 117.859375 325.265625 118.285156 325.214844 118.695312 325.039062 C 119.394531 324.730469 120.082031 324.140625 119.882812 323.316406 C 118.144531 316.085938 113.59375 309.832031 108.242188 304.800781 C 102.285156 299.203125 95.171875 295.058594 88.355469 290.625 C 81.363281 286.101562 74.765625 281.066406 68.5625 275.511719 C 65.449219 272.710938 62.515625 269.730469 59.617188 266.714844 C 56.742188 263.726562 53.839844 260.777344 50.644531 258.128906 C 44.570312 253.09375 37.726562 248.914062 30.25 246.324219 C 29.214844 245.964844 28.183594 245.59375 27.148438 245.25 C 26.632812 245.078125 25.871094 245.25 25.511719 245.660156 C 25.199219 246.019531 25.238281 246.566406 25.742188 246.765625 Z M 25.75 246.765625 " fill-opacity="1" fill-rule="nonzero"/><path fill="#255542" d="M 336.128906 219.042969 C 325.710938 223.691406 316.253906 230.578125 308.300781 238.71875 C 301.054688 246.136719 295.148438 254.710938 289.683594 263.484375 C 284.234375 272.230469 279.171875 281.21875 273.359375 289.734375 C 270.453125 294.011719 267.308594 298.101562 263.921875 302.007812 C 260.183594 306.292969 256.242188 310.402344 252.75 314.898438 C 245.992188 323.589844 240.730469 333.320312 234.039062 342.054688 C 233.625 342.59375 233.207031 343.128906 232.785156 343.660156 C 232.597656 343.894531 232.410156 344.128906 232.222656 344.363281 C 232.125 344.480469 232.023438 344.59375 231.933594 344.707031 C 231.691406 345.03125 232.011719 344.628906 232.203125 344.578125 L 233.066406 344.519531 C 233.621094 344.996094 233.710938 345.402344 233.335938 345.734375 L 232.589844 346.167969 L 232.644531 346.140625 L 231.097656 346.105469 L 231.253906 346.199219 C 231.882812 346.5625 232.777344 346.371094 233.339844 345.976562 C 233.820312 345.644531 234.285156 345.03125 233.84375 344.464844 C 234.136719 344.839844 233.84375 344.441406 233.753906 344.332031 C 233.582031 344.144531 233.375 344.023438 233.132812 343.96875 C 232.6875 343.871094 232.253906 343.90625 231.832031 344.074219 C 231.09375 344.335938 230.316406 345.011719 230.257812 345.84375 C 230.210938 346.570312 230.742188 347.046875 231.429688 347.171875 C 232.535156 347.386719 233.605469 346.792969 234.367188 346.035156 C 235.371094 345.050781 236.199219 343.847656 237.042969 342.734375 C 238 341.472656 238.921875 340.1875 239.835938 338.894531 C 243.109375 334.246094 246.117188 329.421875 249.261719 324.683594 C 252.453125 319.863281 255.84375 315.242188 259.644531 310.886719 C 263.445312 306.535156 267.449219 302.308594 271.007812 297.722656 C 277.664062 289.152344 283.183594 279.796875 288.765625 270.519531 C 294.285156 261.34375 299.929688 252.132812 306.953125 244.003906 C 314.59375 235.160156 323.816406 227.84375 334.042969 222.203125 C 335.191406 221.570312 336.351562 220.957031 337.519531 220.355469 C 337.96875 220.125 338.285156 219.609375 337.863281 219.1875 C 337.445312 218.761719 336.632812 218.820312 336.128906 219.042969 Z M 336.128906 219.042969 " fill-opacity="1" fill-rule="nonzero"/><path fill="#255542" d="M 116.664062 324.714844 C 117.101562 325.691406 117.449219 326.710938 117.910156 327.675781 C 118.394531 328.695312 118.886719 329.710938 119.40625 330.714844 C 120.34375 332.519531 121.328125 334.285156 122.390625 336.019531 C 124.585938 339.589844 127.015625 343.027344 129.828125 346.140625 C 131.179688 347.636719 132.617188 349.046875 134.144531 350.363281 C 135.78125 351.765625 137.523438 353.039062 139.226562 354.355469 C 140.957031 355.660156 142.574219 357.09375 144.082031 358.65625 C 145.59375 360.304688 147 362.042969 148.304688 363.863281 C 153.367188 370.761719 158.476562 377.726562 162.425781 385.34375 C 164.457031 389.234375 166.085938 393.285156 167.308594 397.5 C 168.570312 401.898438 169.453125 406.414062 170.21875 410.929688 C 171.808594 420.238281 172.730469 429.644531 173.582031 439.046875 L 173.894531 442.5 C 173.96875 443.339844 174.988281 443.4375 175.613281 443.289062 C 176.378906 443.117188 177.351562 442.5 177.496094 441.652344 C 177.601562 441.019531 177.644531 440.378906 177.628906 439.734375 C 177.589844 438.195312 174.871094 438.789062 174.515625 439.882812 C 174.261719 440.621094 174.0625 441.371094 173.917969 442.136719 L 177.519531 441.289062 C 176.671875 431.863281 175.824219 422.425781 174.367188 413.070312 C 172.953125 404.011719 171.144531 394.878906 167.246094 386.523438 C 163.597656 378.699219 158.550781 371.640625 153.480469 364.691406 C 150.898438 361.144531 148.347656 357.503906 145.042969 354.570312 C 141.839844 351.722656 138.203125 349.429688 135.105469 346.449219 C 129.078125 340.648438 124.945312 333.417969 120.648438 326.320312 C 120.164062 325.515625 119.597656 324.769531 119.109375 323.957031 C 118.554688 323.035156 116.125 323.53125 116.65625 324.726562 Z M 116.664062 324.714844 " fill-opacity="1" fill-rule="nonzero"/><path fill="#255542" d="M 232.9375 343.882812 C 227.191406 348.957031 222.535156 355.339844 218.617188 361.894531 C 214.949219 368.03125 211.921875 374.523438 209.257812 381.148438 C 206.660156 387.613281 204.425781 394.21875 202.320312 400.859375 C 199.910156 408.433594 197.570312 416.035156 195.765625 423.769531 C 193.925781 431.664062 192.683594 439.734375 192.652344 447.851562 C 192.652344 448.867188 192.671875 449.878906 192.703125 450.890625 C 192.734375 451.808594 194.011719 451.855469 194.640625 451.632812 C 195.503906 451.320312 196.269531 450.679688 196.316406 449.714844 C 196.335938 449.230469 196.339844 448.746094 196.363281 448.261719 C 196.386719 447.617188 196.34375 446.980469 196.238281 446.34375 C 196.148438 445.722656 195.234375 445.628906 194.769531 445.695312 C 194.167969 445.78125 193.5 446.101562 193.339844 446.742188 C 193.03125 447.996094 192.890625 449.246094 192.730469 450.53125 L 196.316406 449.714844 C 196.03125 441.636719 197.074219 433.597656 198.777344 425.71875 C 200.480469 417.835938 202.835938 410.0625 205.253906 402.347656 C 207.355469 395.632812 209.558594 388.960938 212.113281 382.40625 C 214.648438 375.902344 217.542969 369.523438 221.035156 363.46875 C 224.550781 357.332031 228.730469 351.683594 233.566406 346.523438 C 234.113281 345.949219 234.65625 345.371094 235.203125 344.789062 C 235.632812 344.324219 235.53125 343.714844 234.933594 343.46875 C 234.269531 343.195312 233.457031 343.417969 232.9375 343.875 Z M 232.9375 343.882812 " fill-opacity="1" fill-rule="nonzero"/><path fill="#255542" d="M 340.746094 258.527344 C 337.871094 259.125 334.972656 259.515625 332.046875 259.703125 C 329.214844 259.890625 326.386719 259.894531 323.554688 259.710938 C 318.03125 259.355469 312.480469 258.296875 306.945312 259.101562 C 304.070312 259.519531 301.277344 260.414062 298.835938 262.011719 C 298.570312 262.1875 298.464844 262.578125 298.761719 262.773438 C 299.089844 262.988281 299.546875 262.851562 299.84375 262.65625 C 304.039062 259.914062 309.316406 259.6875 314.238281 260.019531 C 317.082031 260.214844 319.921875 260.570312 322.757812 260.746094 C 325.589844 260.921875 328.417969 260.902344 331.246094 260.683594 C 332.859375 260.558594 334.476562 260.398438 336.070312 260.148438 C 337.792969 259.875 339.492188 259.515625 341.1875 259.113281 C 341.289062 259.101562 341.363281 259.050781 341.40625 258.957031 C 341.453125 258.867188 341.449219 258.777344 341.394531 258.691406 C 341.257812 258.488281 340.949219 258.480469 340.738281 258.519531 Z M 340.746094 258.527344 " fill-opacity="1" fill-rule="nonzero"/><path fill="#255542" d="M 291.742188 227.160156 C 291.316406 227.84375 291.035156 228.582031 290.890625 229.375 C 290.765625 230.15625 290.710938 230.941406 290.71875 231.730469 C 290.71875 232.519531 290.738281 233.3125 290.71875 234.097656 C 290.683594 234.976562 290.597656 235.847656 290.457031 236.714844 C 290.1875 238.496094 289.792969 240.261719 289.640625 242.050781 C 289.507812 243.867188 289.511719 245.683594 289.652344 247.5 C 289.796875 249.539062 290.074219 251.566406 290.339844 253.59375 C 290.386719 253.9375 290.9375 253.960938 291.1875 253.898438 C 291.492188 253.828125 291.847656 253.59375 291.800781 253.242188 C 291.324219 249.683594 290.824219 246.085938 291.035156 242.488281 C 291.136719 240.765625 291.4375 239.074219 291.6875 237.371094 C 291.929688 235.738281 292.035156 234.09375 292.003906 232.441406 C 291.964844 230.773438 291.886719 228.949219 292.617188 227.40625 C 292.816406 226.984375 291.925781 226.828125 291.734375 227.152344 Z M 291.742188 227.160156 " fill-opacity="1" fill-rule="nonzero"/><path fill="#255542" d="M 251.460938 244.648438 C 251.101562 246.085938 250.933594 247.542969 250.964844 249.019531 C 251.027344 250.488281 251.246094 251.929688 251.613281 253.351562 C 252.320312 256.183594 253.476562 258.898438 254.710938 261.53125 C 257.0625 266.523438 259.941406 271.195312 263.351562 275.535156 C 265.339844 278.066406 267.484375 280.457031 269.78125 282.710938 C 270.058594 282.980469 270.507812 282.945312 270.832031 282.78125 C 271.070312 282.65625 271.445312 282.277344 271.175781 281.996094 C 270.140625 280.894531 269.058594 279.835938 268.039062 278.722656 C 267.117188 277.71875 266.230469 276.691406 265.371094 275.636719 C 263.640625 273.519531 262.027344 271.3125 260.535156 269.019531 C 259.054688 266.742188 257.703125 264.390625 256.484375 261.960938 C 255.214844 259.4375 254.058594 256.84375 253.210938 254.148438 C 252.71875 252.621094 252.375 251.0625 252.175781 249.46875 C 251.992188 247.90625 251.925781 246.355469 252.214844 244.800781 C 252.277344 244.457031 251.535156 244.3125 251.457031 244.652344 Z M 251.460938 244.648438 " fill-opacity="1" fill-rule="nonzero"/><path fill="#255542" d="M 331.492188 292.597656 C 328.914062 294.738281 326.015625 296.265625 322.792969 297.1875 C 319.503906 298.085938 316.179688 298.21875 312.828125 297.585938 C 309.277344 296.941406 305.886719 295.59375 302.566406 294.207031 C 299.175781 292.789062 295.816406 291.277344 292.28125 290.253906 C 288.742188 289.230469 285.007812 288.648438 281.339844 289.195312 C 280.855469 289.265625 280.375 289.355469 279.902344 289.472656 C 279.617188 289.539062 279.195312 289.808594 279.285156 290.152344 C 279.375 290.5 279.875 290.503906 280.148438 290.449219 C 283.800781 289.722656 287.496094 290.152344 291.058594 291.140625 C 294.617188 292.125 298.035156 293.644531 301.457031 295.078125 C 304.851562 296.496094 308.308594 297.832031 311.9375 298.5 C 315.386719 299.15625 318.820312 299.078125 322.238281 298.265625 C 325.511719 297.46875 328.675781 296.042969 331.308594 293.9375 C 331.671875 293.644531 332.023438 293.339844 332.367188 293.03125 C 332.539062 292.871094 332.378906 292.636719 332.21875 292.554688 C 331.96875 292.429688 331.726562 292.441406 331.488281 292.59375 Z M 331.492188 292.597656 " fill-opacity="1" fill-rule="nonzero"/><path fill="#255542" d="M 217.382812 270.050781 C 218.476562 271.96875 219.375 273.976562 220.34375 275.960938 C 221.308594 277.945312 222.226562 279.921875 223.078125 281.941406 C 224.597656 285.546875 225.851562 289.3125 228.042969 292.585938 C 229.109375 294.191406 230.398438 295.597656 231.902344 296.800781 C 233.402344 297.96875 235.003906 298.980469 236.703125 299.835938 C 239.976562 301.523438 243.460938 302.761719 246.675781 304.570312 C 249.683594 306.257812 252.5625 308.421875 254.28125 311.480469 C 254.578125 311.996094 254.835938 312.5625 255.085938 313.105469 C 255.21875 313.386719 255.742188 313.339844 255.964844 313.261719 C 256.183594 313.1875 256.574219 312.953125 256.480469 312.644531 C 255.972656 310.96875 254.882812 309.441406 253.695312 308.167969 C 252.4375 306.855469 251.035156 305.71875 249.492188 304.761719 C 246.339844 302.765625 242.847656 301.441406 239.472656 299.890625 C 236.050781 298.3125 232.679688 296.445312 230.273438 293.46875 C 227.816406 290.425781 226.410156 286.703125 224.914062 283.136719 C 224.078125 281.148438 223.191406 279.179688 222.226562 277.246094 C 221.707031 276.238281 221.191406 275.21875 220.609375 274.25 C 220.023438 273.285156 219.414062 272.371094 218.828125 271.421875 C 218.539062 270.949219 218.25 270.476562 217.957031 270.003906 C 217.863281 269.859375 217.734375 269.796875 217.566406 269.8125 C 217.453125 269.824219 217.300781 269.917969 217.378906 270.054688 Z M 217.382812 270.050781 " fill-opacity="1" fill-rule="nonzero"/><path fill="#255542" d="M 287.832031 356.417969 C 284.386719 357.449219 280.808594 356.589844 277.558594 355.320312 C 274.375 354.078125 271.359375 352.417969 268.328125 350.84375 C 265.410156 349.320312 262.515625 347.746094 259.699219 346.050781 C 256.890625 344.378906 254.203125 342.535156 251.632812 340.515625 C 249.109375 338.527344 246.800781 336.316406 244.707031 333.882812 C 244.414062 333.539062 244.125 333.210938 243.804688 332.894531 C 243.433594 332.527344 242.207031 332.976562 242.570312 333.550781 C 243.046875 334.25 243.574219 334.90625 244.15625 335.519531 C 244.707031 336.144531 245.277344 336.746094 245.863281 337.332031 C 247.039062 338.503906 248.277344 339.613281 249.554688 340.671875 C 252.140625 342.78125 254.859375 344.699219 257.714844 346.429688 C 260.566406 348.183594 263.511719 349.78125 266.480469 351.324219 C 267.96875 352.097656 269.460938 352.855469 270.957031 353.613281 C 272.59375 354.441406 274.242188 355.261719 275.941406 355.960938 C 279.410156 357.390625 283.175781 358.300781 286.917969 357.527344 C 287.359375 357.4375 287.792969 357.324219 288.21875 357.183594 C 288.433594 357.113281 288.734375 356.921875 288.609375 356.652344 C 288.484375 356.378906 288.070312 356.355469 287.832031 356.425781 Z M 287.832031 356.417969 " fill-opacity="1" fill-rule="nonzero"/><path fill="#255542" d="M 205.609375 312.152344 C 206.332031 315.039062 207.472656 317.75 209.035156 320.285156 C 210.605469 322.824219 212.496094 325.101562 214.703125 327.117188 C 217.007812 329.195312 219.542969 330.929688 222.316406 332.324219 C 225.332031 333.832031 228.488281 334.941406 231.789062 335.652344 C 235.136719 336.371094 238.523438 336.714844 241.945312 336.683594 C 242.363281 336.683594 242.777344 336.671875 243.195312 336.652344 C 243.503906 336.636719 243.953125 336.464844 244.007812 336.113281 C 244.0625 335.765625 243.640625 335.640625 243.371094 335.644531 C 241.726562 335.671875 240.085938 335.683594 238.445312 335.570312 C 236.8125 335.460938 235.183594 335.265625 233.570312 334.980469 C 230.324219 334.414062 227.199219 333.460938 224.191406 332.117188 C 221.40625 330.871094 218.832031 329.277344 216.476562 327.339844 C 214.21875 325.496094 212.242188 323.390625 210.546875 321.019531 C 208.835938 318.632812 207.523438 316.046875 206.613281 313.253906 C 206.5 312.902344 206.398438 312.546875 206.300781 312.191406 C 206.222656 311.90625 205.523438 311.828125 205.609375 312.152344 Z M 205.609375 312.152344 " fill-opacity="1" fill-rule="nonzero"/><path fill="#255542" d="M 51.804688 237.707031 C 52.050781 239.058594 52.167969 240.4375 52.289062 241.804688 C 52.402344 243.136719 52.429688 244.472656 52.375 245.8125 C 52.3125 247.253906 52.140625 248.679688 51.859375 250.09375 C 51.601562 251.421875 51.253906 252.730469 51.011719 254.054688 C 50.871094 254.789062 50.78125 255.53125 50.742188 256.277344 C 50.734375 257.070312 50.671875 257.859375 50.554688 258.644531 C 50.425781 259.351562 51.933594 259.183594 52.039062 258.546875 C 52.273438 257.195312 52.15625 255.804688 52.351562 254.445312 C 52.539062 253.113281 52.867188 251.804688 53.089844 250.484375 C 53.535156 247.773438 53.632812 245.046875 53.390625 242.308594 C 53.316406 241.519531 53.199219 240.738281 53.042969 239.957031 C 52.90625 239.214844 52.679688 238.484375 52.476562 237.757812 C 52.402344 237.488281 51.734375 237.375 51.789062 237.714844 Z M 51.804688 237.707031 " fill-opacity="1" fill-rule="nonzero"/><path fill="#255542" d="M 28.675781 264.769531 C 30.058594 265.117188 31.460938 265.351562 32.882812 265.472656 C 34.308594 265.574219 35.730469 265.566406 37.15625 265.453125 C 40.046875 265.230469 42.847656 264.597656 45.554688 263.558594 C 46.882812 263.058594 48.164062 262.449219 49.390625 261.738281 C 49.550781 261.664062 49.691406 261.5625 49.8125 261.4375 C 49.875 261.355469 49.890625 261.269531 49.867188 261.171875 C 49.84375 261.074219 49.785156 261.003906 49.691406 260.964844 C 49.242188 260.695312 48.753906 261.050781 48.367188 261.269531 C 47.773438 261.605469 47.167969 261.917969 46.550781 262.210938 C 42.503906 264.125 38.246094 265.011719 33.777344 264.878906 C 32.097656 264.847656 30.433594 264.679688 28.78125 264.371094 C 28.667969 264.347656 28.464844 264.335938 28.421875 264.484375 C 28.378906 264.628906 28.550781 264.742188 28.667969 264.769531 Z M 28.675781 264.769531 " fill-opacity="1" fill-rule="nonzero"/><path fill="#255542" d="M 83.078125 246.945312 C 83.421875 249.308594 82.945312 251.742188 82.238281 254.003906 C 81.515625 256.3125 80.417969 258.480469 79.269531 260.601562 C 78.148438 262.667969 76.957031 264.703125 75.960938 266.835938 C 74.945312 269.007812 74.195312 271.269531 73.710938 273.617188 C 73.4375 274.945312 73.230469 276.28125 73.09375 277.628906 C 73.027344 278.296875 72.96875 278.964844 72.921875 279.632812 C 72.898438 279.976562 72.878906 280.320312 72.863281 280.664062 C 72.851562 280.8125 72.851562 280.957031 72.863281 281.105469 C 72.859375 281.347656 72.941406 281.554688 73.101562 281.734375 C 73.367188 282.070312 74.085938 281.882812 74.238281 281.53125 C 74.507812 280.910156 74.46875 280.226562 74.511719 279.5625 C 74.550781 278.964844 74.59375 278.359375 74.652344 277.769531 C 74.765625 276.578125 74.925781 275.386719 75.140625 274.207031 C 75.5625 271.875 76.25 269.625 77.207031 267.457031 C 79.113281 263.171875 81.875 259.304688 83.328125 254.816406 C 83.746094 253.550781 84.019531 252.253906 84.152344 250.925781 C 84.257812 249.582031 84.175781 248.25 83.90625 246.933594 C 83.839844 246.585938 83.023438 246.542969 83.082031 246.949219 Z M 83.078125 246.945312 " fill-opacity="1" fill-rule="nonzero"/><path fill="#255542" d="M 27.695312 296.726562 C 31.085938 295.519531 34.777344 295.789062 38.289062 296.164062 C 40.085938 296.355469 41.878906 296.585938 43.683594 296.679688 C 48.648438 296.964844 53.394531 296.074219 57.917969 294 C 60.910156 292.636719 63.613281 290.835938 66.027344 288.601562 C 67.136719 287.527344 68.1875 286.394531 69.167969 285.203125 C 69.632812 284.644531 70.125 284.113281 70.652344 283.613281 C 70.914062 283.375 71.191406 283.152344 71.480469 282.949219 C 71.742188 282.761719 72.019531 282.601562 72.3125 282.472656 C 72.347656 282.457031 72.574219 282.367188 72.449219 282.414062 L 72.675781 282.335938 C 72.765625 282.304688 72.855469 282.28125 72.949219 282.257812 L 73.066406 282.230469 C 73.03125 282.230469 72.933594 282.253906 73.097656 282.230469 C 73.425781 282.171875 73.894531 281.996094 73.929688 281.605469 C 73.96875 281.242188 73.507812 281.085938 73.21875 281.144531 C 71.582031 281.445312 70.253906 282.339844 69.085938 283.5 C 68.003906 284.582031 67.09375 285.820312 66.042969 286.929688 C 63.878906 289.214844 61.402344 291.085938 58.609375 292.539062 C 55.785156 294.015625 52.796875 295.003906 49.644531 295.496094 C 48.109375 295.734375 46.5625 295.839844 45.007812 295.808594 C 43.203125 295.777344 41.390625 295.59375 39.601562 295.417969 C 37.808594 295.242188 35.972656 295.074219 34.148438 295.054688 C 32.292969 295.035156 30.316406 295.164062 28.558594 295.800781 C 28.132812 295.957031 27.699219 296.105469 27.285156 296.289062 C 26.875 296.46875 27.425781 296.824219 27.699219 296.726562 Z M 27.695312 296.726562 " fill-opacity="1" fill-rule="nonzero"/><path fill="#255542" d="M 122.710938 255.117188 C 120.578125 258.214844 118.367188 261.273438 116.222656 264.371094 C 114.269531 267.199219 112.226562 270.03125 110.945312 273.246094 C 109.667969 276.460938 109.214844 279.933594 108.878906 283.367188 C 108.566406 286.535156 108.324219 289.726562 107.503906 292.816406 C 106.773438 295.585938 105.582031 298.304688 103.582031 300.402344 C 103.347656 300.648438 103.132812 300.855469 102.890625 301.125 C 102.71875 301.328125 102.6875 301.578125 102.945312 301.730469 C 103.257812 301.890625 103.558594 301.875 103.855469 301.6875 C 105.136719 300.789062 106.117188 299.414062 106.90625 298.074219 C 107.632812 296.820312 108.210938 295.507812 108.644531 294.125 C 109.597656 291.160156 109.964844 288.0625 110.257812 284.960938 C 110.582031 281.582031 110.847656 278.15625 111.828125 274.890625 C 112.8125 271.625 114.671875 268.761719 116.566406 265.972656 C 117.589844 264.464844 118.613281 262.957031 119.636719 261.449219 C 120.71875 259.84375 121.75 258.214844 122.84375 256.617188 L 123.617188 255.492188 C 123.945312 255.011719 122.957031 254.753906 122.710938 255.117188 Z M 122.710938 255.117188 " fill-opacity="1" fill-rule="nonzero"/><path fill="#255542" d="M 49.089844 326.628906 C 52.1875 324.734375 55.769531 323.6875 59.304688 322.960938 C 62.910156 322.21875 66.574219 321.753906 70.164062 320.941406 C 72.003906 320.539062 73.804688 320.007812 75.566406 319.351562 C 77.449219 318.617188 79.226562 317.6875 80.90625 316.5625 C 82.699219 315.378906 84.441406 314.117188 86.242188 312.949219 C 87.863281 311.894531 89.515625 310.882812 91.160156 309.890625 C 94.5 307.878906 97.839844 305.867188 101.054688 303.65625 C 101.300781 303.484375 101.539062 303.3125 101.777344 303.140625 C 102.089844 302.910156 102.378906 302.441406 101.878906 302.226562 C 101.199219 301.9375 100.433594 302.679688 99.90625 303.042969 C 99.042969 303.632812 98.175781 304.214844 97.300781 304.78125 C 95.710938 305.816406 94.097656 306.8125 92.476562 307.796875 C 89.066406 309.863281 85.660156 311.949219 82.386719 314.230469 C 80.675781 315.421875 78.980469 316.664062 77.109375 317.597656 C 75.480469 318.398438 73.796875 319.039062 72.050781 319.523438 C 68.605469 320.507812 64.957031 321.011719 61.40625 321.667969 C 57.789062 322.332031 54.136719 323.132812 50.8125 324.765625 C 49.996094 325.175781 49.210938 325.636719 48.457031 326.144531 C 47.960938 326.46875 48.75 326.859375 49.097656 326.648438 Z M 49.089844 326.628906 " fill-opacity="1" fill-rule="nonzero"/><path fill="#255542" d="M 146.101562 285.417969 C 145.136719 286.898438 144.484375 288.527344 143.757812 290.125 C 143.125 291.523438 142.445312 292.894531 141.675781 294.222656 C 140.214844 296.75 138.40625 299.054688 136.175781 300.890625 C 134.070312 302.628906 131.792969 303.921875 129.308594 305.140625 C 126.792969 306.375 124.410156 307.34375 121.820312 308.542969 C 118.894531 309.894531 116.015625 311.363281 113.441406 313.3125 C 113.171875 313.515625 113.078125 313.9375 113.410156 314.125 C 113.777344 314.332031 114.246094 314.15625 114.554688 313.929688 C 115.082031 313.539062 115.589844 313.195312 116.195312 312.800781 C 116.804688 312.40625 117.402344 312.0625 118.007812 311.714844 C 119.214844 311.027344 120.460938 310.414062 121.714844 309.824219 L 121.820312 309.773438 L 122.050781 309.664062 L 122.515625 309.453125 C 122.824219 309.308594 123.132812 309.167969 123.445312 309.027344 C 124.09375 308.734375 124.738281 308.445312 125.390625 308.152344 C 126.746094 307.546875 128.105469 306.9375 129.449219 306.292969 C 131.941406 305.085938 134.382812 303.742188 136.578125 302.046875 C 138.949219 300.1875 140.921875 297.96875 142.492188 295.398438 C 143.382812 293.945312 144.179688 292.445312 144.882812 290.894531 C 145.242188 290.109375 145.582031 289.316406 145.914062 288.515625 C 146.109375 288.070312 146.28125 287.613281 146.433594 287.148438 C 146.570312 286.652344 146.679688 286.148438 146.761719 285.640625 C 146.804688 285.359375 146.257812 285.191406 146.109375 285.417969 Z M 146.101562 285.417969 " fill-opacity="1" fill-rule="nonzero"/><path fill="#255542" d="M 80.664062 348.875 C 83.882812 348.554688 87.164062 348.109375 90 346.4375 C 91.453125 345.578125 92.625 344.371094 93.894531 343.273438 C 95.167969 342.175781 96.617188 341.3125 98.042969 340.417969 C 99.46875 339.539062 100.796875 338.523438 102.015625 337.375 C 103.199219 336.222656 104.28125 334.992188 105.273438 333.671875 C 107.304688 331.015625 109.113281 328.214844 110.695312 325.269531 C 112.265625 322.359375 113.597656 319.34375 114.6875 316.222656 C 114.816406 315.851562 114.941406 315.480469 115.042969 315.101562 C 115.277344 314.226562 113.765625 314.398438 113.53125 315.019531 C 112.953125 316.554688 112.4375 318.109375 111.8125 319.625 C 111.199219 321.09375 110.535156 322.539062 109.816406 323.960938 C 108.367188 326.8125 106.707031 329.53125 104.828125 332.121094 C 102.957031 334.703125 100.902344 337.167969 98.25 338.984375 C 96.90625 339.902344 95.484375 340.691406 94.164062 341.644531 C 92.847656 342.597656 91.707031 343.800781 90.429688 344.828125 C 87.613281 347.085938 83.957031 347.609375 80.480469 348.128906 C 80.28125 348.15625 80.03125 348.332031 80.082031 348.558594 C 80.128906 348.789062 80.453125 348.894531 80.660156 348.875 Z M 80.664062 348.875 " fill-opacity="1" fill-rule="nonzero"/><g clip-path="url(#2b2e45c73e)"><path fill="#d86741" d="M 231.183594 524.121094 L 147.609375 524.121094 C 146.675781 524.121094 145.738281 524.078125 144.808594 523.988281 C 143.875 523.902344 142.949219 523.773438 142.03125 523.601562 C 141.109375 523.429688 140.199219 523.214844 139.300781 522.960938 C 138.402344 522.703125 137.515625 522.40625 136.640625 522.066406 C 135.769531 521.730469 134.914062 521.351562 134.078125 520.933594 C 133.238281 520.515625 132.421875 520.058594 131.628906 519.566406 C 130.832031 519.074219 130.0625 518.546875 129.316406 517.980469 C 128.570312 517.417969 127.851562 516.820312 127.160156 516.1875 C 126.46875 515.554688 125.808594 514.894531 125.179688 514.203125 C 124.550781 513.511719 123.953125 512.789062 123.390625 512.042969 C 122.828125 511.296875 122.300781 510.523438 121.808594 509.726562 C 121.316406 508.929688 120.863281 508.113281 120.445312 507.277344 C 120.03125 506.4375 119.65625 505.582031 119.316406 504.707031 C 118.980469 503.835938 118.6875 502.949219 118.429688 502.046875 C 118.175781 501.148438 117.964844 500.238281 117.792969 499.316406 C 117.625 498.398438 117.496094 497.472656 117.414062 496.539062 L 107.511719 387.5 L 271.277344 387.5 L 261.375 496.539062 C 261.289062 497.472656 261.164062 498.398438 260.992188 499.316406 C 260.824219 500.238281 260.609375 501.148438 260.355469 502.046875 C 260.101562 502.949219 259.804688 503.835938 259.46875 504.707031 C 259.132812 505.582031 258.757812 506.4375 258.339844 507.273438 C 257.925781 508.113281 257.472656 508.929688 256.980469 509.726562 C 256.488281 510.523438 255.960938 511.292969 255.398438 512.042969 C 254.835938 512.789062 254.238281 513.507812 253.609375 514.203125 C 252.980469 514.894531 252.320312 515.554688 251.628906 516.1875 C 250.9375 516.816406 250.21875 517.414062 249.472656 517.980469 C 248.726562 518.542969 247.957031 519.074219 247.164062 519.566406 C 246.367188 520.058594 245.550781 520.515625 244.714844 520.933594 C 243.875 521.351562 243.019531 521.726562 242.148438 522.066406 C 241.277344 522.40625 240.390625 522.703125 239.492188 522.957031 C 238.589844 523.214844 237.679688 523.429688 236.761719 523.601562 C 235.839844 523.773438 234.914062 523.902344 233.984375 523.988281 C 233.050781 524.078125 232.117188 524.121094 231.183594 524.121094 Z M 231.183594 524.121094 " fill-opacity="1" fill-rule="nonzero"/></g><g clip-path="url(#cc141badf7)"><path fill="#f9bbaa" d="M 186.921875 387.5 L 191.867188 387.5 L 191.867188 524.113281 L 186.921875 524.113281 Z M 186.921875 387.5 " fill-opacity="1" fill-rule="nonzero"/></g><g clip-path="url(#cc75e23969)"><path fill="#f9bbaa" d="M 153.988281 387.5 L 158.933594 387.5 L 158.933594 524.113281 L 153.988281 524.113281 Z M 153.988281 387.5 " fill-opacity="1" fill-rule="nonzero"/></g><path fill="#f9bbaa" d="M 252.789062 515.0625 C 254.742188 513.078125 256.390625 510.871094 257.734375 508.4375 L 257.734375 387.5 L 252.789062 387.5 Z M 252.789062 515.0625 " fill-opacity="1" fill-rule="nonzero"/><g clip-path="url(#56f8c723fc)"><path fill="#f9bbaa" d="M 219.855469 387.5 L 224.800781 387.5 L 224.800781 524.113281 L 219.855469 524.113281 Z M 219.855469 387.5 " fill-opacity="1" fill-rule="nonzero"/></g><path fill="#f9bbaa" d="M 121.058594 508.4375 C 122.402344 510.871094 124.050781 513.082031 126.003906 515.0625 L 126.003906 387.5 L 121.058594 387.5 Z M 121.058594 508.4375 " fill-opacity="1" fill-rule="nonzero"/><path fill="#7e7e7e" d="M 48.371094 537.875 C 48.578125 545.089844 49.488281 555.035156 56.921875 558.445312 C 64.351562 555.035156 65.246094 545.089844 65.449219 537.875 Z M 305.054688 537.875 C 305.257812 545.089844 306.171875 555.035156 313.601562 558.445312 C 321.035156 555.035156 321.929688 545.089844 322.132812 537.875 Z M 305.054688 537.875 " fill-opacity="1" fill-rule="evenodd"/><g clip-path="url(#f80706417c)"><path fill="#e19a61" d="M 20.632812 510.878906 L 349.878906 510.878906 L 349.878906 539.421875 L 20.632812 539.421875 Z M 20.632812 510.878906 " fill-opacity="1" fill-rule="evenodd"/><path fill="#b7601b" d="M 20.632812 530.453125 L 20.632812 531.199219 C 22.148438 531.296875 23.675781 531.464844 25.203125 531.671875 C 28.015625 532.050781 30.835938 532.574219 33.648438 533.078125 C 36.507812 533.589844 39.359375 534.066406 42.167969 534.40625 C 44.441406 534.640625 47.367188 534.351562 49.96875 534.539062 C 51.074219 534.621094 52.121094 534.78125 53.019531 535.144531 C 54.78125 535.855469 55.382812 537.476562 55.355469 539.273438 C 55.355469 539.320312 55.351562 539.371094 55.351562 539.421875 L 56.402344 539.421875 C 56.40625 539.382812 56.40625 539.347656 56.410156 539.3125 C 56.542969 537.011719 55.738281 534.960938 53.519531 533.96875 C 52.515625 533.519531 51.335938 533.277344 50.082031 533.160156 C 47.5 532.910156 44.585938 533.1875 42.332031 532.921875 C 39.539062 532.644531 36.707031 532.199219 33.859375 531.78125 C 31.015625 531.363281 28.15625 530.964844 25.3125 530.707031 C 23.742188 530.570312 22.183594 530.476562 20.632812 530.453125 Z M 20.632812 523.390625 L 20.632812 524.140625 C 21.648438 524.589844 22.699219 524.992188 23.769531 525.351562 C 26.832031 526.386719 30.058594 527.085938 33.085938 527.617188 C 34.894531 527.933594 36.738281 528.078125 38.585938 528.105469 C 40.421875 528.132812 42.261719 528.046875 44.078125 527.90625 C 46.03125 527.75 47.957031 527.496094 49.890625 527.410156 C 51.144531 527.359375 52.398438 527.375 53.667969 527.542969 C 58.277344 528.144531 62.65625 529.417969 67.183594 530.09375 C 69.144531 530.382812 71.136719 530.558594 73.179688 530.535156 C 74.457031 530.515625 77.820312 529.917969 80.332031 530.132812 C 81.367188 530.21875 82.261719 530.386719 82.640625 530.953125 C 82.882812 531.308594 82.800781 531.804688 82.648438 532.3125 C 82.367188 533.25 81.765625 534.210938 81.378906 534.714844 C 80.421875 535.964844 79.167969 536.949219 77.792969 537.796875 C 76.824219 538.394531 75.796875 538.921875 74.765625 539.421875 L 77.125 539.421875 C 77.542969 539.207031 77.957031 538.980469 78.363281 538.746094 C 79.878906 537.855469 81.257812 536.800781 82.328125 535.460938 C 82.789062 534.882812 83.507812 533.769531 83.855469 532.6875 C 84.144531 531.777344 84.144531 530.886719 83.722656 530.234375 C 83.179688 529.402344 81.964844 528.933594 80.457031 528.78125 C 77.902344 528.527344 74.46875 529.082031 73.167969 529.082031 C 71.203125 529.089844 69.292969 528.898438 67.402344 528.617188 C 62.863281 527.941406 58.464844 526.71875 53.84375 526.148438 C 52.492188 525.984375 51.15625 525.984375 49.820312 526.0625 C 47.875 526.179688 45.933594 526.46875 43.96875 526.660156 C 42.191406 526.835938 40.390625 526.953125 38.589844 526.964844 C 36.800781 526.976562 35.007812 526.882812 33.246094 526.617188 C 30.25 526.164062 27.054688 525.550781 24.007812 524.609375 C 22.855469 524.253906 21.722656 523.851562 20.632812 523.390625 Z M 20.632812 515.675781 L 20.632812 516.378906 C 25.105469 517.667969 29.707031 518.46875 34.363281 518.972656 C 43.292969 519.945312 52.421875 519.851562 61.234375 520.183594 C 65.070312 520.324219 68.9375 520.652344 72.8125 521.058594 C 78.625 521.667969 84.449219 522.457031 90.171875 523.121094 C 92.878906 523.425781 95.589844 523.804688 98.28125 524.289062 C 100.964844 524.769531 103.632812 525.355469 106.253906 526.089844 C 106.613281 526.1875 107.796875 526.445312 108.878906 526.835938 C 109.386719 527.019531 109.871094 527.226562 110.210938 527.46875 C 110.304688 527.535156 110.417969 527.660156 110.453125 527.699219 C 109.832031 530.261719 107.476562 531.957031 104.453125 533.289062 C 98.492188 535.914062 89.945312 537.066406 85.261719 539.421875 L 87.859375 539.421875 C 92.710938 537.703125 99.796875 536.65625 104.960938 534.460938 C 108.457031 532.96875 111.078125 530.929688 111.800781 527.972656 C 111.941406 527.402344 111.675781 526.820312 111.019531 526.34375 C 109.851562 525.492188 107.222656 524.886719 106.640625 524.71875 C 103.976562 523.957031 101.273438 523.335938 98.546875 522.835938 C 95.824219 522.332031 93.082031 521.949219 90.339844 521.632812 C 84.609375 520.996094 78.777344 520.222656 72.953125 519.65625 C 69.042969 519.277344 65.140625 518.996094 61.273438 518.894531 C 52.480469 518.6875 43.378906 518.898438 34.453125 518.066406 C 29.773438 517.628906 25.140625 516.90625 20.632812 515.675781 Z M 110.855469 539.421875 L 111.871094 539.421875 C 113.460938 537.847656 115.101562 536.304688 116.699219 534.679688 C 118.933594 532.410156 120.96875 530.070312 123.382812 528.207031 C 124.945312 527.003906 126.667969 526 128.71875 525.347656 C 130.65625 524.730469 132.65625 524.378906 134.679688 524.167969 C 137.746094 523.847656 140.867188 523.847656 143.90625 523.753906 C 150 523.558594 156.109375 523.539062 162.210938 523.382812 C 164.835938 523.316406 167.457031 523.222656 170.070312 523.078125 C 173.347656 522.898438 176.625 522.753906 179.898438 522.628906 C 193.027344 522.125 206.144531 521.953125 219.273438 521.308594 C 223.589844 521.085938 227.847656 520.242188 232.136719 519.75 C 233.941406 519.542969 235.75 519.398438 237.570312 519.390625 C 240.347656 519.382812 243.121094 519.480469 245.898438 519.628906 C 257.027344 520.238281 268.175781 521.808594 279.316406 521.988281 C 294.183594 522.210938 309.207031 521.960938 324.042969 523.203125 C 332.742188 523.933594 341.375 525.171875 349.875 527.324219 L 349.875 526.617188 C 341.40625 524.398438 332.800781 523.082031 324.125 522.28125 C 309.277344 520.914062 294.226562 521.050781 279.34375 520.710938 C 268.21875 520.472656 257.089844 518.820312 245.980469 518.171875 C 243.175781 518.007812 240.371094 517.910156 237.570312 517.910156 C 235.691406 517.914062 233.824219 518.054688 231.96875 518.269531 C 227.707031 518.753906 223.480469 519.601562 219.199219 519.820312 C 207.71875 520.429688 196.246094 520.664062 184.769531 521.097656 C 179.84375 521.285156 174.921875 521.511719 170 521.816406 C 167.394531 521.976562 164.785156 522.085938 162.175781 522.171875 C 156.074219 522.375 149.960938 522.445312 143.867188 522.6875 C 140.804688 522.8125 137.660156 522.839844 134.574219 523.1875 C 132.488281 523.425781 130.425781 523.808594 128.4375 524.460938 C 126.28125 525.164062 124.476562 526.230469 122.847656 527.511719 C 120.414062 529.421875 118.378906 531.808594 116.136719 534.125 C 114.382812 535.941406 112.582031 537.65625 110.855469 539.421875 Z M 145.789062 539.421875 L 147.222656 539.421875 C 148.285156 538.78125 149.375 538.191406 150.507812 537.675781 C 157.332031 534.566406 164.546875 533.136719 171.902344 532.484375 C 182.976562 531.5 194.375 532.285156 205.273438 531.871094 C 218.972656 531.320312 232.660156 531.925781 246.359375 531.835938 C 249.792969 531.816406 253.222656 531.742188 256.65625 531.605469 C 268.453125 531.109375 280.269531 529.707031 292.09375 529.097656 C 297.148438 528.835938 302.203125 528.714844 307.257812 528.882812 C 318.949219 529.261719 330.191406 531.777344 341.625 533.167969 C 344.363281 533.5 347.109375 533.765625 349.875 533.925781 L 349.875 533.238281 C 348.792969 533.164062 347.710938 533.070312 346.636719 532.964844 C 333.46875 531.671875 320.691406 528.320312 307.300781 527.746094 C 302.214844 527.535156 297.125 527.605469 292.035156 527.832031 C 280.210938 528.355469 268.390625 529.707031 256.601562 530.128906 C 242.898438 530.675781 229.207031 530.109375 215.515625 530.261719 C 212.082031 530.296875 208.648438 530.386719 205.21875 530.542969 C 194.304688 531.050781 182.882812 530.355469 171.804688 531.441406 C 164.351562 532.171875 157.054688 533.710938 150.167969 536.933594 C 148.640625 537.648438 147.1875 538.492188 145.789062 539.421875 Z M 204.636719 539.421875 L 208.726562 539.421875 C 212.730469 538.589844 216.890625 538.128906 220.980469 537.703125 C 226.757812 537.082031 232.441406 536.820312 238.101562 536.699219 C 246.660156 536.519531 255.171875 536.6875 263.898438 536.675781 C 275.113281 536.585938 286.773438 536.164062 297.546875 538.613281 C 298.605469 538.851562 299.660156 539.121094 300.699219 539.421875 L 303.804688 539.421875 C 301.839844 538.695312 299.828125 538.09375 297.78125 537.597656 C 286.960938 534.972656 275.199219 535.265625 263.894531 535.21875 C 255.160156 535.242188 246.632812 535.042969 238.066406 535.277344 C 232.367188 535.433594 226.652344 535.792969 220.84375 536.480469 C 215.382812 537.136719 209.792969 537.855469 204.636719 539.421875 Z M 200.488281 510.878906 L 198.546875 510.878906 C 197.933594 511.136719 197.320312 511.386719 196.699219 511.625 C 195 512.273438 193.269531 512.816406 191.46875 513.171875 C 187.792969 513.894531 183.976562 514.253906 180.101562 514.425781 C 171.140625 514.824219 161.859375 514.199219 153.222656 514.566406 C 147.464844 514.820312 141.671875 515.847656 135.886719 516.257812 C 133.433594 516.429688 130.984375 516.492188 128.535156 516.328125 C 126.292969 516.179688 124.058594 515.9375 121.828125 515.652344 C 112.839844 514.503906 103.941406 512.53125 94.910156 511.847656 C 92.171875 511.648438 89.433594 511.675781 86.695312 511.820312 C 80.394531 512.148438 74.105469 513.082031 67.78125 513.066406 C 63.554688 513.058594 59.261719 512.691406 54.976562 512.117188 C 52.390625 511.769531 49.804688 511.34375 47.238281 510.878906 L 43.371094 510.878906 C 47.15625 511.683594 51 512.425781 54.851562 512.992188 C 59.171875 513.632812 63.503906 514.054688 67.773438 514.117188 C 74.113281 514.207031 80.433594 513.355469 86.757812 513.089844 C 89.441406 512.976562 92.121094 512.96875 94.808594 513.1875 C 103.8125 513.917969 112.671875 515.964844 121.636719 517.136719 C 123.898438 517.429688 126.164062 517.664062 128.4375 517.8125 C 130.953125 517.976562 133.472656 517.910156 135.992188 517.722656 C 141.765625 517.285156 147.539062 516.203125 153.289062 515.90625 C 161.914062 515.449219 171.199219 515.980469 180.15625 515.476562 C 184.078125 515.257812 187.9375 514.839844 191.648438 514.058594 C 193.492188 513.667969 195.265625 513.089844 196.996094 512.402344 C 198.175781 511.933594 199.335938 511.414062 200.488281 510.878906 Z M 267.933594 510.878906 L 264.890625 510.878906 C 273.480469 513.644531 282.25 515.414062 291.140625 516.386719 C 295.957031 516.914062 300.8125 517.210938 305.6875 517.296875 C 312.925781 517.421875 320.207031 517.074219 327.503906 516.492188 C 330.449219 516.246094 333.429688 516.441406 336.390625 516.359375 C 337.683594 516.324219 338.976562 516.234375 340.257812 516.035156 C 341.539062 515.835938 342.804688 515.546875 344.066406 515.207031 C 346.011719 514.683594 347.9375 514.046875 349.875 513.484375 L 349.875 512.738281 C 347.863281 513.261719 345.867188 513.871094 343.851562 514.363281 C 342.617188 514.664062 341.375 514.921875 340.125 515.085938 C 338.878906 515.246094 337.625 515.300781 336.371094 515.308594 C 333.386719 515.328125 330.386719 515.074219 327.414062 515.261719 C 320.152344 515.753906 312.910156 515.941406 305.714844 515.796875 C 300.878906 515.703125 296.066406 515.457031 291.28125 515.003906 C 283.410156 514.257812 275.613281 512.953125 267.933594 510.878906 Z M 267.933594 510.878906 " fill-opacity="1" fill-rule="evenodd"/></g></svg>